<svg width="1080" height="1080" viewBox="0 0 1080 1080" fill="none" xmlns="http://www.w3.org/2000/svg">
<rect width="1080" height="1080" fill="black"/>
<path d="M549.706 334.053C550.214 277.553 549.706 220.997 550.214 164.468H665.248C664.74 174.469 666.237 184.498 667.734 193.99H583.097V653.221C583.519 672.801 578.711 692.139 569.17 709.241C561.624 722.221 551.09 733.214 538.444 741.306C525.797 749.398 511.402 754.356 496.455 755.769C477.294 757.495 458.053 753.493 441.169 744.271C428.281 737.232 417.2 727.301 408.795 715.258C438.175 731.756 476.538 730.259 504.93 711.755C532.332 694.749 550.243 662.742 550.243 629.717C549.734 531.153 549.734 432.617 549.734 334.053H549.706ZM739.461 301.565C755.496 311.829 773.173 319.263 791.724 323.544C802.713 326.058 813.646 327.047 825.115 327.047V353.065C791.894 345.23 761.948 327.216 739.461 301.537V301.565Z" fill="#25F4EE"/>
<path d="M342.125 443.324C383.824 417.504 433.262 407.136 481.821 414.029V441.346C468.826 441.855 456.396 443.324 443.401 445.81C412.365 452.207 383.085 465.257 357.578 484.06C330.175 504.457 309.185 532.255 294.721 563.076C280.729 592.543 273.73 624.843 274.268 657.459C274.268 693.252 284.241 728.027 301.219 759.328C309.185 773.736 318.169 787.635 330.147 799.076C305.611 781.871 285.164 759.475 270.257 733.48C249.832 699.212 239.86 658.956 240.849 618.728C242.235 581.676 253.058 545.592 272.291 513.892C289.604 485.134 313.549 460.937 342.125 443.324Z" fill="#25F4EE"/>
<path d="M582.448 189.159H667.763C670.757 205.685 676.746 221.194 684.204 236.195C696.182 259.219 713.16 279.728 735.111 293.26C736.608 294.249 737.597 295.237 738.585 296.735C761.23 322.551 791.424 340.588 824.889 348.291C825.398 378.292 824.889 408.831 824.889 438.832C768.011 439.147 712.489 421.467 666.265 388.321C666.265 460.359 666.265 532.396 666.746 604.434C666.746 613.954 667.254 623.474 666.746 633.475C664.036 668.716 653.477 702.905 635.84 733.536C620.884 760.188 600.477 783.387 575.95 801.619C544.26 825.039 506.129 838.137 466.736 839.135C446.763 839.615 426.818 838.626 407.354 834.106C379.964 828.065 354.035 816.679 331.051 800.602L329.554 799.104C318.056 787.578 308.592 773.566 300.597 759.074C283.647 728.056 273.675 692.517 273.675 656.498C273.183 623.669 280.178 591.159 294.128 561.437C308.592 530.419 330.034 502.395 356.984 481.885C382.445 462.963 411.722 449.814 442.78 443.352C455.447 440.831 468.294 439.32 481.2 438.832C481.68 450.358 481.2 461.856 481.68 472.873V531.407C467.216 526.407 451.255 526.407 436.282 529.91C418.267 533.781 401.482 542.028 387.41 553.923C378.802 561.354 371.688 570.356 366.448 580.449C357.465 597.456 354.47 617.457 356.476 636.469C358.453 655.001 366.448 672.996 378.426 687.037C386.421 697.037 396.873 704.552 407.354 711.529C415.829 723.536 426.818 733.564 439.785 740.542C456.781 749.542 475.98 753.539 495.155 752.068C525.1 750.062 553.011 731.559 567.984 705.54C577.553 688.437 582.381 669.087 581.967 649.492C582.956 495.389 582.448 342.274 582.448 189.159Z" fill="white"/>
<path d="M667.734 189.159C677.707 189.667 687.651 189.159 698.131 189.159C698.131 222.691 708.584 256.224 727.992 283.74C730.478 287.243 732.992 290.237 735.478 293.26C713.556 279.728 696.126 259.219 684.684 236.195C676.976 221.336 671.276 205.519 667.734 189.159ZM824.607 348.291C835.568 350.805 846.529 351.794 857.97 351.794V468.382C801.187 468.89 744.433 449.878 698.131 416.345V647.515C698.716 665.004 697.035 682.494 693.131 699.551C681.984 751.77 651.804 797.972 608.466 829.162C585.787 845.5 560.032 857.071 532.756 863.175C499.924 870.688 465.765 870.174 433.175 861.678C394.323 851.442 359.23 830.263 332.068 800.658C354.979 817.156 380.884 828.145 408.286 834.163C427.694 838.683 447.61 839.671 467.527 839.163C506.88 838.163 544.968 825.053 576.6 801.619C601.008 783.623 620.952 760.091 636.377 733.593C653.998 702.947 664.547 668.75 667.254 633.503C667.752 623.838 667.752 614.155 667.254 604.49C666.746 532.453 666.746 460.387 666.746 388.321C712.872 421.473 768.312 439.165 825.115 438.86C824.607 408.831 825.115 378.321 824.607 348.291Z" fill="#FE2C55"/>
<path d="M476.99 437.504C487.895 437.504 499.28 438.013 510.156 439.482V558.443C494.011 553.067 476.672 552.381 460.153 556.465C428.965 563.443 402.721 587.314 391.845 617.683C380.94 647.543 388.285 685.963 407.1 711.36C396.119 705.039 384.5 695.54 375.488 683.364C363.415 669.139 355.844 651.646 353.736 633.107C351.73 614.18 354.696 594.292 363.623 577.37C368.567 567.426 375.997 558.443 384.415 550.985C398.258 539.035 415.603 531.577 432.92 527.085C447.78 523.61 463.628 523.61 477.979 528.582V470.387C476.99 460.443 477.499 448.974 476.99 437.533V437.504Z" fill="#FE2C55"/>
</svg>
