<?xml version="1.0" standalone="no"?><!DOCTYPE svg PUBLIC "-//W3C//DTD SVG 1.1//EN"
        "http://www.w3.org/Graphics/SVG/1.1/DTD/svg11.dtd">
<svg t="1669467864921" class="icon" viewBox="0 0 1024 1024" version="1.1" xmlns="http://www.w3.org/2000/svg" p-id="3497"
     width="200" height="200">
    <path
            d="M746.672 128H277.328C194.992 128 128 193.872 128 274.848v314.32C128 670.128 194.992 736 277.328 736h12.672v160l233.888-160h222.784C829.008 736 896 670.128 896 589.152V274.848C896 193.872 829.008 128 746.672 128zM832 589.152C832 634.848 793.712 672 746.672 672h-242.56l-150.112 102.576V672h-76.672C230.288 672 192 634.848 192 589.152V274.848C192 229.168 230.288 192 277.328 192h469.328C793.712 192 832 229.168 832 274.848v314.304z"
            p-id="3498" fill="#ffffff"></path>
    <path d="M512 432m-48 0a48 48 0 1 0 96 0 48 48 0 1 0-96 0Z" p-id="3499" fill="#ffffff"></path>
    <path d="M320 432m-48 0a48 48 0 1 0 96 0 48 48 0 1 0-96 0Z" p-id="3500" fill="#ffffff"></path>
    <path d="M704 432m-48 0a48 48 0 1 0 96 0 48 48 0 1 0-96 0Z" p-id="3501" fill="#ffffff"></path>
</svg>
