<svg width="1080" height="1080" viewBox="0 0 1080 1080" fill="none" xmlns="http://www.w3.org/2000/svg">
<rect width="1080" height="1080" fill="black"/>
<path fill-rule="evenodd" clip-rule="evenodd" d="M507.156 348.654L478.234 370.211L404.58 316.498L303.98 389.972L404.76 465.422L668.655 275L830.334 391.768L670.452 508.536L568.055 433.266L596.798 411.708L668.655 465.422L771.052 391.948L670.452 316.498L404.76 508.536L246.494 391.768L404.58 275L507.156 348.654Z" fill="white"/>
<path d="M883.251 602.045V747.095H858.304L785.355 648.294H784.07V747.095H756.024V602.045H781.122L853.995 700.917H855.356V602.045H883.251Z" fill="white"/>
<path d="M729.511 674.565C729.511 690.194 726.386 703.58 720.137 714.723C713.938 725.819 705.472 734.318 694.737 740.22C684.053 746.122 671.933 749.073 658.376 749.073C644.819 749.073 632.674 746.122 621.939 740.22C611.255 734.271 602.789 725.748 596.539 714.652C590.341 703.509 587.241 690.147 587.241 674.565C587.241 658.936 590.341 645.574 596.539 634.478C602.789 623.335 611.255 614.812 621.939 608.91C632.674 603.008 644.819 600.057 658.376 600.057C671.933 600.057 684.053 603.008 694.737 608.91C705.472 614.812 713.938 623.335 720.137 634.478C726.386 645.574 729.511 658.936 729.511 674.565ZM701.314 674.565C701.314 663.563 699.475 654.285 695.796 646.731C692.167 639.129 687.127 633.392 680.677 629.52C674.226 625.601 666.792 623.641 658.376 623.641C649.96 623.641 642.526 625.601 636.076 629.52C629.625 633.392 624.56 639.129 620.881 646.731C617.252 654.285 615.438 663.563 615.438 674.565C615.438 685.566 617.252 694.868 620.881 702.47C624.56 710.025 629.625 715.762 636.076 719.681C642.526 723.552 649.96 725.488 658.376 725.488C666.792 725.488 674.226 723.552 680.677 719.681C687.127 715.762 692.167 710.025 695.796 702.47C699.475 694.868 701.314 685.566 701.314 674.565Z" fill="white"/>
<path d="M398.252 602.045H432.572L478.534 707.15H480.348L526.31 602.045H560.63V747.095H533.718V647.444H532.282L489.495 746.67H469.387L426.6 647.232H425.164V747.095H398.252V602.045Z" fill="white"/>
<path d="M367.884 602.045V747.095H339.838V602.045H367.884Z" fill="white"/>
<path d="M285.731 641.914C285.026 635.729 282.052 630.913 276.811 627.466C271.62 624.019 264.867 622.296 256.552 622.296C250.706 622.296 245.691 623.122 241.508 624.775C237.325 626.427 234.125 628.67 231.908 631.503C229.69 634.336 228.556 637.57 228.506 641.206C228.506 644.228 229.237 646.849 230.698 649.068C232.21 651.287 234.251 653.176 236.821 654.734C239.392 656.245 242.239 657.52 245.364 658.558C248.488 659.597 251.638 660.471 254.813 661.179L269.327 664.579C275.173 665.853 280.792 667.577 286.185 669.749C291.628 671.921 296.491 674.659 300.775 677.965C305.109 681.27 308.536 685.26 311.056 689.934C313.575 694.609 314.835 700.086 314.835 706.366C314.835 714.865 312.517 722.348 307.881 728.817C303.244 735.239 296.541 740.267 287.772 743.903C279.054 747.491 268.496 749.286 256.098 749.286C244.053 749.286 233.596 747.539 224.726 744.045C215.907 740.551 209.002 735.451 204.013 728.746C199.074 722.042 196.403 713.873 196 704.241H223.592C223.995 709.293 225.658 713.495 228.581 716.848C231.504 720.2 235.309 722.703 239.996 724.355C244.734 726.008 250.025 726.834 255.871 726.834C261.969 726.834 267.311 725.984 271.897 724.284C276.534 722.537 280.162 720.129 282.783 717.06C285.404 713.944 286.739 710.308 286.79 706.153C286.739 702.376 285.555 699.259 283.237 696.804C280.918 694.302 277.668 692.224 273.485 690.571C269.352 688.872 264.514 687.361 258.971 686.039L241.357 681.789C228.607 678.72 218.527 674.069 211.119 667.837C203.761 661.557 200.082 653.223 200.082 642.835C200.082 634.289 202.552 626.805 207.49 620.384C212.48 613.962 219.258 608.981 227.825 605.439C236.393 601.851 246.094 600.057 256.93 600.057C267.916 600.057 277.542 601.851 285.807 605.439C294.122 608.981 300.649 613.915 305.386 620.242C310.123 626.522 312.567 633.746 312.719 641.914H285.731Z" fill="white"/>
<path d="M921.024 633.857V612.353H931.659C932.863 612.353 934.01 612.625 935.097 613.169C936.205 613.693 937.098 614.48 937.778 615.529C938.477 616.578 938.827 617.87 938.827 619.404C938.827 620.939 938.468 622.25 937.749 623.338C937.03 624.406 936.098 625.222 934.952 625.786C933.825 626.349 932.64 626.631 931.397 626.631H923.967V622.755H930.115C930.872 622.755 931.572 622.474 932.213 621.91C932.854 621.347 933.174 620.512 933.174 619.404C933.174 618.239 932.854 617.423 932.213 616.957C931.572 616.491 930.901 616.257 930.202 616.257H926.327V633.857H921.024ZM934.515 623.863L939.585 633.857H933.757L928.949 623.863H934.515ZM929.386 646.678C926.162 646.678 923.141 646.076 920.324 644.871C917.508 643.667 915.031 641.996 912.894 639.859C910.757 637.723 909.087 635.246 907.882 632.429C906.678 629.612 906.076 626.592 906.076 623.367C906.076 620.143 906.678 617.122 907.882 614.305C909.087 611.489 910.757 609.012 912.894 606.875C915.031 604.738 917.508 603.068 920.324 601.863C923.141 600.659 926.162 600.057 929.386 600.057C932.611 600.057 935.632 600.659 938.448 601.863C941.265 603.068 943.742 604.738 945.878 606.875C948.015 609.012 949.686 611.489 950.89 614.305C952.095 617.122 952.697 620.143 952.697 623.367C952.697 626.592 952.095 629.612 950.89 632.429C949.686 635.246 948.015 637.723 945.878 639.859C943.742 641.996 941.265 643.667 938.448 644.871C935.632 646.076 932.611 646.678 929.386 646.678ZM929.386 640.704C932.572 640.704 935.476 639.927 938.099 638.373C940.721 636.819 942.809 634.731 944.363 632.109C945.937 629.467 946.723 626.553 946.723 623.367C946.723 620.181 945.937 617.277 944.363 614.655C942.809 612.013 940.721 609.915 938.099 608.361C935.476 606.807 932.572 606.03 929.386 606.03C926.181 606.03 923.267 606.807 920.645 608.361C918.022 609.915 915.924 612.013 914.351 614.655C912.797 617.277 912.02 620.181 912.02 623.367C912.02 626.553 912.797 629.457 914.351 632.08C915.924 634.702 918.022 636.8 920.645 638.373C923.267 639.927 926.181 640.704 929.386 640.704Z" fill="white"/>
</svg>
