<svg width="295" height="384" viewBox="0 0 295 384" fill="none" xmlns="http://www.w3.org/2000/svg">
<path fill-rule="evenodd" clip-rule="evenodd" d="M124 238L4 131L29 127L50 116L291 130L250 163L124 238Z" fill="#FFB565" stroke="#381800" stroke-width="3"/>
<path fill-rule="evenodd" clip-rule="evenodd" d="M243 150L265 147L290 130V361L268 360L244 380L243 150Z" fill="#FFD28A" stroke="#381800" stroke-width="3"/>
<path fill-rule="evenodd" clip-rule="evenodd" d="M267 219V357Z" fill="#FFD28A"/>
<path d="M267 219V357" stroke="#381800" stroke-width="3" stroke-linecap="round" stroke-linejoin="round"/>
<path fill-rule="evenodd" clip-rule="evenodd" d="M267 166V194Z" fill="#FFD28A"/>
<path d="M267 166V194" stroke="#381800" stroke-width="3" stroke-linecap="round" stroke-linejoin="round"/>
<path d="M99.0001 119C99.0001 119 93.1881 37.2 161.1 8.98996C168.492 5.91896 172.746 4.68996 182 3.99996C187.871 3.45806 193.789 3.70628 199.594 4.73796C205.371 5.90448 210.915 8.02049 216 11C238.214 23.488 263.93 40.274 269 133" stroke="#381800" stroke-width="6"/>
<path fill-rule="evenodd" clip-rule="evenodd" d="M67 367L93 347H115V276L61 219L67 367Z" fill="#FFD28A" stroke="#381800" stroke-width="3" stroke-linecap="round" stroke-linejoin="round"/>
<path fill-rule="evenodd" clip-rule="evenodd" d="M93 297V345Z" fill="#FFD28A"/>
<path d="M93 297V345" stroke="#381800" stroke-width="3" stroke-linecap="round" stroke-linejoin="round"/>
<path fill-rule="evenodd" clip-rule="evenodd" d="M75 136L6 130L7 360L68 367L69 234L126 328L185 243V374L247 379L248 149L183 143L127 228L75 136Z" fill="#F89900" stroke="#381800" stroke-width="3" stroke-linecap="round" stroke-linejoin="round"/>
<path d="M60.0001 163C60.0001 163 54.1881 51.1999 122.1 22.9899C129.492 19.9189 136.758 18.8389 146 17.9999C156.827 17.0239 163.45 18.6419 173.262 24.6109C199.612 40.6389 229.5 84.1359 230 177" stroke="#381800" stroke-width="6"/>
</svg>
