<svg width="1080" height="1080" viewBox="0 0 1080 1080" fill="none" xmlns="http://www.w3.org/2000/svg">
<rect width="1080" height="1080" fill="#0A0639"/>
<g clip-path="url(#clip0_239_1142)">
<path fill-rule="evenodd" clip-rule="evenodd" d="M527.11 259.568H376.313C376.313 259.568 336.733 261.01 329.745 292.781C322.754 324.549 314.222 382.652 314.222 382.652L611.378 548.718L646.857 474.479L527.11 259.568Z" fill="#8F4898"/>
<path fill-rule="evenodd" clip-rule="evenodd" d="M527.109 257.612L611.378 548.718L649.076 472.523L527.109 257.612Z" fill="#A256AC"/>
<path fill-rule="evenodd" clip-rule="evenodd" d="M733.345 271.288C733.345 271.288 718.75 259.568 695.644 259.568C672.541 259.568 560.373 259.568 560.373 259.568L657.946 435.402L733.345 271.288Z" fill="#A5CF63"/>
<path fill-rule="evenodd" clip-rule="evenodd" d="M751.084 304.504L662.381 507.691L795.436 560.441L751.084 304.504Z" fill="#0081C7"/>
<path fill-rule="evenodd" clip-rule="evenodd" d="M775.476 439.311L660.164 509.644L799.87 562.397L775.476 439.311Z" fill="#0095DA"/>
<path fill-rule="evenodd" clip-rule="evenodd" d="M473.886 511.6L520.456 746.047H294.263C294.263 746.047 249.628 740.469 254.346 697.203C273.334 680.083 473.886 511.6 473.886 511.6Z" fill="#E81D64"/>
<path fill-rule="evenodd" clip-rule="evenodd" d="M471.669 513.553L520.455 745.341L593.635 583.887L471.669 513.553Z" fill="#D01858"/>
<path fill-rule="evenodd" clip-rule="evenodd" d="M651.292 535.043L555.938 746.048H777.696C777.696 746.048 831.674 741.548 824.263 697.204C816.855 652.859 806.524 595.61 806.524 595.61L651.292 535.043Z" fill="#F78F22"/>
<path fill-rule="evenodd" clip-rule="evenodd" d="M804.305 593.657L555.938 748L649.076 533.09L804.305 593.657Z" fill="#F8A043"/>
<path fill-rule="evenodd" clip-rule="evenodd" d="M447.276 494.016L263.216 652.268L305.351 413.912L447.276 494.016Z" fill="#F89023"/>
<path fill-rule="evenodd" clip-rule="evenodd" d="M447.277 494.016L285.394 519.414L305.352 413.912L447.277 494.016Z" fill="#E58117"/>
<path fill-rule="evenodd" clip-rule="evenodd" d="M661.596 232.952C661.605 233.644 661.646 234.329 661.646 235.023H661.279C660.126 239.479 656.108 242.784 651.282 242.784H648.33C643.507 242.784 639.487 239.479 638.333 235.023H638.241C638.241 234.917 638.232 234.811 638.232 234.704C638.07 233.972 637.966 233.218 637.966 232.435C637.966 231.862 638.046 231.31 638.135 230.763C635.904 172.852 588.502 126.584 530.322 126.584C472.139 126.584 424.737 172.852 422.507 230.763C422.598 231.31 422.675 231.862 422.675 232.435C422.675 233.218 422.575 233.972 422.409 234.704C422.409 234.811 422.4 234.917 422.4 235.023H422.311C421.155 239.479 417.137 242.784 412.312 242.784H409.359C404.536 242.784 400.519 239.479 399.362 235.023H398.995C398.995 234.329 399.037 233.644 399.048 232.952C399.04 232.778 398.995 232.613 398.995 232.435C398.995 232.14 399.057 231.865 399.081 231.576C400.906 160.296 458.941 103.065 530.322 103.065C601.7 103.065 659.735 160.296 661.56 231.576C661.584 231.865 661.646 232.14 661.646 232.435C661.646 232.613 661.605 232.778 661.596 232.952Z" fill="white"/>
</g>
<path d="M867 825V960H849.693V825H867Z" fill="white"/>
<path d="M820.664 825V960H803.357V825H820.664Z" fill="white"/>
<path d="M757.672 943.74V894.785C757.672 891.035 756.866 887.783 755.253 885.029C753.702 882.217 751.345 880.049 748.182 878.525C745.018 877.002 741.11 876.24 736.458 876.24C732.116 876.24 728.301 876.943 725.013 878.35C721.788 879.756 719.245 881.602 717.384 883.887C715.585 886.172 714.685 888.633 714.685 891.27H697.472C697.472 887.871 698.403 884.502 700.263 881.162C702.124 877.822 704.792 874.805 708.265 872.109C711.801 869.355 716.019 867.188 720.919 865.605C725.882 863.965 731.402 863.145 737.481 863.145C744.801 863.145 751.252 864.316 756.835 866.66C762.479 869.004 766.884 872.549 770.047 877.295C773.273 881.982 774.885 887.871 774.885 894.961V939.258C774.885 942.422 775.165 945.791 775.723 949.365C776.343 952.939 777.243 956.016 778.421 958.594V960H760.464C759.595 958.125 758.913 955.635 758.417 952.529C757.92 949.365 757.672 946.436 757.672 943.74ZM760.65 902.344L760.836 913.77H743.436C738.536 913.77 734.163 914.15 730.317 914.912C726.471 915.615 723.246 916.699 720.64 918.164C718.035 919.629 716.05 921.475 714.685 923.701C713.321 925.869 712.638 928.418 712.638 931.348C712.638 934.336 713.352 937.061 714.778 939.521C716.205 941.982 718.345 943.945 721.199 945.41C724.114 946.816 727.681 947.52 731.899 947.52C737.171 947.52 741.824 946.465 745.855 944.355C749.887 942.246 753.082 939.668 755.439 936.621C757.858 933.574 759.161 930.615 759.347 927.744L766.698 935.566C766.263 938.027 765.085 940.752 763.162 943.74C761.239 946.729 758.665 949.6 755.439 952.354C752.276 955.049 748.492 957.305 744.088 959.121C739.746 960.879 734.845 961.758 729.386 961.758C722.563 961.758 716.577 960.498 711.429 957.979C706.342 955.459 702.372 952.09 699.519 947.871C696.728 943.594 695.332 938.818 695.332 933.545C695.332 928.447 696.387 923.965 698.496 920.098C700.605 916.172 703.644 912.92 707.614 910.342C711.584 907.705 716.36 905.713 721.943 904.365C727.526 903.018 733.76 902.344 740.645 902.344H760.65Z" fill="white"/>
<path d="M540.227 832.031H557.626L602.008 936.357L646.298 832.031H663.79L608.708 960H595.123L540.227 832.031ZM534.551 832.031H549.903L552.415 910.078V960H534.551V832.031ZM654.021 832.031H669.373V960H651.508V910.078L654.021 832.031Z" fill="white"/>
<path d="M511.755 864.902V877.383H457.323V864.902H511.755ZM475.746 841.787H492.959V936.445C492.959 939.668 493.487 942.1 494.541 943.74C495.596 945.381 496.96 946.465 498.635 946.992C500.31 947.52 502.109 947.783 504.032 947.783C505.459 947.783 506.947 947.666 508.498 947.432C510.111 947.139 511.32 946.904 512.127 946.729L512.22 960C510.855 960.41 509.056 960.791 506.823 961.143C504.652 961.553 502.016 961.758 498.914 961.758C494.696 961.758 490.819 960.967 487.284 959.385C483.748 957.803 480.926 955.166 478.817 951.475C476.77 947.725 475.746 942.686 475.746 936.357V841.787Z" fill="white"/>
<path d="M381.492 885.205V960H364.278V864.902H380.561L381.492 885.205ZM377.398 908.848L370.233 908.584C370.295 902.08 371.319 896.074 373.304 890.566C375.289 885 378.08 880.166 381.678 876.064C385.275 871.963 389.556 868.799 394.518 866.572C399.542 864.287 405.094 863.145 411.173 863.145C416.135 863.145 420.602 863.789 424.571 865.078C428.541 866.309 431.922 868.301 434.713 871.055C437.567 873.809 439.738 877.383 441.227 881.777C442.715 886.113 443.46 891.416 443.46 897.686V960H426.153V897.51C426.153 892.529 425.378 888.545 423.827 885.557C422.276 882.51 420.012 880.312 417.035 878.965C414.057 877.559 410.398 876.855 406.056 876.855C401.775 876.855 397.868 877.705 394.332 879.404C390.858 881.104 387.85 883.447 385.306 886.436C382.825 889.424 380.871 892.852 379.445 896.719C378.08 900.527 377.398 904.57 377.398 908.848Z" fill="white"/>
<path d="M292.726 843.369L247.879 960H229.549L281.189 832.031H293.006L292.726 843.369ZM330.317 960L285.376 843.369L285.097 832.031H296.913L348.739 960H330.317ZM327.99 912.627V926.514H251.88V912.627H327.99Z" fill="white"/>
<defs>
<clipPath id="clip0_239_1142">
<rect width="571" height="647" fill="white" transform="translate(254 101)"/>
</clipPath>
</defs>
</svg>
