<svg width="1024" height="1024" viewBox="0 0 1024 1024" fill="none" xmlns="http://www.w3.org/2000/svg">
<g clip-path="url(#clip0_170_1095)">
<path fill-rule="evenodd" clip-rule="evenodd" d="M-6 0H1024.01V1024H-6V0Z" fill="#ED0701"/>
<path fill-rule="evenodd" clip-rule="evenodd" d="M-8 251C-8 251 65.6642 194.522 156.144 146.135C206.49 119.21 258.62 96.1091 313.009 80.0001C341.462 72.5441 375.88 62.1361 431.557 54.4751C570.051 35.4201 783.684 40.9001 921.389 257.725C930.02 271.758 963.841 332.453 969.241 432.95C978.284 601.259 916.159 856.605 478.014 1028H-6.99997L-8 251ZM394.012 148C394.012 148 195.447 162.948 86.0028 360C63.2421 398.465 -78.9581 667.853 149.005 904C164.451 917.727 211.448 954.661 275.275 968.966C335.776 982.525 411.805 975.636 476.014 948C518.143 928.112 695.941 849.889 741.022 647C753.405 592.784 795.743 434.233 672.02 266C644.474 234.1 574.682 139.315 394.012 148Z" fill="white"/>
<path fill-rule="evenodd" clip-rule="evenodd" d="M49.7879 951.17C55.1367 962.165 62.1149 970.202 70.7225 975.282C79.3301 980.362 90.2014 982.902 103.336 982.902C116.259 982.902 127.051 979.96 135.711 974.076C144.372 968.192 150.993 959.962 155.573 949.385C160.154 938.809 162.445 925.258 162.445 908.732C162.445 885.97 157.202 868.27 146.715 855.632C136.228 842.994 121.291 836.678 101.903 836.684C82.9942 836.684 68.2431 843.114 57.6501 855.974C47.0572 868.834 41.7617 886.806 41.7637 909.889C41.7637 926.415 44.4384 940.175 49.7879 951.17ZM84.3479 879.122C88.7434 872.885 94.5696 869.766 101.826 869.766C105.359 869.665 108.86 870.457 112.006 872.067C115.152 873.676 117.842 876.053 119.827 878.977C124.248 885.118 126.459 894.844 126.46 908.153C126.46 923.971 124.342 934.934 120.105 941.042C115.868 947.15 109.883 950.204 102.149 950.205C98.6251 950.297 95.1358 949.486 92.0138 947.848C88.8917 946.21 86.2406 943.801 84.3129 940.849C79.9435 934.613 77.7587 924.357 77.7587 910.082C77.7554 895.679 79.9518 885.359 84.3479 879.122ZM208.495 980.49H237.174L273.034 878.061H240.407L223.423 942.971L207.055 878.061H173.406L208.495 980.49ZM379.254 934.58C379.254 921.077 377.426 910.114 373.771 901.691C370.117 893.268 364.793 886.838 357.802 882.4C350.811 877.963 341.277 875.745 329.201 875.745C314.317 875.745 302.65 880.696 294.2 890.598C285.751 900.5 281.526 913.456 281.528 929.467C281.528 940.72 283.633 950.51 287.844 958.836C292.055 967.162 297.365 973.238 303.773 977.065C310.182 980.89 318.974 982.803 330.15 982.804C343.021 982.804 352.898 980.571 359.784 976.104C366.67 971.637 372.549 964.259 377.422 953.969L345.568 950.4C344.097 952.88 342.185 955.07 339.926 956.862C337.272 958.726 334.112 959.736 330.869 959.756C325.837 959.756 321.759 957.538 318.635 953.101C316.409 950.014 315.006 945.32 314.424 939.019H379.254V934.58ZM314.503 920.209C315.031 914.101 316.276 909.504 318.237 906.417C321.308 901.466 325.413 898.99 330.551 898.99C332.603 898.925 334.643 899.335 336.51 900.188C338.378 901.041 340.023 902.315 341.316 903.909C344.045 907.188 345.726 912.621 346.362 920.209H314.503ZM397.682 980.49H430.176V946.154C430.176 929.758 431.843 918.57 435.176 912.59C437.51 908.346 440.794 906.224 445.029 906.224C447.253 906.224 450.271 907.188 454.085 909.117L464.096 881.147C458.429 877.547 453.212 875.747 448.445 875.747C444.238 875.622 440.139 877.085 436.964 879.847C433.865 882.58 430.859 887.58 427.947 894.847V878.061H397.682V980.49ZM479.709 974.8C486.249 980.138 497.227 982.805 512.64 982.8C523.551 982.8 532.171 981.146 538.5 977.839C544.405 974.94 549.263 970.276 552.401 964.494C555.267 959.195 556.782 953.271 556.811 947.246C556.864 941.609 555.425 936.058 552.64 931.156C549.855 926.271 545.66 922.342 540.603 919.883C535.359 917.249 527.361 915.193 516.61 913.716C509.511 912.689 504.903 911.533 502.785 910.249C501.784 909.686 500.957 908.858 500.397 907.855C499.836 906.853 499.563 905.715 499.608 904.567C499.594 903.489 499.809 902.421 500.24 901.433C500.671 900.445 501.308 899.56 502.108 898.838C503.775 897.264 506.436 896.477 510.092 896.478C513.432 896.39 516.696 897.482 519.309 899.564C521.163 901.107 522.487 903.518 523.281 906.798L553.949 903.133C551.829 896.446 549.168 891.141 545.963 887.218C542.794 883.323 538.655 880.329 533.963 878.538C529.169 876.671 521.74 875.738 511.677 875.738C502.144 875.738 494.544 876.943 488.877 879.352C483.434 881.582 478.786 885.396 475.538 890.3C472.43 895.397 470.756 901.239 470.693 907.209C470.63 913.179 472.18 919.055 475.18 924.217C477.762 928.657 481.606 932.229 486.224 934.478C490.594 936.502 498.394 938.702 509.624 941.078C517.145 942.684 521.778 944.032 523.525 945.122C524.667 945.784 525.61 946.742 526.253 947.894C526.896 949.047 527.216 950.352 527.179 951.672C527.203 952.855 526.966 954.029 526.486 955.111C526.005 956.193 525.293 957.155 524.399 957.931C522.015 960.179 518.651 961.303 514.309 961.302C510.336 961.302 507.159 960.305 504.775 958.312C502.392 956.319 500.538 953.007 499.213 948.378L467.112 952.043C468.969 961.881 473.168 969.467 479.709 974.8ZM582.074 859.253V878.061H570.157V906.8H582.074V942.83C582.074 954.261 582.988 962.527 584.816 967.63C586.643 972.733 589.463 976.537 593.277 979.044C597.09 981.549 603.023 982.801 611.077 982.801C618.65 982.712 626.18 981.642 633.478 979.618L631.094 952.518C626.804 954.185 623.467 955.018 621.084 955.018C619.934 955.103 618.785 954.836 617.791 954.25C616.797 953.665 616.006 952.791 615.523 951.744C614.834 950.334 614.489 947.447 614.489 943.082V906.8H632.29V878.061H614.489V839.1L582.074 859.253ZM662.394 970.267C670.762 978.626 681.726 982.805 695.285 982.805C710.485 982.805 722.389 977.774 730.997 967.711C739.604 957.648 743.908 944.74 743.907 928.986C743.907 914.969 740.438 903.169 733.5 893.586C724.866 881.691 712.101 875.743 695.206 875.743C680.429 875.743 668.697 880.807 660.01 890.934C651.323 901.061 646.98 913.937 646.98 929.562C646.98 946.344 652.118 959.911 662.394 970.262V970.267ZM684.003 909.359C687.075 904.955 690.968 902.753 695.682 902.752C700.131 902.752 703.865 904.922 706.882 909.262C709.9 913.602 711.409 920.209 711.411 929.083C711.411 938.599 709.915 945.511 706.922 949.819C703.929 954.127 700.103 956.281 695.442 956.281C690.834 956.281 687.007 954.095 683.961 949.723C680.916 945.351 679.393 938.599 679.393 929.468C679.395 920.467 680.931 913.764 684.003 909.359ZM819.181 952.52C816.264 955.169 812.434 956.585 808.495 956.474C803.411 956.474 799.227 954.292 795.943 949.928C792.659 945.564 791.017 939.178 791.017 930.769C791.017 921.333 792.672 914.289 795.983 909.636C799.294 904.983 803.623 902.656 808.972 902.655C813.21 902.655 816.586 903.764 819.101 905.983C821.617 908.202 823.35 911.497 824.302 915.869L854.731 910.95C851.816 899.441 846.745 890.696 839.516 884.716C832.287 878.736 821.787 875.746 808.015 875.746C798.163 875.746 790.086 877.32 783.783 880.467C779.399 882.779 775.469 885.864 772.183 889.574C768.435 893.631 765.423 898.31 763.283 903.401C760.315 910.401 758.832 919.171 758.834 929.71C758.834 939.796 760.052 947.891 762.488 953.994C764.802 959.905 768.227 965.318 772.578 969.941C776.813 974.436 782.094 977.813 787.952 979.77C793.91 981.792 801.365 982.804 810.316 982.805C819.583 982.805 827.223 981.23 833.237 978.079C839.206 974.966 844.3 970.406 848.053 964.817C852.106 958.68 854.938 951.82 856.396 944.611L825.65 940.367C824.224 945.833 822.068 949.884 819.181 952.52ZM874.514 980.49H907.564V953.87L919.745 939.43L936.835 980.49H973.268L941.251 913.941L971.52 878.061H931.719L907.564 912.08V839.1H874.514V980.49Z" fill="#355497" stroke="white" stroke-width="6" stroke-linejoin="round"/>
</g>
<defs>
<clipPath id="clip0_170_1095">
<rect width="1024" height="1024" fill="white"/>
</clipPath>
</defs>
</svg>
