<svg width="1024" height="1024" viewBox="0 0 1024 1024" fill="none" xmlns="http://www.w3.org/2000/svg">
<rect width="1024" height="1024" rx="230" fill="white"/>
<g clip-path="url(#clip0_68_133)">
<path d="M499.361 720.953C418.271 720.953 340.328 721.3 262.384 720.729C240.911 720.566 223.382 706.523 225.445 671.651C228.122 626.302 229.47 580.851 231.288 535.441C234.394 457.828 237.52 380.175 240.523 302.542C241.688 272.357 242.627 242.152 243.506 211.946C243.792 202.51 243.547 193.073 243.547 183.004C293.255 183.004 341.39 183.004 388.524 183.004C384.274 200.39 380.188 218.02 375.489 235.487C374.733 238.32 371.362 240.521 369.033 242.865C359.655 252.261 358.92 264.449 367.153 275.007C375.101 285.177 387.891 287.562 399.046 280.978C409.874 274.579 415.84 260.026 408.546 250.345C400.088 239.094 402.826 228.578 405.134 217.266C405.747 214.31 406.626 211.376 407.668 208.543C417.148 182.597 417.168 182.597 444.729 182.556C494.723 182.475 544.738 182.638 594.732 182.128C603.558 182.047 608.789 184.615 611.465 192.91C615.592 205.73 620.495 218.326 623.907 231.329C624.888 235.1 623.029 240.684 620.598 244.088C611.955 256.194 612.752 269.789 623.56 278.533C634.817 287.643 649.18 286.522 658.109 275.801C667.18 264.938 665.709 250.895 654.676 240.745C652.837 239.054 650.835 236.852 650.243 234.549C645.891 217.592 641.887 200.553 637.678 183.147C684.281 183.147 732.293 183.147 782.471 183.147C782.471 194.296 782.144 205.404 782.532 216.471C785.188 295.51 787.906 374.57 790.746 453.61C792.36 498.714 794.157 543.818 796.017 588.902C797.304 620.065 799.143 651.208 800.123 682.371C800.818 704.078 786.067 721.035 761.162 720.994C710.432 720.913 659.702 720.974 608.972 720.974C601.965 720.974 594.957 720.974 587.949 720.974C607.338 711.7 624.255 699.757 638.209 683.737C665.505 652.39 678.294 615.296 682.953 574.594C687.406 535.727 697.479 498.347 714.968 463.067C717.133 458.705 718.87 451.694 716.827 448.351C714.804 445.049 707.469 442.909 702.893 443.521C652.225 450.145 605.356 466.654 564.801 498.653C553.094 507.885 552.91 508.048 560.163 520.216C575.977 546.794 585.375 575.389 588.297 606.145C588.501 608.224 589.441 610.221 590.564 614.093C596.939 600.377 601.434 587.924 608.217 576.877C614.918 565.952 623.948 556.455 633.163 544.837C634.45 548.811 634.961 549.749 634.777 549.892C605.029 575.47 594.242 610.527 585.906 646.826C580.083 672.181 570.113 695.762 553.503 716.001C550.683 719.445 544.84 720.424 539.365 720.464C546.291 710.151 554.177 700.368 559.959 689.444C592.71 627.545 580.758 569.213 544.677 513.123C525.839 483.835 500.383 461.069 472.76 440.3C432.818 410.278 397.759 375.447 370.259 333.481C369.135 331.769 367.95 330.118 366.704 328.508C357.49 316.442 347.54 317.176 341.267 331.076C326.619 363.544 315.852 397.397 312.603 432.882C310.253 458.725 308.251 485.099 310.703 510.8C316.607 572.964 345.17 624.121 393.816 663.58C423.583 687.732 457.008 705.606 493.375 717.937C494.539 718.365 495.622 719.078 499.361 720.953Z" fill="#4DAA71"/>
<path d="M381.76 247.337C386.153 193.836 407.421 149.812 455.638 122.603C510.944 91.3987 580.593 110.17 616.674 164.324C634.469 191.023 642.866 220.556 645.093 252.127C645.42 256.713 646.319 262.522 639.107 262.726C631.445 262.929 632.283 256.978 631.976 251.883C628.973 200.888 608.685 159.31 563.104 133.527C519.627 108.947 464.791 119.79 430.406 158.8C407.135 185.215 394.938 216.093 393.978 251.332C393.835 256.224 395.204 262.603 387.481 262.685C379.186 262.787 381.924 255.898 381.331 251.332C381.188 250.069 381.617 248.683 381.76 247.337Z" fill="#4DAA71"/>
<path d="M394.264 477.118C400.638 529.58 437.189 563.393 469.143 600.039C491.167 625.292 511.128 651.706 518.156 685.458C519.791 693.264 520.424 701.253 519.586 709.447C517.318 698.359 515.827 687.027 512.619 676.205C502.547 642.371 479.685 616.589 456.864 590.969C436.535 568.142 415.246 545.967 402.783 517.575C397.328 505.143 394.325 491.65 390.218 478.647C391.567 478.117 392.915 477.607 394.264 477.118Z" fill="#4DAA71"/>
</g>
<path d="M285.034 835.442C284.489 833.548 283.724 831.876 282.738 830.423C281.753 828.945 280.547 827.7 279.12 826.689C277.72 825.651 276.112 824.86 274.297 824.316C272.507 823.771 270.523 823.499 268.345 823.499C264.273 823.499 260.694 824.51 257.608 826.533C254.547 828.556 252.161 831.5 250.45 835.364C248.738 839.202 247.882 843.896 247.882 849.446C247.882 854.996 248.725 859.717 250.411 863.607C252.096 867.497 254.482 870.467 257.569 872.515C260.655 874.538 264.299 875.55 268.5 875.55C272.313 875.55 275.567 874.876 278.265 873.527C280.988 872.152 283.063 870.22 284.489 867.73C285.941 865.241 286.668 862.297 286.668 858.9L290.091 859.405H269.551V846.723H302.89V856.76C302.89 863.762 301.411 869.779 298.455 874.811C295.498 879.816 291.427 883.68 286.24 886.404C281.053 889.101 275.114 890.449 268.422 890.449C260.953 890.449 254.392 888.803 248.738 885.509C243.084 882.189 238.675 877.482 235.511 871.387C232.373 865.267 230.804 858.005 230.804 849.602C230.804 843.144 231.738 837.387 233.605 832.329C235.498 827.246 238.143 822.941 241.541 819.414C244.938 815.887 248.893 813.203 253.406 811.361C257.919 809.52 262.807 808.599 268.072 808.599C272.585 808.599 276.786 809.26 280.677 810.583C284.567 811.88 288.016 813.721 291.025 816.107C294.059 818.493 296.536 821.333 298.455 824.627C300.374 827.895 301.606 831.5 302.151 835.442H285.034ZM315.231 889.36V829.606H331.298V840.032H331.921C333.01 836.323 334.838 833.522 337.406 831.629C339.973 829.71 342.93 828.75 346.275 828.75C347.105 828.75 348 828.802 348.96 828.906C349.919 829.01 350.762 829.152 351.488 829.334V844.039C350.71 843.806 349.634 843.598 348.259 843.417C346.885 843.235 345.627 843.144 344.486 843.144C342.048 843.144 339.87 843.676 337.95 844.739C336.057 845.777 334.553 847.229 333.438 849.096C332.348 850.964 331.804 853.116 331.804 855.554V889.36H315.231ZM384.507 890.527C378.36 890.527 373.069 889.282 368.634 886.793C364.226 884.277 360.828 880.724 358.442 876.133C356.056 871.517 354.863 866.058 354.863 859.756C354.863 853.609 356.056 848.215 358.442 843.572C360.828 838.93 364.187 835.312 368.518 832.718C372.875 830.125 377.984 828.828 383.845 828.828C387.787 828.828 391.457 829.464 394.855 830.734C398.278 831.979 401.26 833.86 403.802 836.375C406.37 838.891 408.367 842.055 409.793 845.867C411.219 849.654 411.933 854.089 411.933 859.172V863.724H361.476V853.453H396.333C396.333 851.067 395.814 848.954 394.777 847.112C393.739 845.271 392.3 843.832 390.459 842.794C388.643 841.731 386.53 841.199 384.118 841.199C381.602 841.199 379.372 841.783 377.426 842.95C375.507 844.091 374.003 845.634 372.914 847.579C371.824 849.498 371.267 851.638 371.241 853.998V863.762C371.241 866.719 371.786 869.274 372.875 871.426C373.99 873.579 375.559 875.239 377.582 876.406C379.605 877.573 382.004 878.156 384.779 878.156C386.62 878.156 388.306 877.897 389.836 877.378C391.366 876.86 392.676 876.081 393.765 875.044C394.855 874.007 395.685 872.736 396.255 871.232L411.583 872.243C410.805 875.926 409.21 879.142 406.798 881.891C404.412 884.614 401.325 886.741 397.539 888.271C393.778 889.775 389.434 890.527 384.507 890.527ZM449.979 890.527C443.833 890.527 438.542 889.282 434.107 886.793C429.698 884.277 426.301 880.724 423.915 876.133C421.529 871.517 420.336 866.058 420.336 859.756C420.336 853.609 421.529 848.215 423.915 843.572C426.301 838.93 429.659 835.312 433.99 832.718C438.347 830.125 443.456 828.828 449.318 828.828C453.26 828.828 456.93 829.464 460.327 830.734C463.75 831.979 466.733 833.86 469.275 836.375C471.842 838.891 473.839 842.055 475.266 845.867C476.692 849.654 477.405 854.089 477.405 859.172V863.724H426.949V853.453H461.805C461.805 851.067 461.287 848.954 460.249 847.112C459.212 845.271 457.772 843.832 455.931 842.794C454.116 841.731 452.002 841.199 449.59 841.199C447.074 841.199 444.844 841.783 442.899 842.95C440.98 844.091 439.475 845.634 438.386 847.579C437.297 849.498 436.739 851.638 436.713 853.998V863.762C436.713 866.719 437.258 869.274 438.347 871.426C439.462 873.579 441.032 875.239 443.054 876.406C445.077 877.573 447.476 878.156 450.251 878.156C452.093 878.156 453.779 877.897 455.309 877.378C456.839 876.86 458.149 876.081 459.238 875.044C460.327 874.007 461.157 872.736 461.728 871.232L477.055 872.243C476.277 875.926 474.682 879.142 472.27 881.891C469.884 884.614 466.798 886.741 463.011 888.271C459.251 889.775 454.907 890.527 449.979 890.527ZM504.792 854.815V889.36H488.22V829.606H504.014V840.149H504.714C506.037 836.674 508.255 833.924 511.367 831.902C514.479 829.853 518.252 828.828 522.687 828.828C526.837 828.828 530.455 829.736 533.541 831.551C536.627 833.367 539.026 835.96 540.738 839.332C542.45 842.677 543.306 846.671 543.306 851.314V889.36H526.733V854.27C526.759 850.613 525.825 847.761 523.932 845.712C522.039 843.637 519.433 842.6 516.113 842.6C513.882 842.6 511.911 843.079 510.2 844.039C508.514 844.999 507.191 846.399 506.232 848.24C505.298 850.056 504.818 852.247 504.792 854.815ZM582.033 809.688H602.806L624.747 863.218H625.681L647.622 809.688H668.396V889.36H652.057V837.503H651.395L630.777 888.971H619.651L599.033 837.309H598.372V889.36H582.033V809.688ZM699.002 890.488C695.19 890.488 691.792 889.827 688.81 888.504C685.827 887.156 683.467 885.172 681.729 882.552C680.018 879.907 679.162 876.613 679.162 872.671C679.162 869.351 679.771 866.563 680.99 864.307C682.209 862.051 683.869 860.235 685.97 858.861C688.07 857.486 690.456 856.449 693.128 855.749C695.825 855.048 698.652 854.556 701.608 854.27C705.084 853.907 707.885 853.57 710.011 853.259C712.138 852.922 713.681 852.429 714.641 851.781C715.6 851.132 716.08 850.173 716.08 848.902V848.668C716.08 846.205 715.302 844.298 713.746 842.95C712.216 841.601 710.037 840.927 707.21 840.927C704.228 840.927 701.855 841.588 700.091 842.911C698.328 844.208 697.161 845.841 696.59 847.813L681.263 846.568C682.041 842.937 683.571 839.799 685.853 837.153C688.135 834.482 691.079 832.433 694.684 831.007C698.315 829.554 702.516 828.828 707.288 828.828C710.608 828.828 713.785 829.217 716.819 829.995C719.879 830.773 722.59 831.979 724.95 833.613C727.336 835.247 729.216 837.348 730.591 839.915C731.965 842.457 732.652 845.504 732.652 849.057V889.36H716.936V881.074H716.469C715.509 882.941 714.226 884.588 712.618 886.015C711.01 887.415 709.078 888.517 706.821 889.321C704.565 890.099 701.959 890.488 699.002 890.488ZM703.748 879.051C706.186 879.051 708.338 878.571 710.206 877.612C712.073 876.626 713.538 875.303 714.602 873.644C715.665 871.984 716.197 870.104 716.197 868.003V861.662C715.678 861.999 714.965 862.31 714.057 862.595C713.175 862.855 712.177 863.101 711.062 863.335C709.946 863.542 708.831 863.737 707.716 863.918C706.601 864.074 705.589 864.216 704.682 864.346C702.737 864.631 701.038 865.085 699.585 865.708C698.133 866.33 697.005 867.173 696.201 868.236C695.397 869.274 694.995 870.57 694.995 872.126C694.995 874.383 695.812 876.107 697.446 877.3C699.106 878.467 701.206 879.051 703.748 879.051ZM762.082 809.688V889.36H745.51V809.688H762.082ZM791.93 809.688V889.36H775.357V809.688H791.93Z" fill="#4DAA71"/>
<defs>
<clipPath id="clip0_68_133">
<rect width="574.903" height="614.4" fill="white" transform="translate(225.28 107.52)"/>
</clipPath>
</defs>
</svg>
