<svg width="32" height="32" viewBox="0 0 32 32" fill="none" xmlns="http://www.w3.org/2000/svg">
<path d="M26.667 14.6667C27.0003 14.6667 27.3337 14.8 27.6003 15.0667C28.1337 15.6 28.1337 16.4 27.6003 16.9334L16.9337 27.6C16.4003 28.1334 15.6003 28.1334 15.067 27.6C14.5337 27.0667 14.5337 26.2667 15.067 25.7334L25.7337 15.0667C26.0003 14.8 26.3337 14.6667 26.667 14.6667Z" fill="#333333"/>
<path d="M5.33333 14.6667C5.66667 14.6667 6 14.8 6.26667 15.0667L16.9333 25.7334C17.4667 26.2667 17.4667 27.0667 16.9333 27.6C16.4 28.1334 15.6 28.1334 15.0667 27.6L4.4 16.9334C3.86667 16.4 3.86667 15.6 4.4 15.0667C4.66667 14.8 5 14.6667 5.33333 14.6667Z" fill="#333333"/>
<path d="M16.0003 4C16.7337 4 17.3337 4.6 17.3337 5.33333V26.6667C17.3337 27.4 16.7337 27.9333 16.0003 27.9333C15.267 27.9333 14.667 27.4 14.667 26.6667V5.33333C14.667 4.6 15.267 4 16.0003 4Z" fill="#333333"/>
</svg>
