<svg width="1080" height="1080" viewBox="0 0 1080 1080" fill="none" xmlns="http://www.w3.org/2000/svg">
<rect width="1080" height="1080" fill="white"/>
<path fill-rule="evenodd" clip-rule="evenodd" d="M761.832 248.115C761.832 234.129 754.779 221.808 742.353 214.814L566.376 114.245C553.95 107.252 539.846 107.252 527.42 114.245L458.574 153.54C523.726 190.838 588.876 227.802 654.028 265.099C666.454 272.092 673.507 284.081 673.507 298.4V499.206C673.507 510.195 680.896 517.189 691.307 511.195L742.353 482.222C754.779 475.229 761.832 463.241 761.832 448.921V248.115Z" fill="url(#paint0_linear_3310_40977)"/>
<path fill-rule="evenodd" clip-rule="evenodd" d="M400.465 200.816C388.039 193.823 373.935 193.823 361.845 200.816L185.866 301.385C173.44 308.379 166.389 320.367 166.389 334.687V413.277L361.845 301.719C374.271 294.725 388.375 294.725 400.465 301.719L576.442 401.955C586.181 407.616 595.921 404.619 595.921 392.631V334.354C595.921 320.367 588.868 308.046 576.442 301.053L400.465 200.816Z" fill="url(#paint1_linear_3310_40977)"/>
<path fill-rule="evenodd" clip-rule="evenodd" d="M178.479 486.873C166.053 493.866 159 505.854 159 520.174V720.98C159 734.967 166.053 746.955 178.479 754.281L247.325 793.577V570.792C247.325 556.805 254.378 544.484 266.804 537.491L442.781 436.921C452.52 431.26 454.534 421.603 444.459 415.608L393.414 386.637C380.988 379.643 366.882 379.643 354.792 386.637L178.479 486.873Z" fill="url(#paint2_linear_3310_40977)"/>
<path fill-rule="evenodd" clip-rule="evenodd" d="M318.185 819.884C318.185 833.871 325.238 846.192 337.664 853.185L513.641 953.755C526.067 960.748 540.173 960.748 552.599 953.755L621.445 914.46L425.989 802.901C413.563 795.908 406.51 783.919 406.51 769.6V568.794C406.51 557.805 399.122 550.811 388.712 556.806L337.664 585.777C325.238 592.771 318.185 604.759 318.185 619.078V819.884Z" fill="url(#paint3_linear_3310_40977)"/>
<path fill-rule="evenodd" clip-rule="evenodd" d="M679.538 866.825C691.964 873.818 706.069 873.818 718.159 866.825L894.136 766.588C906.562 759.595 913.615 747.607 913.615 733.287V654.696C848.463 691.661 783.311 728.958 718.495 766.256C706.069 773.249 691.964 773.249 679.874 766.256L503.897 666.019C494.157 660.358 484.418 663.355 484.418 675.343V733.62C484.418 747.607 491.471 759.928 503.897 766.921L679.538 866.825Z" fill="url(#paint4_linear_3310_40977)"/>
<path fill-rule="evenodd" clip-rule="evenodd" d="M901.521 581.103C913.947 574.11 921 562.122 921 547.802V346.997C921 333.01 913.947 321.022 901.521 313.695L832.676 274.4V497.185C832.676 511.171 825.624 523.493 813.199 530.486L637.219 631.055C627.48 636.716 625.466 646.374 635.541 652.368L686.588 681.34C699.014 688.333 713.118 688.333 725.208 681.34L901.521 581.103Z" fill="url(#paint5_linear_3310_40977)"/>
<defs>
<linearGradient id="paint0_linear_3310_40977" x1="176.779" y1="960.943" x2="773.923" y2="960.943" gradientUnits="userSpaceOnUse">
<stop stop-color="#113B8D"/>
<stop offset="1" stop-color="#57B268"/>
</linearGradient>
<linearGradient id="paint1_linear_3310_40977" x1="176.779" y1="960.943" x2="773.923" y2="960.943" gradientUnits="userSpaceOnUse">
<stop stop-color="#113B8D"/>
<stop offset="1" stop-color="#57B268"/>
</linearGradient>
<linearGradient id="paint2_linear_3310_40977" x1="176.779" y1="960.943" x2="773.923" y2="960.943" gradientUnits="userSpaceOnUse">
<stop stop-color="#113B8D"/>
<stop offset="1" stop-color="#57B268"/>
</linearGradient>
<linearGradient id="paint3_linear_3310_40977" x1="176.779" y1="960.943" x2="773.923" y2="960.943" gradientUnits="userSpaceOnUse">
<stop stop-color="#113B8D"/>
<stop offset="1" stop-color="#57B268"/>
</linearGradient>
<linearGradient id="paint4_linear_3310_40977" x1="176.779" y1="960.943" x2="773.923" y2="960.943" gradientUnits="userSpaceOnUse">
<stop stop-color="#113B8D"/>
<stop offset="1" stop-color="#57B268"/>
</linearGradient>
<linearGradient id="paint5_linear_3310_40977" x1="176.779" y1="960.943" x2="773.923" y2="960.943" gradientUnits="userSpaceOnUse">
<stop stop-color="#113B8D"/>
<stop offset="1" stop-color="#57B268"/>
</linearGradient>
</defs>
</svg>
