<svg width="155" height="36" viewBox="0 0 155 36" fill="none" xmlns="http://www.w3.org/2000/svg">
<g clip-path="url(#clip0_170_1112)">
<path fill-rule="evenodd" clip-rule="evenodd" d="M-0.210938 0H36.0004V36H-0.210938V0Z" fill="#ED0701"/>
<path fill-rule="evenodd" clip-rule="evenodd" d="M-0.28125 8.82426C-0.28125 8.82426 2.30851 6.8387 5.48943 5.1376C7.25942 4.19102 9.0921 3.37887 11.0042 2.81254C12.0045 2.55042 13.2145 2.18451 15.1719 1.91518C20.0409 1.24527 27.5514 1.43793 32.3926 9.06068C32.696 9.55403 33.885 11.6878 34.0749 15.2209C34.3928 21.1381 32.2087 30.1151 16.8052 36.1407H-0.246093L-0.28125 8.82426ZM13.852 5.20317C13.852 5.20317 6.87118 5.72868 3.02353 12.6563C2.22335 14.0086 -2.77587 23.4792 5.23844 31.7813C5.78148 32.2639 7.43373 33.5623 9.67765 34.0653C11.8046 34.5419 14.4775 34.2997 16.7349 33.3282C18.216 32.629 24.4667 29.879 26.0516 22.7461C26.4869 20.8401 27.9753 15.266 23.6257 9.3516C22.6573 8.23012 20.2037 4.89783 13.852 5.20317Z" fill="white"/>
<mask id="path-4-outside-1_170_1112" maskUnits="userSpaceOnUse" x="0.467773" y="28.4146" width="35" height="8" fill="black">
<rect fill="white" x="0.467773" y="28.4146" width="35" height="8"/>
<path fill-rule="evenodd" clip-rule="evenodd" d="M1.74988 33.4394C1.93792 33.826 2.18325 34.1085 2.48586 34.2871C2.78847 34.4657 3.17066 34.555 3.63244 34.555C4.08674 34.555 4.46614 34.4516 4.77062 34.2447C5.07511 34.0379 5.30786 33.7485 5.46888 33.3767C5.62993 33.0049 5.71046 32.5285 5.71048 31.9475C5.71048 31.1473 5.52614 30.525 5.15746 30.0807C4.78878 29.6364 4.26364 29.4143 3.58206 29.4146C2.91728 29.4146 2.39869 29.6406 2.02628 30.0927C1.65387 30.5448 1.4677 31.1766 1.46777 31.9882C1.46777 32.5692 1.56181 33.0529 1.74988 33.4394ZM2.96488 30.9065C3.1194 30.6872 3.32423 30.5776 3.57935 30.5776C3.70355 30.5741 3.82663 30.6019 3.93724 30.6585C4.04784 30.7151 4.1424 30.7986 4.21219 30.9014C4.36763 31.1173 4.44536 31.4592 4.44538 31.9271C4.44538 32.4832 4.37091 32.8687 4.22196 33.0834C4.07301 33.2981 3.86259 33.4055 3.59071 33.4055C3.46681 33.4088 3.34414 33.3802 3.23438 33.3227C3.12462 33.2651 3.03142 33.1804 2.96365 33.0766C2.81003 32.8574 2.73322 32.4968 2.73322 31.9949C2.73311 31.4886 2.81032 31.1258 2.96488 30.9065ZM7.32941 34.4702H8.33768L9.59839 30.8692H8.45135L7.85423 33.1512L7.27878 30.8692H6.09581L7.32941 34.4702ZM13.3327 32.8562C13.3327 32.3815 13.2684 31.9961 13.1399 31.7C13.0114 31.4038 12.8243 31.1778 12.5785 31.0218C12.3327 30.8658 11.9976 30.7878 11.573 30.7878C11.0497 30.7878 10.6395 30.9618 10.3425 31.31C10.0454 31.6581 9.89693 32.1136 9.89698 32.6765C9.89698 33.0721 9.971 33.4162 10.119 33.709C10.2671 34.0017 10.4537 34.2153 10.6791 34.3498C10.9043 34.4843 11.2134 34.5515 11.6064 34.5516C12.0588 34.5516 12.4061 34.4731 12.6482 34.316C12.8902 34.159 13.0969 33.8996 13.2682 33.5379L12.1484 33.4124C12.0967 33.4996 12.0295 33.5766 11.9501 33.6396C11.8567 33.7051 11.7457 33.7406 11.6316 33.7413C11.4547 33.7413 11.3114 33.6633 11.2015 33.5073C11.1233 33.3988 11.0739 33.2338 11.0535 33.0123H13.3327V32.8562ZM11.0563 32.351C11.0748 32.1362 11.1186 31.9746 11.1875 31.8661C11.2955 31.692 11.4398 31.605 11.6205 31.605C11.6926 31.6027 11.7643 31.6171 11.83 31.6471C11.8956 31.6771 11.9534 31.7219 11.9989 31.7779C12.0948 31.8932 12.154 32.0842 12.1763 32.351H11.0563ZM13.9805 34.4702H15.1229V33.2631C15.1229 32.6867 15.1815 32.2934 15.2987 32.0831C15.3807 31.9339 15.4962 31.8593 15.6451 31.8593C15.7232 31.8593 15.8294 31.8932 15.9634 31.961L16.3154 30.9777C16.1162 30.8511 15.9328 30.7879 15.7652 30.7879C15.6173 30.7834 15.4732 30.8349 15.3615 30.932C15.2526 31.0281 15.1469 31.2039 15.0445 31.4593V30.8692H13.9805V34.4702ZM16.8643 34.2702C17.0942 34.4579 17.4801 34.5516 18.022 34.5514C18.4056 34.5514 18.7086 34.4933 18.9312 34.377C19.1388 34.2751 19.3095 34.1111 19.4199 33.9079C19.5206 33.7216 19.5739 33.5133 19.5749 33.3015C19.5768 33.1033 19.5262 32.9082 19.4283 32.7358C19.3304 32.5641 19.1829 32.426 19.0051 32.3395C18.8207 32.2469 18.5396 32.1746 18.1616 32.1227C17.912 32.0866 17.75 32.046 17.6756 32.0008C17.6404 31.981 17.6113 31.9519 17.5916 31.9167C17.5719 31.8814 17.5623 31.8414 17.5639 31.8011C17.5634 31.7632 17.5709 31.7256 17.5861 31.6909C17.6012 31.6561 17.6236 31.625 17.6518 31.5997C17.7104 31.5443 17.8039 31.5167 17.9325 31.5167C18.0499 31.5136 18.1646 31.552 18.2565 31.6252C18.3216 31.6794 18.3682 31.7642 18.3961 31.8795L19.4743 31.7506C19.3998 31.5156 19.3062 31.3291 19.1935 31.1911C19.0821 31.0542 18.9366 30.949 18.7717 30.886C18.6031 30.8204 18.342 30.7875 17.9882 30.7875C17.653 30.7875 17.3858 30.8299 17.1866 30.9146C16.9952 30.993 16.8319 31.1271 16.7177 31.2995C16.6084 31.4787 16.5495 31.6841 16.5473 31.894C16.5451 32.1038 16.5996 32.3104 16.7051 32.4919C16.7958 32.648 16.931 32.7736 17.0933 32.8526C17.247 32.9238 17.5212 33.0011 17.916 33.0847C18.1804 33.1411 18.3433 33.1885 18.4047 33.2268C18.4448 33.2501 18.478 33.2838 18.5006 33.3243C18.5232 33.3648 18.5345 33.4107 18.5332 33.4571C18.534 33.4987 18.5257 33.54 18.5088 33.578C18.4919 33.616 18.4668 33.6499 18.4354 33.6771C18.3516 33.7562 18.2334 33.7957 18.0807 33.7957C17.941 33.7957 17.8293 33.7606 17.7455 33.6905C17.6617 33.6205 17.5966 33.504 17.55 33.3413L16.4214 33.4701C16.4867 33.816 16.6343 34.0827 16.8643 34.2702ZM20.4631 30.208V30.8692H20.0441V31.8796H20.4631V33.1462C20.4631 33.5481 20.4952 33.8387 20.5594 34.0181C20.6237 34.1975 20.7228 34.3313 20.8569 34.4194C20.991 34.5074 21.1996 34.5515 21.4827 34.5515C21.7489 34.5484 22.0137 34.5107 22.2702 34.4396L22.1864 33.4868C22.0356 33.5454 21.9183 33.5747 21.8345 33.5747C21.7941 33.5777 21.7537 33.5683 21.7187 33.5477C21.6838 33.5272 21.656 33.4964 21.639 33.4596C21.6148 33.4101 21.6027 33.3085 21.6027 33.1551V31.8796H22.2285V30.8692H21.6027V29.4995L20.4631 30.208ZM23.2868 34.1108C23.581 34.4047 23.9664 34.5516 24.4431 34.5516C24.9775 34.5516 25.396 34.3747 25.6986 34.021C26.0012 33.6672 26.1525 33.2134 26.1525 32.6595C26.1525 32.1668 26.0305 31.7519 25.7866 31.415C25.4831 30.9968 25.0343 30.7877 24.4403 30.7877C23.9208 30.7877 23.5084 30.9657 23.203 31.3218C22.8976 31.6778 22.7449 32.1305 22.7449 32.6798C22.7449 33.2698 22.9256 33.7467 23.2868 34.1107V34.1108ZM24.0465 31.9695C24.1545 31.8147 24.2914 31.7373 24.4571 31.7373C24.6135 31.7373 24.7448 31.8135 24.8508 31.9661C24.9569 32.1187 25.01 32.351 25.0101 32.663C25.0101 32.9975 24.9575 33.2405 24.8523 33.392C24.747 33.5434 24.6125 33.6191 24.4486 33.6191C24.2866 33.6191 24.1521 33.5423 24.045 33.3886C23.938 33.2349 23.8844 32.9975 23.8844 32.6765C23.8845 32.3601 23.9385 32.1244 24.0465 31.9695ZM28.7989 33.4869C28.6963 33.58 28.5617 33.6298 28.4232 33.6259C28.2444 33.6259 28.0973 33.5492 27.9819 33.3958C27.8664 33.2424 27.8087 33.0178 27.8087 32.7222C27.8087 32.3905 27.8669 32.1428 27.9833 31.9793C28.0997 31.8157 28.2519 31.7339 28.4399 31.7338C28.5889 31.7338 28.7076 31.7728 28.7961 31.8508C28.8845 31.9288 28.9454 32.0447 28.9789 32.1984L30.0486 32.0255C29.9462 31.6208 29.7679 31.3134 29.5138 31.1032C29.2596 30.8929 28.8905 30.7878 28.4063 30.7878C28.0599 30.7878 27.776 30.8431 27.5544 30.9538C27.4003 31.0351 27.2621 31.1435 27.1466 31.274C27.0148 31.4166 26.9089 31.5811 26.8337 31.7601C26.7294 32.0062 26.6772 32.3145 26.6773 32.685C26.6773 33.0396 26.7201 33.3242 26.8057 33.5387C26.8871 33.7465 27.0075 33.9368 27.1605 34.0994C27.3093 34.2574 27.495 34.3761 27.7009 34.4449C27.9104 34.516 28.1725 34.5516 28.4872 34.5516C28.813 34.5516 29.0816 34.4962 29.293 34.3855C29.5029 34.276 29.6819 34.1157 29.8139 33.9192C29.9564 33.7035 30.0559 33.4623 30.1072 33.2089L29.0263 33.0597C28.9762 33.2518 28.9004 33.3942 28.7989 33.4869ZM30.7442 34.4702H31.9061V33.5344L32.3343 33.0267L32.9351 34.4702H34.216L33.0904 32.1306L34.1545 30.8692H32.7553L31.9061 32.0652V29.4995H30.7442V34.4702Z"/>
</mask>
<path fill-rule="evenodd" clip-rule="evenodd" d="M1.74988 33.4394C1.93792 33.826 2.18325 34.1085 2.48586 34.2871C2.78847 34.4657 3.17066 34.555 3.63244 34.555C4.08674 34.555 4.46614 34.4516 4.77062 34.2447C5.07511 34.0379 5.30786 33.7485 5.46888 33.3767C5.62993 33.0049 5.71046 32.5285 5.71048 31.9475C5.71048 31.1473 5.52614 30.525 5.15746 30.0807C4.78878 29.6364 4.26364 29.4143 3.58206 29.4146C2.91728 29.4146 2.39869 29.6406 2.02628 30.0927C1.65387 30.5448 1.4677 31.1766 1.46777 31.9882C1.46777 32.5692 1.56181 33.0529 1.74988 33.4394ZM2.96488 30.9065C3.1194 30.6872 3.32423 30.5776 3.57935 30.5776C3.70355 30.5741 3.82663 30.6019 3.93724 30.6585C4.04784 30.7151 4.1424 30.7986 4.21219 30.9014C4.36763 31.1173 4.44536 31.4592 4.44538 31.9271C4.44538 32.4832 4.37091 32.8687 4.22196 33.0834C4.07301 33.2981 3.86259 33.4055 3.59071 33.4055C3.46681 33.4088 3.34414 33.3802 3.23438 33.3227C3.12462 33.2651 3.03142 33.1804 2.96365 33.0766C2.81003 32.8574 2.73322 32.4968 2.73322 31.9949C2.73311 31.4886 2.81032 31.1258 2.96488 30.9065ZM7.32941 34.4702H8.33768L9.59839 30.8692H8.45135L7.85423 33.1512L7.27878 30.8692H6.09581L7.32941 34.4702ZM13.3327 32.8562C13.3327 32.3815 13.2684 31.9961 13.1399 31.7C13.0114 31.4038 12.8243 31.1778 12.5785 31.0218C12.3327 30.8658 11.9976 30.7878 11.573 30.7878C11.0497 30.7878 10.6395 30.9618 10.3425 31.31C10.0454 31.6581 9.89693 32.1136 9.89698 32.6765C9.89698 33.0721 9.971 33.4162 10.119 33.709C10.2671 34.0017 10.4537 34.2153 10.6791 34.3498C10.9043 34.4843 11.2134 34.5515 11.6064 34.5516C12.0588 34.5516 12.4061 34.4731 12.6482 34.316C12.8902 34.159 13.0969 33.8996 13.2682 33.5379L12.1484 33.4124C12.0967 33.4996 12.0295 33.5766 11.9501 33.6396C11.8567 33.7051 11.7457 33.7406 11.6316 33.7413C11.4547 33.7413 11.3114 33.6633 11.2015 33.5073C11.1233 33.3988 11.0739 33.2338 11.0535 33.0123H13.3327V32.8562ZM11.0563 32.351C11.0748 32.1362 11.1186 31.9746 11.1875 31.8661C11.2955 31.692 11.4398 31.605 11.6205 31.605C11.6926 31.6027 11.7643 31.6171 11.83 31.6471C11.8956 31.6771 11.9534 31.7219 11.9989 31.7779C12.0948 31.8932 12.154 32.0842 12.1763 32.351H11.0563ZM13.9805 34.4702H15.1229V33.2631C15.1229 32.6867 15.1815 32.2934 15.2987 32.0831C15.3807 31.9339 15.4962 31.8593 15.6451 31.8593C15.7232 31.8593 15.8294 31.8932 15.9634 31.961L16.3154 30.9777C16.1162 30.8511 15.9328 30.7879 15.7652 30.7879C15.6173 30.7834 15.4732 30.8349 15.3615 30.932C15.2526 31.0281 15.1469 31.2039 15.0445 31.4593V30.8692H13.9805V34.4702ZM16.8643 34.2702C17.0942 34.4579 17.4801 34.5516 18.022 34.5514C18.4056 34.5514 18.7086 34.4933 18.9312 34.377C19.1388 34.2751 19.3095 34.1111 19.4199 33.9079C19.5206 33.7216 19.5739 33.5133 19.5749 33.3015C19.5768 33.1033 19.5262 32.9082 19.4283 32.7358C19.3304 32.5641 19.1829 32.426 19.0051 32.3395C18.8207 32.2469 18.5396 32.1746 18.1616 32.1227C17.912 32.0866 17.75 32.046 17.6756 32.0008C17.6404 31.981 17.6113 31.9519 17.5916 31.9167C17.5719 31.8814 17.5623 31.8414 17.5639 31.8011C17.5634 31.7632 17.5709 31.7256 17.5861 31.6909C17.6012 31.6561 17.6236 31.625 17.6518 31.5997C17.7104 31.5443 17.8039 31.5167 17.9325 31.5167C18.0499 31.5136 18.1646 31.552 18.2565 31.6252C18.3216 31.6794 18.3682 31.7642 18.3961 31.8795L19.4743 31.7506C19.3998 31.5156 19.3062 31.3291 19.1935 31.1911C19.0821 31.0542 18.9366 30.949 18.7717 30.886C18.6031 30.8204 18.342 30.7875 17.9882 30.7875C17.653 30.7875 17.3858 30.8299 17.1866 30.9146C16.9952 30.993 16.8319 31.1271 16.7177 31.2995C16.6084 31.4787 16.5495 31.6841 16.5473 31.894C16.5451 32.1038 16.5996 32.3104 16.7051 32.4919C16.7958 32.648 16.931 32.7736 17.0933 32.8526C17.247 32.9238 17.5212 33.0011 17.916 33.0847C18.1804 33.1411 18.3433 33.1885 18.4047 33.2268C18.4448 33.2501 18.478 33.2838 18.5006 33.3243C18.5232 33.3648 18.5345 33.4107 18.5332 33.4571C18.534 33.4987 18.5257 33.54 18.5088 33.578C18.4919 33.616 18.4668 33.6499 18.4354 33.6771C18.3516 33.7562 18.2334 33.7957 18.0807 33.7957C17.941 33.7957 17.8293 33.7606 17.7455 33.6905C17.6617 33.6205 17.5966 33.504 17.55 33.3413L16.4214 33.4701C16.4867 33.816 16.6343 34.0827 16.8643 34.2702ZM20.4631 30.208V30.8692H20.0441V31.8796H20.4631V33.1462C20.4631 33.5481 20.4952 33.8387 20.5594 34.0181C20.6237 34.1975 20.7228 34.3313 20.8569 34.4194C20.991 34.5074 21.1996 34.5515 21.4827 34.5515C21.7489 34.5484 22.0137 34.5107 22.2702 34.4396L22.1864 33.4868C22.0356 33.5454 21.9183 33.5747 21.8345 33.5747C21.7941 33.5777 21.7537 33.5683 21.7187 33.5477C21.6838 33.5272 21.656 33.4964 21.639 33.4596C21.6148 33.4101 21.6027 33.3085 21.6027 33.1551V31.8796H22.2285V30.8692H21.6027V29.4995L20.4631 30.208ZM23.2868 34.1108C23.581 34.4047 23.9664 34.5516 24.4431 34.5516C24.9775 34.5516 25.396 34.3747 25.6986 34.021C26.0012 33.6672 26.1525 33.2134 26.1525 32.6595C26.1525 32.1668 26.0305 31.7519 25.7866 31.415C25.4831 30.9968 25.0343 30.7877 24.4403 30.7877C23.9208 30.7877 23.5084 30.9657 23.203 31.3218C22.8976 31.6778 22.7449 32.1305 22.7449 32.6798C22.7449 33.2698 22.9256 33.7467 23.2868 34.1107V34.1108ZM24.0465 31.9695C24.1545 31.8147 24.2914 31.7373 24.4571 31.7373C24.6135 31.7373 24.7448 31.8135 24.8508 31.9661C24.9569 32.1187 25.01 32.351 25.0101 32.663C25.0101 32.9975 24.9575 33.2405 24.8523 33.392C24.747 33.5434 24.6125 33.6191 24.4486 33.6191C24.2866 33.6191 24.1521 33.5423 24.045 33.3886C23.938 33.2349 23.8844 32.9975 23.8844 32.6765C23.8845 32.3601 23.9385 32.1244 24.0465 31.9695ZM28.7989 33.4869C28.6963 33.58 28.5617 33.6298 28.4232 33.6259C28.2444 33.6259 28.0973 33.5492 27.9819 33.3958C27.8664 33.2424 27.8087 33.0178 27.8087 32.7222C27.8087 32.3905 27.8669 32.1428 27.9833 31.9793C28.0997 31.8157 28.2519 31.7339 28.4399 31.7338C28.5889 31.7338 28.7076 31.7728 28.7961 31.8508C28.8845 31.9288 28.9454 32.0447 28.9789 32.1984L30.0486 32.0255C29.9462 31.6208 29.7679 31.3134 29.5138 31.1032C29.2596 30.8929 28.8905 30.7878 28.4063 30.7878C28.0599 30.7878 27.776 30.8431 27.5544 30.9538C27.4003 31.0351 27.2621 31.1435 27.1466 31.274C27.0148 31.4166 26.9089 31.5811 26.8337 31.7601C26.7294 32.0062 26.6772 32.3145 26.6773 32.685C26.6773 33.0396 26.7201 33.3242 26.8057 33.5387C26.8871 33.7465 27.0075 33.9368 27.1605 34.0994C27.3093 34.2574 27.495 34.3761 27.7009 34.4449C27.9104 34.516 28.1725 34.5516 28.4872 34.5516C28.813 34.5516 29.0816 34.4962 29.293 34.3855C29.5029 34.276 29.6819 34.1157 29.8139 33.9192C29.9564 33.7035 30.0559 33.4623 30.1072 33.2089L29.0263 33.0597C28.9762 33.2518 28.9004 33.3942 28.7989 33.4869ZM30.7442 34.4702H31.9061V33.5344L32.3343 33.0267L32.9351 34.4702H34.216L33.0904 32.1306L34.1545 30.8692H32.7553L31.9061 32.0652V29.4995H30.7442V34.4702Z" fill="#355497"/>
<path fill-rule="evenodd" clip-rule="evenodd" d="M1.74988 33.4394C1.93792 33.826 2.18325 34.1085 2.48586 34.2871C2.78847 34.4657 3.17066 34.555 3.63244 34.555C4.08674 34.555 4.46614 34.4516 4.77062 34.2447C5.07511 34.0379 5.30786 33.7485 5.46888 33.3767C5.62993 33.0049 5.71046 32.5285 5.71048 31.9475C5.71048 31.1473 5.52614 30.525 5.15746 30.0807C4.78878 29.6364 4.26364 29.4143 3.58206 29.4146C2.91728 29.4146 2.39869 29.6406 2.02628 30.0927C1.65387 30.5448 1.4677 31.1766 1.46777 31.9882C1.46777 32.5692 1.56181 33.0529 1.74988 33.4394ZM2.96488 30.9065C3.1194 30.6872 3.32423 30.5776 3.57935 30.5776C3.70355 30.5741 3.82663 30.6019 3.93724 30.6585C4.04784 30.7151 4.1424 30.7986 4.21219 30.9014C4.36763 31.1173 4.44536 31.4592 4.44538 31.9271C4.44538 32.4832 4.37091 32.8687 4.22196 33.0834C4.07301 33.2981 3.86259 33.4055 3.59071 33.4055C3.46681 33.4088 3.34414 33.3802 3.23438 33.3227C3.12462 33.2651 3.03142 33.1804 2.96365 33.0766C2.81003 32.8574 2.73322 32.4968 2.73322 31.9949C2.73311 31.4886 2.81032 31.1258 2.96488 30.9065ZM7.32941 34.4702H8.33768L9.59839 30.8692H8.45135L7.85423 33.1512L7.27878 30.8692H6.09581L7.32941 34.4702ZM13.3327 32.8562C13.3327 32.3815 13.2684 31.9961 13.1399 31.7C13.0114 31.4038 12.8243 31.1778 12.5785 31.0218C12.3327 30.8658 11.9976 30.7878 11.573 30.7878C11.0497 30.7878 10.6395 30.9618 10.3425 31.31C10.0454 31.6581 9.89693 32.1136 9.89698 32.6765C9.89698 33.0721 9.971 33.4162 10.119 33.709C10.2671 34.0017 10.4537 34.2153 10.6791 34.3498C10.9043 34.4843 11.2134 34.5515 11.6064 34.5516C12.0588 34.5516 12.4061 34.4731 12.6482 34.316C12.8902 34.159 13.0969 33.8996 13.2682 33.5379L12.1484 33.4124C12.0967 33.4996 12.0295 33.5766 11.9501 33.6396C11.8567 33.7051 11.7457 33.7406 11.6316 33.7413C11.4547 33.7413 11.3114 33.6633 11.2015 33.5073C11.1233 33.3988 11.0739 33.2338 11.0535 33.0123H13.3327V32.8562ZM11.0563 32.351C11.0748 32.1362 11.1186 31.9746 11.1875 31.8661C11.2955 31.692 11.4398 31.605 11.6205 31.605C11.6926 31.6027 11.7643 31.6171 11.83 31.6471C11.8956 31.6771 11.9534 31.7219 11.9989 31.7779C12.0948 31.8932 12.154 32.0842 12.1763 32.351H11.0563ZM13.9805 34.4702H15.1229V33.2631C15.1229 32.6867 15.1815 32.2934 15.2987 32.0831C15.3807 31.9339 15.4962 31.8593 15.6451 31.8593C15.7232 31.8593 15.8294 31.8932 15.9634 31.961L16.3154 30.9777C16.1162 30.8511 15.9328 30.7879 15.7652 30.7879C15.6173 30.7834 15.4732 30.8349 15.3615 30.932C15.2526 31.0281 15.1469 31.2039 15.0445 31.4593V30.8692H13.9805V34.4702ZM16.8643 34.2702C17.0942 34.4579 17.4801 34.5516 18.022 34.5514C18.4056 34.5514 18.7086 34.4933 18.9312 34.377C19.1388 34.2751 19.3095 34.1111 19.4199 33.9079C19.5206 33.7216 19.5739 33.5133 19.5749 33.3015C19.5768 33.1033 19.5262 32.9082 19.4283 32.7358C19.3304 32.5641 19.1829 32.426 19.0051 32.3395C18.8207 32.2469 18.5396 32.1746 18.1616 32.1227C17.912 32.0866 17.75 32.046 17.6756 32.0008C17.6404 31.981 17.6113 31.9519 17.5916 31.9167C17.5719 31.8814 17.5623 31.8414 17.5639 31.8011C17.5634 31.7632 17.5709 31.7256 17.5861 31.6909C17.6012 31.6561 17.6236 31.625 17.6518 31.5997C17.7104 31.5443 17.8039 31.5167 17.9325 31.5167C18.0499 31.5136 18.1646 31.552 18.2565 31.6252C18.3216 31.6794 18.3682 31.7642 18.3961 31.8795L19.4743 31.7506C19.3998 31.5156 19.3062 31.3291 19.1935 31.1911C19.0821 31.0542 18.9366 30.949 18.7717 30.886C18.6031 30.8204 18.342 30.7875 17.9882 30.7875C17.653 30.7875 17.3858 30.8299 17.1866 30.9146C16.9952 30.993 16.8319 31.1271 16.7177 31.2995C16.6084 31.4787 16.5495 31.6841 16.5473 31.894C16.5451 32.1038 16.5996 32.3104 16.7051 32.4919C16.7958 32.648 16.931 32.7736 17.0933 32.8526C17.247 32.9238 17.5212 33.0011 17.916 33.0847C18.1804 33.1411 18.3433 33.1885 18.4047 33.2268C18.4448 33.2501 18.478 33.2838 18.5006 33.3243C18.5232 33.3648 18.5345 33.4107 18.5332 33.4571C18.534 33.4987 18.5257 33.54 18.5088 33.578C18.4919 33.616 18.4668 33.6499 18.4354 33.6771C18.3516 33.7562 18.2334 33.7957 18.0807 33.7957C17.941 33.7957 17.8293 33.7606 17.7455 33.6905C17.6617 33.6205 17.5966 33.504 17.55 33.3413L16.4214 33.4701C16.4867 33.816 16.6343 34.0827 16.8643 34.2702ZM20.4631 30.208V30.8692H20.0441V31.8796H20.4631V33.1462C20.4631 33.5481 20.4952 33.8387 20.5594 34.0181C20.6237 34.1975 20.7228 34.3313 20.8569 34.4194C20.991 34.5074 21.1996 34.5515 21.4827 34.5515C21.7489 34.5484 22.0137 34.5107 22.2702 34.4396L22.1864 33.4868C22.0356 33.5454 21.9183 33.5747 21.8345 33.5747C21.7941 33.5777 21.7537 33.5683 21.7187 33.5477C21.6838 33.5272 21.656 33.4964 21.639 33.4596C21.6148 33.4101 21.6027 33.3085 21.6027 33.1551V31.8796H22.2285V30.8692H21.6027V29.4995L20.4631 30.208ZM23.2868 34.1108C23.581 34.4047 23.9664 34.5516 24.4431 34.5516C24.9775 34.5516 25.396 34.3747 25.6986 34.021C26.0012 33.6672 26.1525 33.2134 26.1525 32.6595C26.1525 32.1668 26.0305 31.7519 25.7866 31.415C25.4831 30.9968 25.0343 30.7877 24.4403 30.7877C23.9208 30.7877 23.5084 30.9657 23.203 31.3218C22.8976 31.6778 22.7449 32.1305 22.7449 32.6798C22.7449 33.2698 22.9256 33.7467 23.2868 34.1107V34.1108ZM24.0465 31.9695C24.1545 31.8147 24.2914 31.7373 24.4571 31.7373C24.6135 31.7373 24.7448 31.8135 24.8508 31.9661C24.9569 32.1187 25.01 32.351 25.0101 32.663C25.0101 32.9975 24.9575 33.2405 24.8523 33.392C24.747 33.5434 24.6125 33.6191 24.4486 33.6191C24.2866 33.6191 24.1521 33.5423 24.045 33.3886C23.938 33.2349 23.8844 32.9975 23.8844 32.6765C23.8845 32.3601 23.9385 32.1244 24.0465 31.9695ZM28.7989 33.4869C28.6963 33.58 28.5617 33.6298 28.4232 33.6259C28.2444 33.6259 28.0973 33.5492 27.9819 33.3958C27.8664 33.2424 27.8087 33.0178 27.8087 32.7222C27.8087 32.3905 27.8669 32.1428 27.9833 31.9793C28.0997 31.8157 28.2519 31.7339 28.4399 31.7338C28.5889 31.7338 28.7076 31.7728 28.7961 31.8508C28.8845 31.9288 28.9454 32.0447 28.9789 32.1984L30.0486 32.0255C29.9462 31.6208 29.7679 31.3134 29.5138 31.1032C29.2596 30.8929 28.8905 30.7878 28.4063 30.7878C28.0599 30.7878 27.776 30.8431 27.5544 30.9538C27.4003 31.0351 27.2621 31.1435 27.1466 31.274C27.0148 31.4166 26.9089 31.5811 26.8337 31.7601C26.7294 32.0062 26.6772 32.3145 26.6773 32.685C26.6773 33.0396 26.7201 33.3242 26.8057 33.5387C26.8871 33.7465 27.0075 33.9368 27.1605 34.0994C27.3093 34.2574 27.495 34.3761 27.7009 34.4449C27.9104 34.516 28.1725 34.5516 28.4872 34.5516C28.813 34.5516 29.0816 34.4962 29.293 34.3855C29.5029 34.276 29.6819 34.1157 29.8139 33.9192C29.9564 33.7035 30.0559 33.4623 30.1072 33.2089L29.0263 33.0597C28.9762 33.2518 28.9004 33.3942 28.7989 33.4869ZM30.7442 34.4702H31.9061V33.5344L32.3343 33.0267L32.9351 34.4702H34.216L33.0904 32.1306L34.1545 30.8692H32.7553L31.9061 32.0652V29.4995H30.7442V34.4702Z" stroke="white" stroke-width="2" stroke-linejoin="round" mask="url(#path-4-outside-1_170_1112)"/>
</g>
<path d="M46.4719 13.3637V25H44.0117V13.3637H46.4719Z" fill="white"/>
<path d="M58.229 13.3637V25H56.104L51.0415 17.6762H50.9563V25H48.4961V13.3637H50.6552L55.6779 20.6819H55.7802V13.3637H58.229Z" fill="white"/>
<path d="M59.8185 15.3921V13.3637H69.3754V15.3921H65.8129V25H63.381V15.3921H59.8185Z" fill="white"/>
<path d="M85.3455 19.1819C85.3455 20.4508 85.105 21.5303 84.6239 22.4205C84.1467 23.3107 83.4951 23.9906 82.6694 24.4603C81.8474 24.9262 80.9232 25.1591 79.8967 25.1591C78.8626 25.1591 77.9345 24.9243 77.1126 24.4546C76.2906 23.9849 75.641 23.305 75.1637 22.4148C74.6864 21.5247 74.4478 20.447 74.4478 19.1819C74.4478 17.9129 74.6864 16.8334 75.1637 15.9432C75.641 15.0531 76.2906 14.375 77.1126 13.9091C77.9345 13.4394 78.8626 13.2046 79.8967 13.2046C80.9232 13.2046 81.8474 13.4394 82.6694 13.9091C83.4951 14.375 84.1467 15.0531 84.6239 15.9432C85.105 16.8334 85.3455 17.9129 85.3455 19.1819ZM82.8512 19.1819C82.8512 18.3599 82.7281 17.6667 82.4819 17.1023C82.2395 16.5379 81.8967 16.1099 81.4535 15.8182C81.0103 15.5266 80.4914 15.3807 79.8967 15.3807C79.302 15.3807 78.783 15.5266 78.3398 15.8182C77.8967 16.1099 77.552 16.5379 77.3058 17.1023C77.0633 17.6667 76.9421 18.3599 76.9421 19.1819C76.9421 20.0038 77.0633 20.697 77.3058 21.2614C77.552 21.8258 77.8967 22.2538 78.3398 22.5455C78.783 22.8372 79.302 22.983 79.8967 22.983C80.4914 22.983 81.0103 22.8372 81.4535 22.5455C81.8967 22.2538 82.2395 21.8258 82.4819 21.2614C82.7281 20.697 82.8512 20.0038 82.8512 19.1819Z" fill="white"/>
<path d="M95.2589 16.2728L92.2077 25H89.4805L86.4293 16.2728H88.9861L90.7986 22.5171H90.8896L92.6964 16.2728H95.2589Z" fill="white"/>
<path d="M100.194 25.1705C99.2958 25.1705 98.5231 24.9887 97.8754 24.625C97.2314 24.2576 96.7352 23.7387 96.3867 23.0682C96.0382 22.394 95.864 21.5966 95.864 20.6762C95.864 19.7785 96.0382 18.9906 96.3867 18.3125C96.7352 17.6345 97.2257 17.1061 97.8583 16.7273C98.4947 16.3485 99.2409 16.1591 100.097 16.1591C100.673 16.1591 101.209 16.2519 101.705 16.4375C102.205 16.6194 102.641 16.894 103.012 17.2614C103.387 17.6288 103.678 18.091 103.887 18.6478C104.095 19.2008 104.199 19.8485 104.199 20.591V21.2557H96.8299V19.7557H101.921C101.921 19.4072 101.845 19.0985 101.694 18.8296C101.542 18.5607 101.332 18.3504 101.063 18.1989C100.798 18.0436 100.489 17.966 100.137 17.966C99.7693 17.966 99.4435 18.0512 99.1594 18.2216C98.8791 18.3883 98.6594 18.6137 98.5004 18.8978C98.3413 19.1781 98.2598 19.4906 98.256 19.8353V21.2614C98.256 21.6932 98.3356 22.0663 98.4947 22.3807C98.6576 22.6951 98.8867 22.9375 99.1822 23.108C99.4776 23.2785 99.828 23.3637 100.233 23.3637C100.502 23.3637 100.748 23.3258 100.972 23.25C101.195 23.1743 101.387 23.0607 101.546 22.9091C101.705 22.7576 101.826 22.572 101.909 22.3523L104.148 22.5C104.034 23.0379 103.801 23.5076 103.449 23.9091C103.101 24.3069 102.65 24.6175 102.097 24.841C101.548 25.0607 100.913 25.1705 100.194 25.1705Z" fill="white"/>
<path d="M105.779 25V16.2728H108.125V17.7955H108.216C108.375 17.2538 108.642 16.8447 109.017 16.5682C109.392 16.2879 109.824 16.1478 110.313 16.1478C110.434 16.1478 110.565 16.1553 110.705 16.1705C110.845 16.1857 110.968 16.2065 111.074 16.233V18.3807C110.961 18.3466 110.803 18.3163 110.603 18.2898C110.402 18.2633 110.218 18.25 110.051 18.25C109.695 18.25 109.377 18.3277 109.097 18.483C108.82 18.6345 108.601 18.8466 108.438 19.1194C108.279 19.3921 108.199 19.7065 108.199 20.0625V25H105.779Z" fill="white"/>
<path d="M119.587 18.7614L117.371 18.8978C117.333 18.7084 117.252 18.5379 117.127 18.3864C117.002 18.2311 116.837 18.108 116.632 18.0171C116.432 17.9224 116.191 17.875 115.911 17.875C115.536 17.875 115.22 17.9546 114.962 18.1137C114.704 18.269 114.576 18.4773 114.576 18.7387C114.576 18.947 114.659 19.1232 114.826 19.2671C114.992 19.411 115.278 19.5266 115.684 19.6137L117.263 19.9319C118.112 20.1061 118.744 20.3864 119.161 20.7728C119.578 21.1591 119.786 21.6667 119.786 22.2955C119.786 22.8675 119.617 23.3694 119.28 23.8012C118.947 24.233 118.489 24.5701 117.905 24.8125C117.326 25.0512 116.657 25.1705 115.9 25.1705C114.744 25.1705 113.824 24.93 113.138 24.4489C112.456 23.9641 112.057 23.305 111.939 22.4716L114.32 22.3466C114.392 22.6989 114.566 22.9678 114.843 23.1535C115.119 23.3353 115.473 23.4262 115.905 23.4262C116.329 23.4262 116.67 23.3447 116.928 23.1819C117.189 23.0152 117.322 22.8012 117.326 22.5398C117.322 22.3201 117.229 22.1402 117.047 22C116.865 21.8561 116.585 21.7463 116.206 21.6705L114.695 21.3694C113.843 21.1989 113.208 20.9035 112.792 20.483C112.379 20.0625 112.172 19.5266 112.172 18.875C112.172 18.3144 112.324 17.8315 112.627 17.4262C112.934 17.0209 113.364 16.7084 113.917 16.4887C114.473 16.269 115.125 16.1591 115.871 16.1591C116.973 16.1591 117.841 16.3921 118.473 16.858C119.11 17.3239 119.481 17.9584 119.587 18.7614Z" fill="white"/>
<path d="M125.952 16.2728V18.091H120.696V16.2728H125.952ZM121.89 14.1819H124.31V22.3182C124.31 22.5417 124.344 22.716 124.412 22.841C124.48 22.9622 124.575 23.0474 124.696 23.0966C124.821 23.1459 124.965 23.1705 125.128 23.1705C125.242 23.1705 125.355 23.161 125.469 23.1421C125.583 23.1194 125.67 23.1023 125.73 23.091L126.111 24.8921C125.99 24.93 125.819 24.9735 125.6 25.0228C125.38 25.0758 125.113 25.108 124.799 25.1194C124.215 25.1421 123.704 25.0644 123.265 24.8864C122.829 24.7084 122.49 24.4319 122.248 24.0569C122.005 23.6819 121.886 23.2084 121.89 22.6364V14.1819Z" fill="white"/>
<path d="M131.378 25.1705C130.496 25.1705 129.732 24.983 129.088 24.608C128.448 24.2292 127.954 23.7027 127.605 23.0285C127.257 22.3504 127.083 21.5644 127.083 20.6705C127.083 19.769 127.257 18.9811 127.605 18.3069C127.954 17.6288 128.448 17.1023 129.088 16.7273C129.732 16.3485 130.496 16.1591 131.378 16.1591C132.261 16.1591 133.022 16.3485 133.662 16.7273C134.306 17.1023 134.802 17.6288 135.151 18.3069C135.499 18.9811 135.674 19.769 135.674 20.6705C135.674 21.5644 135.499 22.3504 135.151 23.0285C134.802 23.7027 134.306 24.2292 133.662 24.608C133.022 24.983 132.261 25.1705 131.378 25.1705ZM131.39 23.2955C131.791 23.2955 132.126 23.1819 132.395 22.9546C132.664 22.7235 132.867 22.4091 133.003 22.0114C133.143 21.6137 133.213 21.161 133.213 20.6535C133.213 20.1459 133.143 19.6932 133.003 19.2955C132.867 18.8978 132.664 18.5834 132.395 18.3523C132.126 18.1213 131.791 18.0057 131.39 18.0057C130.984 18.0057 130.643 18.1213 130.367 18.3523C130.094 18.5834 129.888 18.8978 129.748 19.2955C129.611 19.6932 129.543 20.1459 129.543 20.6535C129.543 21.161 129.611 21.6137 129.748 22.0114C129.888 22.4091 130.094 22.7235 130.367 22.9546C130.643 23.1819 130.984 23.2955 131.39 23.2955Z" fill="white"/>
<path d="M141.191 25.1705C140.297 25.1705 139.528 24.9811 138.884 24.6023C138.244 24.2197 137.751 23.6894 137.407 23.0114C137.066 22.3334 136.895 21.5531 136.895 20.6705C136.895 19.7766 137.068 18.9925 137.412 18.3182C137.761 17.6402 138.255 17.1118 138.895 16.733C139.535 16.3504 140.297 16.1591 141.179 16.1591C141.941 16.1591 142.607 16.2974 143.179 16.5739C143.751 16.8504 144.204 17.2387 144.537 17.7387C144.871 18.2387 145.054 18.8258 145.088 19.5H142.804C142.74 19.0644 142.569 18.7141 142.293 18.4489C142.02 18.18 141.662 18.0455 141.219 18.0455C140.844 18.0455 140.516 18.1478 140.236 18.3523C139.96 18.5531 139.744 18.8466 139.588 19.233C139.433 19.6194 139.355 20.0872 139.355 20.6364C139.355 21.1932 139.431 21.6667 139.583 22.0569C139.738 22.447 139.956 22.7444 140.236 22.9489C140.516 23.1535 140.844 23.2557 141.219 23.2557C141.496 23.2557 141.744 23.1989 141.963 23.0853C142.187 22.9716 142.371 22.8069 142.515 22.591C142.662 22.3713 142.759 22.108 142.804 21.8012H145.088C145.051 22.4678 144.869 23.055 144.543 23.5625C144.221 24.0663 143.776 24.4603 143.208 24.7444C142.64 25.0285 141.967 25.1705 141.191 25.1705Z" fill="white"/>
<path d="M148.831 22.4887L148.837 19.5853H149.189L151.985 16.2728H154.763L151.007 20.6591H150.434L148.831 22.4887ZM146.638 25V13.3637H149.059V25H146.638ZM152.093 25L149.525 21.1989L151.138 19.4887L154.928 25H152.093Z" fill="white"/>
<defs>
<clipPath id="clip0_170_1112">
<rect width="36" height="36" rx="4" fill="white"/>
</clipPath>
</defs>
</svg>
