<svg width="1024" height="1024" viewBox="0 0 1024 1024" fill="none" xmlns="http://www.w3.org/2000/svg">
<rect width="1024" height="1024" fill="#FF7701"/>
<path fill-rule="evenodd" clip-rule="evenodd" d="M321.738 494.178C321.738 494.178 316.916 628.483 440.488 651.111C481.058 655.95 591.177 665.502 669.505 553.558C698.853 502.661 759.543 423.609 682.228 316.038C665.264 300.243 515.341 194.421 371.498 359.585L365.185 366.936H440.488C440.488 366.936 457.452 363.61 457.452 392.384V464.488C457.452 464.488 454.962 472.971 474.416 472.971H588.925L618.612 417.833C618.612 417.833 625.898 413.591 614.371 413.591H495.621C495.621 413.591 507.293 371.177 533.791 371.177H661.023C661.023 371.177 682.627 378.468 673.746 396.625C664.865 414.783 622.853 502.661 622.853 502.661L614.371 515.385H423.523C423.523 515.385 410.8 512.802 410.8 494.178V413.591H296.291C296.291 413.591 342.902 287.569 429.933 248.272C485.618 220.902 588.925 198.048 690.71 256.659C723.606 275.601 787.483 334.327 767.049 464.488C757.995 505.312 733.269 596.422 554.996 723.215C539.253 733.335 448.97 803.802 448.97 803.802L368.39 700.135C368.39 700.135 293.094 596.948 283.568 540.834C281.986 516.323 279.327 494.178 279.327 494.178H253.881L321.738 439.04L355.666 494.178H321.738Z" fill="white"/>
<path fill-rule="evenodd" clip-rule="evenodd" d="M576.409 534.955C589.514 541.092 592.237 560.242 582.491 577.725C572.745 595.208 550.683 603.751 537.59 597.609C524.498 591.467 521.767 572.322 531.509 554.839C541.251 537.355 563.308 528.813 576.409 534.955Z" fill="white"/>
<path d="M452.88 597.101C469.899 597.101 483.696 583.303 483.696 566.283C483.696 549.262 469.899 535.464 452.88 535.464C435.861 535.464 422.064 549.262 422.064 566.283C422.064 583.303 435.861 597.101 452.88 597.101Z" fill="white"/>
</svg>
