<svg width="225" height="57" viewBox="0 0 225 57" fill="none" xmlns="http://www.w3.org/2000/svg">
<path fill-rule="evenodd" clip-rule="evenodd" d="M6.30802 25.4877C6.30802 25.4877 5.85975 37.9727 17.347 40.0762C21.1185 40.5261 31.3552 41.4141 38.6366 31.0077C41.3648 26.2763 47.0066 18.9276 39.8194 8.92778C38.2424 7.45947 24.3054 -2.3778 10.9338 12.9759L10.3469 13.6592H17.347C17.347 13.6592 18.9241 13.3501 18.9241 16.0249V22.7277C18.9241 22.7277 18.6926 23.5163 20.5011 23.5163H31.1458L33.9056 18.3906C33.9056 18.3906 34.5829 17.9963 33.5113 17.9963H22.4723C22.4723 17.9963 23.5573 14.0535 26.0206 14.0535H37.8481C37.8481 14.0535 39.8564 14.7313 39.0309 16.4192C38.2053 18.1071 34.2998 26.2763 34.2998 26.2763L33.5113 27.4591H15.77C15.77 27.4591 14.5873 27.219 14.5873 25.4877V17.9963H3.94251C3.94251 17.9963 8.27545 6.28122 16.3659 2.62817C21.5424 0.0838571 31.1458 -2.04062 40.6079 3.4078C43.6658 5.16865 49.6039 10.6279 47.7044 22.7277C46.8627 26.5227 44.5642 34.9923 27.9918 46.7791C26.5284 47.7198 18.1355 54.2705 18.1355 54.2705L10.6448 44.6336C10.6448 44.6336 3.64525 35.0412 2.75976 29.8249C2.6127 27.5463 2.36551 25.4877 2.36551 25.4877H0L6.30802 20.362L9.46203 25.4877H6.30802Z" fill="#FF7701"/>
<path fill-rule="evenodd" clip-rule="evenodd" d="M29.9823 29.2781C31.2006 29.8486 31.4537 31.6288 30.5477 33.254C29.6417 34.8793 27.5908 35.6733 26.3738 35.1024C25.1567 34.5315 24.9028 32.7517 25.8084 31.1265C26.714 29.5012 28.7645 28.7071 29.9823 29.2781Z" fill="#FF7701"/>
<path d="M18.4984 35.0554C20.0805 35.0554 21.363 33.7728 21.363 32.1906C21.363 30.6083 20.0805 29.3257 18.4984 29.3257C16.9163 29.3257 15.6338 30.6083 15.6338 32.1906C15.6338 33.7728 16.9163 35.0554 18.4984 35.0554Z" fill="#FF7701"/>
<path d="M82.3906 10.875V45H75.9688V10.875H82.3906ZM92.9844 10.875V15.9609H65.4922V10.875H92.9844ZM92.0469 32.5781V32.0859C92.0469 30.2266 92.3125 28.5156 92.8438 26.9531C93.375 25.375 94.1484 24.0078 95.1641 22.8516C96.1797 21.6953 97.4219 20.7969 98.8906 20.1562C100.359 19.5 102.031 19.1719 103.906 19.1719C105.812 19.1719 107.5 19.5 108.969 20.1562C110.453 20.7969 111.703 21.6953 112.719 22.8516C113.734 24.0078 114.508 25.375 115.039 26.9531C115.57 28.5156 115.836 30.2266 115.836 32.0859V32.5781C115.836 34.4219 115.57 36.1328 115.039 37.7109C114.508 39.2734 113.734 40.6406 112.719 41.8125C111.703 42.9688 110.461 43.8672 108.992 44.5078C107.523 45.1484 105.844 45.4688 103.953 45.4688C102.078 45.4688 100.398 45.1484 98.9141 44.5078C97.4297 43.8672 96.1797 42.9688 95.1641 41.8125C94.1484 40.6406 93.375 39.2734 92.8438 37.7109C92.3125 36.1328 92.0469 34.4219 92.0469 32.5781ZM98.2344 32.0859V32.5781C98.2344 33.6875 98.3438 34.7266 98.5625 35.6953C98.7812 36.6641 99.1172 37.5156 99.5703 38.25C100.023 38.9844 100.609 39.5625 101.328 39.9844C102.062 40.3906 102.938 40.5938 103.953 40.5938C104.953 40.5938 105.812 40.3906 106.531 39.9844C107.25 39.5625 107.836 38.9844 108.289 38.25C108.758 37.5156 109.102 36.6641 109.32 35.6953C109.539 34.7266 109.648 33.6875 109.648 32.5781V32.0859C109.648 30.9922 109.539 29.9688 109.32 29.0156C109.102 28.0469 108.758 27.1953 108.289 26.4609C107.836 25.7109 107.242 25.125 106.508 24.7031C105.789 24.2656 104.922 24.0469 103.906 24.0469C102.906 24.0469 102.047 24.2656 101.328 24.7031C100.609 25.125 100.023 25.7109 99.5703 26.4609C99.1172 27.1953 98.7812 28.0469 98.5625 29.0156C98.3438 29.9688 98.2344 30.9922 98.2344 32.0859ZM126.406 25.0547V45H120.219V19.6406H126.031L126.406 25.0547ZM125.422 31.4062H123.594C123.609 29.5625 123.859 27.8906 124.344 26.3906C124.828 24.8906 125.508 23.6016 126.383 22.5234C127.273 21.4453 128.328 20.6172 129.547 20.0391C130.766 19.4609 132.125 19.1719 133.625 19.1719C134.844 19.1719 135.945 19.3438 136.93 19.6875C137.914 20.0312 138.758 20.5781 139.461 21.3281C140.18 22.0781 140.727 23.0625 141.102 24.2812C141.492 25.4844 141.688 26.9688 141.688 28.7344V45H135.453V28.6875C135.453 27.5312 135.281 26.6172 134.938 25.9453C134.609 25.2734 134.125 24.7969 133.484 24.5156C132.859 24.2344 132.086 24.0938 131.164 24.0938C130.211 24.0938 129.375 24.2891 128.656 24.6797C127.953 25.0547 127.359 25.5781 126.875 26.25C126.406 26.9219 126.047 27.6953 125.797 28.5703C125.547 29.4453 125.422 30.3906 125.422 31.4062ZM163.273 19.6406H168.898V44.2266C168.898 46.5234 168.398 48.4688 167.398 50.0625C166.414 51.6719 165.031 52.8906 163.25 53.7188C161.469 54.5625 159.398 54.9844 157.039 54.9844C156.023 54.9844 154.922 54.8438 153.734 54.5625C152.562 54.2812 151.43 53.8359 150.336 53.2266C149.258 52.6328 148.359 51.8594 147.641 50.9062L150.43 47.25C151.273 48.2344 152.227 48.9766 153.289 49.4766C154.352 49.9922 155.5 50.25 156.734 50.25C157.984 50.25 159.047 50.0156 159.922 49.5469C160.812 49.0938 161.492 48.4219 161.961 47.5312C162.445 46.6562 162.688 45.5781 162.688 44.2969V25.4297L163.273 19.6406ZM146.141 32.625V32.1328C146.141 30.1953 146.375 28.4375 146.844 26.8594C147.312 25.2656 147.984 23.8984 148.859 22.7578C149.75 21.6172 150.82 20.7344 152.07 20.1094C153.336 19.4844 154.758 19.1719 156.336 19.1719C158.008 19.1719 159.414 19.4766 160.555 20.0859C161.711 20.6953 162.664 21.5625 163.414 22.6875C164.18 23.8125 164.773 25.1484 165.195 26.6953C165.633 28.2266 165.969 29.9141 166.203 31.7578V33.0938C165.984 34.8906 165.633 36.5391 165.148 38.0391C164.68 39.5391 164.055 40.8516 163.273 41.9766C162.492 43.0859 161.523 43.9453 160.367 44.5547C159.211 45.1641 157.852 45.4688 156.289 45.4688C154.727 45.4688 153.32 45.1484 152.07 44.5078C150.82 43.8672 149.75 42.9688 148.859 41.8125C147.984 40.6562 147.312 39.2969 146.844 37.7344C146.375 36.1719 146.141 34.4688 146.141 32.625ZM152.328 32.1328V32.625C152.328 33.7188 152.438 34.7422 152.656 35.6953C152.875 36.6484 153.211 37.4922 153.664 38.2266C154.117 38.9453 154.688 39.5078 155.375 39.9141C156.062 40.3203 156.883 40.5234 157.836 40.5234C159.117 40.5234 160.164 40.2578 160.977 39.7266C161.805 39.1797 162.43 38.4375 162.852 37.5C163.289 36.5469 163.57 35.4766 163.695 34.2891V30.6094C163.617 29.6719 163.445 28.8047 163.18 28.0078C162.93 27.2109 162.578 26.5234 162.125 25.9453C161.672 25.3672 161.094 24.9141 160.391 24.5859C159.688 24.2578 158.852 24.0938 157.883 24.0938C156.945 24.0938 156.125 24.3047 155.422 24.7266C154.719 25.1328 154.141 25.7031 153.688 26.4375C153.234 27.1719 152.891 28.0234 152.656 28.9922C152.438 29.9609 152.328 31.0078 152.328 32.1328ZM189.688 39.6094V9H195.922V45H190.297L189.688 39.6094ZM173.398 32.625V32.1328C173.398 30.1953 173.617 28.4375 174.055 26.8594C174.508 25.2656 175.164 23.8984 176.023 22.7578C176.883 21.6172 177.922 20.7344 179.141 20.1094C180.375 19.4844 181.773 19.1719 183.336 19.1719C184.852 19.1719 186.172 19.4766 187.297 20.0859C188.438 20.6953 189.406 21.5625 190.203 22.6875C191.016 23.8125 191.664 25.1484 192.148 26.6953C192.633 28.2266 192.984 29.9141 193.203 31.7578V33.0938C192.984 34.8906 192.633 36.5391 192.148 38.0391C191.664 39.5391 191.016 40.8516 190.203 41.9766C189.406 43.0859 188.438 43.9453 187.297 44.5547C186.156 45.1641 184.82 45.4688 183.289 45.4688C181.742 45.4688 180.352 45.1484 179.117 44.5078C177.898 43.8672 176.859 42.9688 176 41.8125C175.156 40.6562 174.508 39.2969 174.055 37.7344C173.617 36.1719 173.398 34.4688 173.398 32.625ZM179.609 32.1328V32.625C179.609 33.7188 179.703 34.7422 179.891 35.6953C180.078 36.6484 180.383 37.4922 180.805 38.2266C181.227 38.9453 181.766 39.5078 182.422 39.9141C183.094 40.3203 183.906 40.5234 184.859 40.5234C186.078 40.5234 187.078 40.2578 187.859 39.7266C188.656 39.1797 189.273 38.4375 189.711 37.5C190.148 36.5469 190.43 35.4766 190.555 34.2891V30.6094C190.492 29.6719 190.328 28.8047 190.062 28.0078C189.812 27.2109 189.453 26.5234 188.984 25.9453C188.531 25.3672 187.969 24.9141 187.297 24.5859C186.625 24.2578 185.828 24.0938 184.906 24.0938C183.953 24.0938 183.141 24.3047 182.469 24.7266C181.797 25.1328 181.25 25.7031 180.828 26.4375C180.406 27.1719 180.094 28.0234 179.891 28.9922C179.703 29.9609 179.609 31.0078 179.609 32.1328ZM215.492 39.6094V27.9141C215.492 27.0547 215.344 26.3125 215.047 25.6875C214.75 25.0625 214.297 24.5781 213.688 24.2344C213.078 23.8906 212.305 23.7188 211.367 23.7188C210.539 23.7188 209.812 23.8594 209.188 24.1406C208.578 24.4219 208.109 24.8203 207.781 25.3359C207.453 25.8359 207.289 26.4141 207.289 27.0703H201.078C201.078 26.0234 201.328 25.0312 201.828 24.0938C202.328 23.1406 203.039 22.2969 203.961 21.5625C204.898 20.8125 206.016 20.2266 207.312 19.8047C208.625 19.3828 210.094 19.1719 211.719 19.1719C213.641 19.1719 215.352 19.5 216.852 20.1562C218.367 20.7969 219.555 21.7656 220.414 23.0625C221.289 24.3594 221.727 25.9922 221.727 27.9609V39.0234C221.727 40.2891 221.805 41.375 221.961 42.2812C222.133 43.1719 222.383 43.9453 222.711 44.6016V45H216.406C216.109 44.3594 215.883 43.5469 215.727 42.5625C215.57 41.5625 215.492 40.5781 215.492 39.6094ZM216.359 29.5547L216.406 33.2344H212.492C211.523 33.2344 210.672 33.3359 209.938 33.5391C209.203 33.7266 208.602 34.0078 208.133 34.3828C207.664 34.7422 207.312 35.1797 207.078 35.6953C206.844 36.1953 206.727 36.7656 206.727 37.4062C206.727 38.0312 206.867 38.5938 207.148 39.0938C207.445 39.5938 207.867 39.9922 208.414 40.2891C208.977 40.5703 209.633 40.7109 210.383 40.7109C211.477 40.7109 212.43 40.4922 213.242 40.0547C214.055 39.6016 214.688 39.0547 215.141 38.4141C215.594 37.7734 215.836 37.1641 215.867 36.5859L217.648 39.2578C217.43 39.8984 217.102 40.5781 216.664 41.2969C216.227 42.0156 215.664 42.6875 214.977 43.3125C214.289 43.9375 213.461 44.4531 212.492 44.8594C211.523 45.2656 210.398 45.4688 209.117 45.4688C207.477 45.4688 206.008 45.1406 204.711 44.4844C203.414 43.8281 202.391 42.9297 201.641 41.7891C200.891 40.6484 200.516 39.3516 200.516 37.8984C200.516 36.5547 200.766 35.3672 201.266 34.3359C201.766 33.3047 202.508 32.4375 203.492 31.7344C204.477 31.0156 205.695 30.4766 207.148 30.1172C208.617 29.7422 210.297 29.5547 212.188 29.5547H216.359Z" fill="#FF7701"/>
</svg>
