<svg width="1080" height="1080" viewBox="0 0 1080 1080" fill="none" xmlns="http://www.w3.org/2000/svg">
<rect width="1080" height="1080" fill="#EC231C"/>
<g clip-path="url(#clip0_681_1735)">
<path d="M382.398 509.963C401.193 490.77 417.346 474.132 433.695 457.661C449.097 442.134 464 426.052 480.32 411.581C516.019 379.917 566.704 379.917 601.569 412.442C631.735 440.579 660.233 470.521 689.509 499.658C691.928 502.074 694.542 504.324 699.213 508.685C713.309 493.881 726.904 479.215 740.917 464.966C760.379 445.162 779.813 425.33 799.804 406.081C852.129 355.696 935.537 379.389 952.275 449.856C959.837 481.687 951.663 510.574 928.198 534.1C852.963 609.539 777.561 684.811 702.215 760.112C701.048 761.278 699.546 762.139 697.322 763.806C645.803 711.587 594.451 659.535 542.432 606.789C489.161 660.758 437.643 712.976 385.29 766C377.06 758.056 371.11 752.473 365.327 746.724C295.069 676.59 224.756 606.484 154.609 536.239C128.224 509.824 119.716 478.132 130.643 442.579C141.097 408.498 165.368 387.833 200.094 380.944C229.009 375.222 255.923 382.083 277.386 402.526C310.027 433.635 341.528 465.994 373.39 497.908C376.309 500.825 378.395 504.574 382.37 509.935L382.398 509.963Z" fill="white"/>
</g>
<defs>
<clipPath id="clip0_681_1735">
<rect width="829" height="387" fill="white" transform="translate(126 379)"/>
</clipPath>
</defs>
</svg>
