<svg width="151" height="35" viewBox="0 0 151 35" fill="none" xmlns="http://www.w3.org/2000/svg">
<g clip-path="url(#clip0_681_1750)">
<path d="M62.4849 25.7039C60.3408 22.4302 58.2983 19.3105 56.162 16.0473C54.0126 19.3157 51.978 22.4094 49.8208 25.6882C49.2131 24.7518 48.6757 23.9353 48.1488 23.1136C45.9342 19.66 43.704 16.2117 41.5077 12.7424C40.3156 10.8591 41.1033 8.96274 43.284 8.59756C44.27 8.43323 45.0839 9.00448 45.6316 9.8444C46.8524 11.7121 48.0784 13.5797 49.2626 15.4735C49.6695 16.123 49.9095 16.303 50.3816 15.5074C51.4381 13.7284 52.5858 12.0042 53.6657 10.2383C54.9725 8.10195 57.0984 8.00544 58.4809 10.0818C59.6078 11.7747 60.6694 13.5145 61.7624 15.2283C61.9476 15.5204 62.1641 15.7943 62.4145 16.1464C62.6753 15.9065 62.9049 15.7708 63.0327 15.57C64.2013 13.7467 65.362 11.9181 66.5072 10.0792C67.4749 8.52191 68.7504 8.16716 70.2712 9.06447C71.4502 9.76093 71.7293 11.2191 70.8502 12.625C68.9826 15.6117 67.068 18.5697 65.169 21.5355C64.3056 22.8841 63.4344 24.2275 62.4849 25.7012V25.7039Z" fill="#FF0101"/>
<path d="M118.59 18.8357C119.005 21.3137 121.293 22.3806 123.413 21.9606C123.94 21.8563 124.498 21.6554 124.918 21.3372C126.658 20.0121 128.612 20.9407 130.438 20.612C130.498 20.6825 130.558 20.7503 130.618 20.8207C130.253 21.4337 129.955 22.1041 129.507 22.6518C126.543 26.288 121.715 27.1749 117.729 24.7047C115.363 23.2387 114.046 21.0476 113.639 18.2279C113.073 14.3074 115.768 10.5277 118.687 9.22348C122.151 7.67405 126.097 8.34182 128.789 11.0416C130.649 12.9092 131.452 15.1447 131.39 17.7427C131.372 18.52 131.066 18.7939 130.266 18.7861C126.752 18.747 123.238 18.7678 119.725 18.7705C119.349 18.7705 118.971 18.8122 118.588 18.8331L118.59 18.8357ZM126.251 15.009C125.672 12.6927 124.566 12.6145 122.083 12.4867C120.249 12.3928 118.942 13.5379 118.702 15.009H126.254H126.251Z" fill="#FF0101"/>
<path d="M132.89 25.6983C133.004 22.0726 132.827 18.6059 133.304 15.2279C133.743 12.1213 135.751 9.88582 138.894 8.88417C141.876 7.93469 144.667 8.30248 147.168 10.1988C149.435 11.9126 150.468 14.3098 150.557 17.0878C150.64 19.6806 150.578 22.2786 150.609 24.8714C150.617 25.5053 150.385 25.727 149.748 25.7035C148.546 25.6592 147.341 25.6644 146.135 25.6905C145.588 25.7009 145.405 25.5235 145.408 24.9601C145.426 22.3021 145.4 19.6441 145.397 16.9861C145.392 14.1507 142.718 12.3717 140.212 13.569C138.746 14.2706 138.13 15.5618 138.099 17.1034C138.047 19.6649 138.06 22.2291 138.086 24.7906C138.091 25.4453 137.916 25.7322 137.212 25.7114C135.855 25.6722 134.494 25.7009 132.892 25.7009L132.89 25.6983Z" fill="#FF0101"/>
<path d="M112.786 21.2639V25.8574C110.754 25.6722 108.714 25.7948 106.878 25.2392C104.416 24.4932 103.338 22.3542 103.302 19.8684C103.234 15.4235 103.302 10.9787 103.323 6.5339C103.328 5.3627 103.811 4.44452 104.974 4.05847C105.955 3.73241 106.87 3.94631 107.515 4.78623C107.794 5.14881 107.958 5.62355 108.075 6.07481C108.164 6.40869 108.091 6.78431 108.091 7.14167C108.091 8.76935 108.091 8.71457 109.755 8.77457C110.566 8.80326 111.482 8.89456 112.145 9.29626C112.838 9.71622 113.227 10.5144 112.927 11.5004C112.609 12.5438 111.931 13.0707 110.919 13.1959C110.311 13.2689 109.685 13.2063 109.067 13.2037C108.428 13.2011 108.047 13.3759 108.068 14.1532C108.117 15.9374 108.034 17.7242 108.099 19.5058C108.151 20.883 108.787 21.4021 109.862 21.29C110.791 21.1935 111.738 21.2691 112.784 21.2691L112.786 21.2639Z" fill="#FF0101"/>
<path d="M91.5793 25.6907C91.5793 25.0125 91.5793 24.5012 91.5793 23.9926C91.5793 21.1702 91.668 18.3453 91.5585 15.5255C91.4176 11.8476 93.8904 8.98089 97.6518 8.76699C98.8491 8.69917 100.052 8.75656 101.405 8.75656C101.405 10.113 101.429 11.4302 101.374 12.7449C101.369 12.8962 100.925 13.1283 100.67 13.1492C99.8612 13.2118 99.0447 13.1675 98.2335 13.2144C97.1301 13.277 96.671 13.7492 96.6658 14.8708C96.6502 18.0505 96.6476 21.2276 96.6763 24.4073C96.6867 25.615 96.6867 25.6724 95.4711 25.6881C94.2373 25.7011 93.0035 25.6907 91.5819 25.6907H91.5793Z" fill="#FF0101"/>
<path fill-rule="evenodd" clip-rule="evenodd" d="M89.7855 16.7229C89.5455 12.505 85.7293 8.24543 80.6089 8.44367V8.44107C75.1755 8.36281 71.6645 12.7398 71.508 16.809C71.2993 22.2242 75.7859 26.1212 80.7185 26.0821C85.5415 26.0456 90.0854 22.0259 89.7855 16.7229ZM80.601 21.3895C82.906 21.3895 84.7746 19.521 84.7746 17.216C84.7746 14.911 82.906 13.0424 80.601 13.0424C78.2961 13.0424 76.4275 14.911 76.4275 17.216C76.4275 19.521 78.2961 21.3895 80.601 21.3895Z" fill="#FF0101"/>
</g>
<circle cx="17.4767" cy="17.4767" r="17.4767" fill="#ED241D"/>
<path d="M11.9235 15.9788C12.5681 15.319 13.1221 14.7471 13.6828 14.1809C14.2111 13.6472 14.7222 13.0943 15.2819 12.5969C16.5063 11.5084 18.2446 11.5084 19.4403 12.6265C20.4749 13.5937 21.4523 14.623 22.4564 15.6246C22.5394 15.7076 22.629 15.785 22.7892 15.9349C23.2727 15.426 23.7389 14.9218 24.2195 14.432C24.887 13.7512 25.5536 13.0695 26.2392 12.4078C28.0337 10.6758 30.8944 11.4903 31.4684 13.9126C31.7278 15.0068 31.4474 15.9998 30.6426 16.8085C28.0623 19.4018 25.4763 21.9893 22.8922 24.5778C22.8521 24.6179 22.8007 24.6475 22.7244 24.7048C20.9574 22.9097 19.1962 21.1204 17.4121 19.3073C15.5851 21.1624 13.8182 22.9575 12.0227 24.7802C11.7404 24.5071 11.5364 24.3152 11.338 24.1176C8.9284 21.7067 6.51688 19.2968 4.11107 16.8821C3.20615 15.974 2.91436 14.8846 3.28911 13.6624C3.64764 12.4909 4.48009 11.7805 5.67108 11.5437C6.66277 11.347 7.58581 11.5829 8.32195 12.2856C9.44141 13.355 10.5218 14.4674 11.6146 15.5644C11.7147 15.6647 11.7862 15.7936 11.9226 15.9779L11.9235 15.9788Z" fill="white"/>
<defs>
<clipPath id="clip0_681_1750">
<rect width="109.657" height="22.1902" fill="white" transform="translate(40.9521 3.9126)"/>
</clipPath>
</defs>
</svg>
