<svg width="32" height="32" viewBox="0 0 32 32" fill="none" xmlns="http://www.w3.org/2000/svg">
<rect width="32" height="32" rx="6" fill="#F89900"/>
<path fill-rule="evenodd" clip-rule="evenodd" d="M21.547 6.92972L21.8354 10.487C21.8594 10.7994 21.6191 11.0879 21.3066 11.1119H21.2585C20.9701 11.1119 20.7057 10.8716 20.6817 10.5591L20.3933 7.00181C20.2731 5.55972 19.0713 4.43006 17.6052 4.40599L15.442 4.38196H15.3939C13.9277 4.38196 12.7019 5.51162 12.5817 6.97778L12.2693 10.5831C12.2452 10.8956 12.0049 11.1359 11.6924 11.1359V11.1359C11.6604 11.1359 11.6283 11.134 11.5971 11.1269C11.3081 11.0607 11.0928 10.8063 11.1156 10.487L11.428 6.88166C11.5963 4.81461 13.3509 3.20423 15.4179 3.20423H15.466L17.6292 3.22827C19.6963 3.25231 21.4027 4.83864 21.547 6.92972ZM25.5368 17.986L24.1188 9.21308C23.9986 8.46801 23.3496 7.91517 22.6045 7.91517V7.91517C22.41 7.91517 22.2567 8.08075 22.2716 8.27467L22.4363 10.4149C22.4603 10.7273 22.3642 11.0398 22.1479 11.2801C21.9315 11.5205 21.6671 11.6647 21.3547 11.6888H21.2585C20.6577 11.6888 20.1289 11.208 20.0808 10.6071V10.6071C19.9586 9.08675 18.6891 7.91517 17.1638 7.91517H15.8112C14.2859 7.91517 13.0164 9.08674 12.8942 10.6071V10.6071C12.8461 11.208 12.3174 11.6888 11.7165 11.6888H11.6203C10.9714 11.6407 10.4907 11.0638 10.5388 10.4149L10.6929 8.63357C10.7263 8.24724 10.4217 7.91517 10.034 7.91517V7.91517C9.26487 7.91517 8.61591 8.46801 8.49573 9.23711L5.8524 26.8271C5.852 26.8298 5.85181 26.8324 5.85181 26.8351V26.8351C5.85181 26.8606 5.87112 26.8829 5.89625 26.8877C12.13 28.0804 16.29 26.3421 18.9633 24.122C19.9334 23.3164 21.7056 24.5261 21.018 25.5831V25.5831C20.3947 26.5412 21.4324 27.3432 22.3092 26.6099C24.723 24.5914 26.0813 21.385 25.5368 17.986ZM20.0327 18.0821H17.6158C15.9698 18.0821 15.1419 19.8127 16.7879 19.8127V19.8127C17.3648 19.8127 17.8215 19.6925 18.2301 19.4762C18.6387 19.2359 19.1674 19.332 19.4799 19.6925C19.8885 20.1492 19.7924 20.8703 19.2876 21.1828C18.5906 21.6154 17.7493 21.8317 16.7399 21.8317C13.8796 21.8317 12.0289 19.9569 12.0289 17.3851C12.0289 14.7893 13.9277 12.9386 16.4514 12.9386C18.7526 12.9386 20.5571 14.472 20.7387 17.0066C20.759 17.2897 20.7604 17.5986 20.5765 17.8148C20.4416 17.9733 20.2456 18.0821 20.0327 18.0821ZM15.5005 15.011C14.5278 15.4642 15.351 16.616 16.424 16.616V16.616C17.4994 16.616 18.3129 15.4695 17.3418 15.0075C17.077 14.8816 16.7767 14.8133 16.4514 14.8133C16.0963 14.8133 15.7769 14.8822 15.5005 15.011Z" fill="white"/>
</svg>
