<svg width="22" height="22" viewBox="0 0 22 22"  xmlns="http://www.w3.org/2000/svg">
<path d="M3.03228 4.50498L3.03228 4.50497C3.02781 4.51566 3.02306 4.52622 3.01804 4.53665C2.97757 4.62374 2.94131 4.71376 2.90952 4.80672L2.9095 4.80678C2.9057 4.8179 2.90159 4.82891 2.8972 4.83981L2.89706 4.84015L2.88809 4.86217C2.8354 4.99255 2.79562 5.12778 2.76934 5.26592C2.76547 5.28657 2.7606 5.30702 2.75474 5.3272L2.75469 5.32738L1.61124 9.24256L1.61121 9.24266C1.51354 9.57571 1.48274 9.92479 1.52057 10.2698C1.55841 10.6148 1.66414 10.9489 1.83167 11.2529C1.9992 11.5568 2.22522 11.8246 2.49671 12.0408C2.7682 12.2571 3.07979 12.4174 3.41353 12.5127L3.41364 12.5127C4.82154 12.9164 6.29724 12.1034 6.70778 10.6971L6.70779 10.697C6.83767 10.2527 7.25096 10.1325 7.4956 10.1417L7.49563 10.1417C7.73917 10.151 8.10644 10.2916 8.2324 10.6938C8.56977 11.7703 9.57558 12.5501 10.7616 12.5501H11.3116C12.4308 12.5501 13.3892 11.856 13.7777 10.8726C13.9211 10.5092 14.2645 10.372 14.5249 10.3732H14.525C14.7889 10.3748 15.1577 10.5251 15.2768 10.9321L15.2768 10.9322C15.6874 12.3385 17.1628 13.1515 18.571 12.7478L18.5711 12.7478C18.9048 12.6525 19.2163 12.4921 19.4878 12.2759C19.7593 12.0597 19.9853 11.7919 20.1528 11.4879C20.3203 11.1839 20.426 10.8499 20.4638 10.5049C20.5016 10.1599 20.4708 9.81082 20.3731 9.47779L20.3731 9.47768L19.1399 5.25466L19.1397 5.25395L19.1318 5.2277L19.1317 5.22716L3.03228 4.50498ZM3.03228 4.50498L3.03279 4.50371M3.03228 4.50498L3.03279 4.50371M3.03279 4.50371L3.39028 3.61549C3.39029 3.61548 3.39029 3.61547 3.39029 3.61546C3.54679 3.22695 3.81589 2.89411 4.16301 2.65971C4.51014 2.42532 4.91944 2.30008 5.3383 2.3001H16.5687C16.9876 2.30013 17.3968 2.42539 17.7439 2.65979C18.091 2.89418 18.36 3.227 18.5165 3.61549L18.6093 3.57812L3.03279 4.50371ZM2.12892 3.26727L2.18424 3.12991C2.43757 2.50092 2.87318 1.96203 3.43512 1.58251C3.99706 1.20299 4.65965 1.00016 5.33774 1.0001H5.33775H16.5688C17.2469 1.00016 17.9094 1.20299 18.4714 1.58251C19.0333 1.96203 19.4689 2.50092 19.7223 3.12991L20.2244 4.37648L20.1317 4.41385L20.2244 4.37649C20.2903 4.54019 20.3428 4.70566 20.3824 4.87206L20.3874 4.88961L20.3876 4.89035L21.6211 9.11306C22.2331 11.2084 21.0276 13.3959 18.9291 13.9975C17.1875 14.497 15.3786 13.7465 14.4662 12.2777C14.1143 12.7451 13.6625 13.1289 13.143 13.4006C12.5779 13.6963 11.9496 13.8505 11.3118 13.8501M2.12892 3.26727L11.3119 13.7501M2.12892 3.26727H2.12916L1.83289 4.0024C1.77807 4.1214 1.72846 4.24406 1.68488 4.37011L1.68238 4.37647C1.68233 4.37659 1.68228 4.37671 1.68223 4.37683C1.60051 4.57965 1.53965 4.78537 1.4986 4.99147L0.363263 8.87793L0.363258 8.87795C-0.248472 10.9733 0.957017 13.1605 3.05518 13.7623L3.05519 13.7624C4.7737 14.255 6.55757 13.531 7.48118 12.1009M2.12892 3.26727L7.47945 11.9134C7.46047 11.9456 7.44105 11.9774 7.42121 12.009C7.44079 12.0399 7.46078 12.0706 7.48118 12.1009M11.3118 13.8501L11.3119 13.7501M11.3118 13.8501H11.3119V13.7501M11.3118 13.8501H10.7619C9.39427 13.8501 8.18993 13.1555 7.48118 12.1009M11.3119 13.7501H10.7619C9.41294 13.7501 8.22689 13.0569 7.53944 12.0079C7.52043 12.0392 7.501 12.0702 7.48118 12.1009M14.4744 12.0957C14.4535 12.1258 14.4322 12.1556 14.4104 12.1851L14.4744 12.0957ZM3.20962 14.3391C3.08772 14.2172 2.92239 14.1487 2.75 14.1487C2.57761 14.1487 2.41228 14.2172 2.29038 14.3391C2.16848 14.461 2.1 14.6263 2.1 14.7987V17.8237C2.1 19.7013 3.62235 21.2237 5.5 21.2237H16.5C18.3777 21.2237 19.9 19.7013 19.9 17.8237V14.7987C19.9 14.6263 19.8315 14.461 19.7096 14.3391C19.5877 14.2172 19.4224 14.1487 19.25 14.1487C19.0776 14.1487 18.9123 14.2172 18.7904 14.3391C18.6685 14.461 18.6 14.6263 18.6 14.7987V17.8237C18.6 18.3806 18.3788 18.9148 17.9849 19.3086C17.5911 19.7024 17.057 19.9237 16.5 19.9237H5.5C4.94305 19.9237 4.4089 19.7024 4.01508 19.3086C3.62125 18.9148 3.4 18.3806 3.4 17.8237V14.7987C3.4 14.6263 3.33152 14.461 3.20962 14.3391Z"  stroke="black" stroke-width="0.2"/>
</svg>
