<svg width="74" height="78" viewBox="0 0 74 78" fill="none" xmlns="http://www.w3.org/2000/svg">
<rect x="3" width="66" height="17" fill="#FFA920"/>
<rect x="3" y="20" width="66" height="17" fill="#FF7701"/>
<rect x="3" y="40" width="66" height="17" fill="#FFA920"/>
<path d="M7.30615 67.3511H3.33887V69.1348H6.98877V70.9375H3.33887V75H0.977539V65.5483H7.30615V67.3511ZM12.3335 73.1401V71.6548C11.9569 71.6929 11.6522 71.7267 11.4194 71.7563C11.1867 71.7817 10.9582 71.8346 10.7339 71.915C10.5392 71.9827 10.3869 72.0864 10.2769 72.2261C10.1711 72.3615 10.1182 72.5435 10.1182 72.772C10.1182 73.1063 10.207 73.3369 10.3848 73.4639C10.5667 73.5866 10.8333 73.6479 11.1846 73.6479C11.3792 73.6479 11.5781 73.6035 11.7812 73.5146C11.9844 73.4258 12.1685 73.3009 12.3335 73.1401ZM12.3335 74.2446C12.1812 74.3716 12.0436 74.4858 11.9209 74.5874C11.8024 74.689 11.6416 74.7905 11.4385 74.8921C11.2396 74.9894 11.0449 75.0635 10.8545 75.1143C10.6683 75.165 10.4059 75.1904 10.0674 75.1904C9.43685 75.1904 8.91211 74.9788 8.49316 74.5557C8.07845 74.1325 7.87109 73.5993 7.87109 72.9561C7.87109 72.4271 7.97689 71.9997 8.18848 71.6738C8.40007 71.348 8.70475 71.0898 9.10254 70.8994C9.50456 70.7048 9.98486 70.5693 10.5435 70.4932C11.1021 70.417 11.703 70.3577 12.3462 70.3154V70.2773C12.3462 69.8838 12.2002 69.613 11.9082 69.4648C11.6204 69.3125 11.1867 69.2363 10.6069 69.2363C10.3446 69.2363 10.0378 69.285 9.68652 69.3823C9.33529 69.4754 8.99251 69.596 8.6582 69.7441H8.46777V68.0239C8.68783 67.9604 9.04329 67.8864 9.53418 67.8018C10.0251 67.7129 10.5202 67.6685 11.0195 67.6685C12.2467 67.6685 13.1396 67.8737 13.6982 68.2842C14.2611 68.6904 14.5425 69.3125 14.5425 70.1504V75H12.3335V74.2446ZM24.7051 75V71.439C24.7051 71.0877 24.6987 70.7915 24.686 70.5503C24.6733 70.3091 24.6353 70.1123 24.5718 69.96C24.5083 69.8076 24.4089 69.6976 24.2734 69.6299C24.1423 69.5579 23.9561 69.522 23.7148 69.522C23.5456 69.522 23.3784 69.5601 23.2134 69.6362C23.0483 69.7082 22.8685 69.8118 22.6738 69.9473V75H20.4395V71.439C20.4395 71.092 20.431 70.7979 20.4141 70.5566C20.4014 70.3112 20.3633 70.1123 20.2998 69.96C20.2363 69.8076 20.1369 69.6976 20.0015 69.6299C19.8703 69.5579 19.6862 69.522 19.4492 69.522C19.2673 69.522 19.0895 69.5643 18.916 69.6489C18.7425 69.7336 18.5732 69.833 18.4082 69.9473V75H16.1865V67.8716H18.4082V68.6587C18.7721 68.3498 19.1149 68.1086 19.4365 67.9351C19.7581 67.7616 20.12 67.6748 20.522 67.6748C20.9578 67.6748 21.3408 67.7785 21.6709 67.9858C22.001 68.1932 22.2528 68.5021 22.4263 68.9126C22.8537 68.5148 23.2557 68.2101 23.6323 67.9985C24.0132 67.7827 24.3983 67.6748 24.7876 67.6748C25.1177 67.6748 25.4139 67.7277 25.6763 67.8335C25.9386 67.9393 26.1608 68.098 26.3428 68.3096C26.5417 68.5381 26.6898 68.811 26.7871 69.1284C26.8887 69.4416 26.9395 69.8521 26.9395 70.3599V75H24.7051ZM30.8115 75H28.5898V67.8716H30.8115V75ZM30.875 66.856H28.5264V65.123H30.875V66.856ZM34.7344 75H32.5127V65.123H34.7344V75ZM43.0879 67.8716L39.4888 77.6152H37.1021L38.1812 74.8286L35.5659 67.8716H37.9019L39.3999 72.3403L40.8027 67.8716H43.0879ZM53.7075 75H51.3462V68.7349L49.626 72.7783H48.0073L46.2871 68.7349V75H44.0527V65.5483H46.7886L48.8833 70.2139L50.9717 65.5483H53.7075V75ZM59.4712 73.1401V71.6548C59.0946 71.6929 58.7899 71.7267 58.5571 71.7563C58.3244 71.7817 58.0959 71.8346 57.8716 71.915C57.6769 71.9827 57.5246 72.0864 57.4146 72.2261C57.3088 72.3615 57.2559 72.5435 57.2559 72.772C57.2559 73.1063 57.3447 73.3369 57.5225 73.4639C57.7044 73.5866 57.971 73.6479 58.3223 73.6479C58.5169 73.6479 58.7158 73.6035 58.9189 73.5146C59.1221 73.4258 59.3062 73.3009 59.4712 73.1401ZM59.4712 74.2446C59.3188 74.3716 59.1813 74.4858 59.0586 74.5874C58.9401 74.689 58.7793 74.7905 58.5762 74.8921C58.3773 74.9894 58.1826 75.0635 57.9922 75.1143C57.806 75.165 57.5436 75.1904 57.2051 75.1904C56.5745 75.1904 56.0498 74.9788 55.6309 74.5557C55.2161 74.1325 55.0088 73.5993 55.0088 72.9561C55.0088 72.4271 55.1146 71.9997 55.3262 71.6738C55.5378 71.348 55.8424 71.0898 56.2402 70.8994C56.6423 70.7048 57.1226 70.5693 57.6812 70.4932C58.2397 70.417 58.8407 70.3577 59.4839 70.3154V70.2773C59.4839 69.8838 59.3379 69.613 59.0459 69.4648C58.7581 69.3125 58.3244 69.2363 57.7446 69.2363C57.4823 69.2363 57.1755 69.285 56.8242 69.3823C56.473 69.4754 56.1302 69.596 55.7959 69.7441H55.6055V68.0239C55.8255 67.9604 56.181 67.8864 56.6719 67.8018C57.1628 67.7129 57.6579 67.6685 58.1572 67.6685C59.3844 67.6685 60.2773 67.8737 60.8359 68.2842C61.3988 68.6904 61.6802 69.3125 61.6802 70.1504V75H59.4712V74.2446ZM68.1104 69.9727H67.9263C67.8416 69.943 67.7189 69.9219 67.5581 69.9092C67.3973 69.8923 67.2196 69.8838 67.0249 69.8838C66.7922 69.8838 66.5467 69.9176 66.2886 69.9854C66.0347 70.0531 65.7871 70.1335 65.5459 70.2266V75H63.3242V67.8716H65.5459V68.8936C65.6475 68.8005 65.7871 68.6841 65.9648 68.5444C66.1468 68.4006 66.3118 68.2863 66.46 68.2017C66.6208 68.1043 66.807 68.0218 67.0186 67.9541C67.2344 67.8822 67.4375 67.8462 67.6279 67.8462C67.6999 67.8462 67.7803 67.8483 67.8691 67.8525C67.958 67.8568 68.0384 67.8631 68.1104 67.8716V69.9727ZM71.6904 75.1396C70.7848 75.1396 70.1247 74.9535 69.71 74.5811C69.2995 74.2087 69.0942 73.5993 69.0942 72.7529V69.4204H68.2437V67.8716H69.0942V65.834H71.3159V67.8716H73.4551V69.4204H71.3159V71.9468C71.3159 72.1965 71.318 72.4144 71.3223 72.6006C71.3265 72.7868 71.3604 72.9539 71.4238 73.1021C71.4831 73.2502 71.5868 73.3687 71.7349 73.4575C71.8872 73.5422 72.1073 73.5845 72.395 73.5845C72.5135 73.5845 72.668 73.5591 72.8584 73.5083C73.0531 73.4575 73.1885 73.411 73.2646 73.3687H73.4551V74.9365C73.2139 75 72.9578 75.0487 72.687 75.0825C72.4162 75.1206 72.084 75.1396 71.6904 75.1396Z" fill="#FF7701"/>
</svg>
