<svg width="1080" height="1080" viewBox="0 0 1080 1080" fill="none" xmlns="http://www.w3.org/2000/svg">
<g clip-path="url(#clip0_524_1526)">
<path fill-rule="evenodd" clip-rule="evenodd" d="M0 0H1080V1080H0V0Z" fill="#FB7701"/>
<path fill-rule="evenodd" clip-rule="evenodd" d="M216.842 330.093C216.842 330.093 203.345 314.502 170.526 311.183C166.684 321.777 156.994 348.602 179.158 365.813C184.08 375.718 180.77 390.544 168.421 405.735C156.072 424.709 124.301 463.782 132.842 475.074C142.735 483.51 179.815 508.848 240 497.976C253.69 495.594 297.383 490.164 298.947 468.56C296.183 459.8 288.284 445.42 280.21 434.941C275.926 424.463 252.632 382.622 252.632 382.622C252.632 382.622 245.198 374.365 258.947 359.509C265.4 351.197 274.568 340.322 263.158 313.284C255.246 315.148 243.861 308.35 216.842 330.093Z" fill="white"/>
<path fill-rule="evenodd" clip-rule="evenodd" d="M324.421 361.611C324.421 361.611 314.387 381.778 320.211 388.926C329.823 399.856 345.398 413.701 353.895 407.836C363.615 406.485 366.526 399.432 366.526 399.432C366.526 399.432 363.907 448.322 347.579 453.852C343.971 452.925 334.947 445.447 334.947 445.447C334.947 445.447 318.994 442.816 322.316 453.852C328.246 462.733 350.24 481.461 378.947 487.681C398.337 493.829 449.659 506.436 499.158 472.972C513.67 467.02 521.417 461.055 524.211 455.953C527.004 450.851 524.766 447.105 520.211 445.447C519.444 443.789 514.541 442.316 511.579 445.447C508.617 448.578 504.257 454.625 499.158 445.447C497.849 436.269 484.421 403.634 484.421 403.634C484.421 403.634 499.571 393.637 501.263 382.622C506.745 375.39 501.952 361.6 492.632 355.307C489.566 357.976 472.655 376.882 458.947 376.319C445.24 379.538 426.844 386.209 410.526 353.206C400.105 339.084 386.059 314.902 364.421 317.276C360.802 319.413 330.733 352.223 324.421 361.611ZM387.579 472.972C387.579 472.972 422.046 486.59 454.947 472.972C456.95 473.08 447.082 455.047 431.579 453.852C416.076 452.656 403.985 452.127 387.579 472.972Z" fill="white"/>
<path fill-rule="evenodd" clip-rule="evenodd" d="M627.579 449.649C627.579 449.649 618.181 438.652 610.526 441.245C602.872 443.838 548.225 457.665 536.842 472.972C535.442 477.763 536.878 488.405 553.895 489.782C574.701 494.94 621.463 500.441 636 487.68C654.326 478.702 666.621 471.098 692.632 420.443C698.371 413.425 714.708 402.825 713.895 424.645C716.872 450.248 715.832 487.884 709.684 491.883C720.032 491.883 734.737 491.883 734.737 491.883C734.737 491.883 729.661 431.739 728.632 414.14C731.392 400.322 742.354 364.279 739.158 357.408C739.752 354.319 730.131 326.941 694.948 315.385C691.019 322.72 680.524 337.47 677.895 359.509C675.265 385.331 675.072 436.641 627.579 449.649Z" fill="white"/>
<path fill-rule="evenodd" clip-rule="evenodd" d="M283.158 607.237H238.105V743.813C238.105 756.577 229.632 765.035 216.842 765.035C204.053 765.035 193.684 756.577 193.684 743.813V607.237H150.526C137.156 607.237 126.316 596.418 126.316 583.074C126.316 569.729 137.156 558.91 150.526 558.91H283.158C296.528 558.91 305.474 569.729 305.474 583.074C305.474 596.418 296.528 607.237 283.158 607.237Z" fill="white"/>
<path fill-rule="evenodd" clip-rule="evenodd" d="M357.895 561.012C370.684 561.012 381.053 571.36 381.053 584.125V741.712C381.053 754.477 370.684 762.934 357.895 762.934C345.105 762.934 332.842 754.477 332.842 741.712V584.125C332.842 571.36 345.105 561.012 357.895 561.012Z" fill="white"/>
<path fill-rule="evenodd" clip-rule="evenodd" d="M362.316 561.012H477.895C490.684 561.012 499.158 573.251 499.158 586.016C499.158 598.78 490.684 609.128 477.895 609.128H362.316C351.421 609.128 341.053 598.78 341.053 586.016C341.053 573.251 351.421 561.012 362.316 561.012Z" fill="white"/>
<path fill-rule="evenodd" clip-rule="evenodd" d="M592.294 578.086L719.618 705.162C733.707 719.224 732.818 738.745 722.155 749.387C711.492 760.029 693.513 759.339 679.424 745.278L552.1 618.202C540.098 606.223 537.321 586.196 547.983 575.554C558.646 564.912 580.292 566.108 592.294 578.086Z" fill="white"/>
<path fill-rule="evenodd" clip-rule="evenodd" d="M547.634 709.62L674.958 582.544C689.047 568.482 708.606 569.369 719.269 580.011C729.931 590.653 729.241 608.597 715.152 622.659L587.828 749.735C575.826 761.713 555.76 764.486 545.097 753.844C534.434 743.202 535.632 721.598 547.634 709.62Z" fill="white"/>
<path fill-rule="evenodd" clip-rule="evenodd" d="M364.421 714.396H480C492.79 714.396 501.263 726.636 501.263 739.4C501.263 752.165 492.79 762.513 480 762.513H364.421C353.526 762.513 343.158 752.165 343.158 739.4C343.158 726.636 353.526 714.396 364.421 714.396Z" fill="white"/>
<path fill-rule="evenodd" clip-rule="evenodd" d="M783.158 558.91H787.158C799.947 558.91 810.316 569.258 810.316 580.132V743.813C810.316 756.577 799.947 765.035 787.158 765.035H783.158C772.263 765.035 760 756.577 760 743.813V580.132C760 569.258 772.263 558.91 783.158 558.91Z" fill="white"/>
<path fill-rule="evenodd" clip-rule="evenodd" d="M926.316 558.91H930.316C943.105 558.91 953.474 569.258 953.474 580.132V743.813C953.474 756.577 943.105 765.035 930.316 765.035H926.316C915.421 765.035 903.158 756.577 903.158 743.813V580.132C903.158 569.258 915.421 558.91 926.316 558.91Z" fill="white"/>
<path fill-rule="evenodd" clip-rule="evenodd" d="M774.762 564.621L776.505 563.444C787.099 556.294 801.497 559.067 808.661 569.64L876.322 667.935C883.486 678.51 880.707 692.878 870.114 700.03L868.37 701.207C857.775 708.357 843.379 705.584 836.213 695.011L768.554 596.716C761.387 586.141 764.166 571.773 774.762 564.621Z" fill="white"/>
<path fill-rule="evenodd" clip-rule="evenodd" d="M936.983 566.17L935.238 564.999C924.638 557.887 910.234 560.646 903.063 571.162L835.364 668.925C828.196 679.442 830.977 693.734 841.577 700.846L843.322 702.016C853.922 709.129 868.326 706.37 875.497 695.854L943.196 598.091C950.364 587.574 947.583 573.282 936.983 566.17Z" fill="white"/>
<path fill-rule="evenodd" clip-rule="evenodd" d="M366.316 638.965H467.579C482.263 638.965 490.737 651.204 490.737 663.969C490.737 676.733 482.263 687.082 467.579 687.082H366.316C353.526 687.082 343.158 676.733 343.158 663.969C343.158 651.204 353.526 638.965 366.316 638.965Z" fill="white"/>
<path fill-rule="evenodd" clip-rule="evenodd" d="M845.79 319.377C814.251 319.377 788.684 344.894 788.684 376.371L783.158 438.881C783.158 470.358 808.725 495.875 840.263 495.875H919.474C951.012 495.875 976.579 470.358 976.579 438.881L971.053 376.371C971.053 344.894 945.486 319.377 913.947 319.377H845.79ZM880.79 389.756C865.229 389.756 852.632 377.169 852.632 361.663C852.632 358.902 850.393 356.663 847.632 356.663C844.87 356.663 842.632 358.902 842.632 361.663C842.632 382.711 859.725 399.756 880.79 399.756C901.854 399.756 918.947 382.711 918.947 361.663C918.947 358.902 916.709 356.663 913.947 356.663C911.186 356.663 908.947 358.902 908.947 361.663C908.947 377.169 896.35 389.756 880.79 389.756Z" fill="white"/>
</g>
<defs>
<clipPath id="clip0_524_1526">
<rect width="1080" height="1080" fill="white"/>
</clipPath>
</defs>
</svg>
