<svg width="150" height="150" viewBox="0 0 150 150" fill="none" xmlns="http://www.w3.org/2000/svg">
<g clip-path="url(#clip0_51_3636)">
<path d="M150 0H0V150H150V0Z" fill="white"/>
<path d="M15.2857 9H9V15.2857H15.2857V9Z" fill="black"/>
<path d="M21.5714 9H15.2857V15.2857H21.5714V9Z" fill="black"/>
<path d="M27.8571 9H21.5714V15.2857H27.8571V9Z" fill="black"/>
<path d="M34.1429 9H27.8571V15.2857H34.1429V9Z" fill="black"/>
<path d="M40.4286 9H34.1429V15.2857H40.4286V9Z" fill="black"/>
<path d="M46.7143 9H40.4286V15.2857H46.7143V9Z" fill="black"/>
<path d="M53 9H46.7143V15.2857H53V9Z" fill="black"/>
<path d="M65.5714 9H59.2857V15.2857H65.5714V9Z" fill="black"/>
<path d="M71.8571 9H65.5714V15.2857H71.8571V9Z" fill="black"/>
<path d="M78.1429 9H71.8571V15.2857H78.1429V9Z" fill="black"/>
<path d="M103.286 9H97V15.2857H103.286V9Z" fill="black"/>
<path d="M109.571 9H103.286V15.2857H109.571V9Z" fill="black"/>
<path d="M115.857 9H109.571V15.2857H115.857V9Z" fill="black"/>
<path d="M122.143 9H115.857V15.2857H122.143V9Z" fill="black"/>
<path d="M128.429 9H122.143V15.2857H128.429V9Z" fill="black"/>
<path d="M134.714 9H128.429V15.2857H134.714V9Z" fill="black"/>
<path d="M141 9H134.714V15.2857H141V9Z" fill="black"/>
<path d="M15.2857 15.2857H9V21.5714H15.2857V15.2857Z" fill="black"/>
<path d="M53 15.2857H46.7143V21.5714H53V15.2857Z" fill="black"/>
<path d="M78.1429 15.2857H71.8571L71.8571 21.5714H78.1429V15.2857Z" fill="black"/>
<path d="M90.7143 15.2857H84.4286V21.5714H90.7143V15.2857Z" fill="black"/>
<path d="M103.286 15.2857H97V21.5714H103.286V15.2857Z" fill="black"/>
<path d="M141 15.2857H134.714V21.5714H141V15.2857Z" fill="black"/>
<path d="M15.2857 21.5714H9V27.8571H15.2857V21.5714Z" fill="black"/>
<path d="M27.8571 21.5714H21.5714V27.8571H27.8571V21.5714Z" fill="black"/>
<path d="M34.1429 21.5714H27.8571V27.8571H34.1429V21.5714Z" fill="black"/>
<path d="M40.4286 21.5714H34.1429V27.8571H40.4286V21.5714Z" fill="black"/>
<path d="M53 21.5714H46.7143V27.8571H53V21.5714Z" fill="black"/>
<path d="M78.1429 21.5714H71.8571V27.8571H78.1429V21.5714Z" fill="black"/>
<path d="M103.286 21.5714H97V27.8571H103.286V21.5714Z" fill="black"/>
<path d="M115.857 21.5714H109.571V27.8571H115.857V21.5714Z" fill="black"/>
<path d="M122.143 21.5714H115.857V27.8571H122.143V21.5714Z" fill="black"/>
<path d="M128.429 21.5714H122.143V27.8571H128.429V21.5714Z" fill="black"/>
<path d="M141 21.5714H134.714V27.8571H141V21.5714Z" fill="black"/>
<path d="M15.2857 27.8571H9V34.1429H15.2857V27.8571Z" fill="black"/>
<path d="M27.8571 27.8571H21.5714V34.1429H27.8571V27.8571Z" fill="black"/>
<path d="M34.1429 27.8571H27.8571V34.1429H34.1429V27.8571Z" fill="black"/>
<path d="M40.4286 27.8571H34.1429V34.1429H40.4286V27.8571Z" fill="black"/>
<path d="M53 27.8571H46.7143V34.1429H53V27.8571Z" fill="black"/>
<path d="M71.8571 27.8571H65.5714V34.1429H71.8571L71.8571 27.8571Z" fill="black"/>
<path d="M78.1429 27.8571H71.8571L71.8571 34.1429H78.1429V27.8571Z" fill="black"/>
<path d="M84.4286 27.8571H78.1429V34.1429H84.4286V27.8571Z" fill="black"/>
<path d="M90.7143 27.8571H84.4286V34.1429H90.7143V27.8571Z" fill="black"/>
<path d="M103.286 27.8571H97V34.1429H103.286V27.8571Z" fill="black"/>
<path d="M115.857 27.8571H109.571V34.1429H115.857V27.8571Z" fill="black"/>
<path d="M122.143 27.8571H115.857V34.1429H122.143V27.8571Z" fill="black"/>
<path d="M128.429 27.8571H122.143V34.1429H128.429V27.8571Z" fill="black"/>
<path d="M141 27.8571H134.714V34.1429H141V27.8571Z" fill="black"/>
<path d="M15.2857 34.1429H9V40.4286H15.2857V34.1429Z" fill="black"/>
<path d="M27.8571 34.1429H21.5714V40.4286H27.8571V34.1429Z" fill="black"/>
<path d="M34.1429 34.1429H27.8571V40.4286H34.1429V34.1429Z" fill="black"/>
<path d="M40.4286 34.1429H34.1429V40.4286H40.4286V34.1429Z" fill="black"/>
<path d="M53 34.1429H46.7143V40.4286H53V34.1429Z" fill="black"/>
<path d="M65.5714 34.1429H59.2857V40.4286H65.5714L65.5714 34.1429Z" fill="black"/>
<path d="M71.8571 34.1429H65.5714L65.5714 40.4286H71.8571V34.1429Z" fill="black"/>
<path d="M78.1429 34.1429H71.8571V40.4286H78.1429V34.1429Z" fill="black"/>
<path d="M84.4286 34.1429H78.1429V40.4286H84.4286V34.1429Z" fill="black"/>
<path d="M103.286 34.1429H97V40.4286H103.286V34.1429Z" fill="black"/>
<path d="M115.857 34.1429H109.571V40.4286H115.857V34.1429Z" fill="black"/>
<path d="M122.143 34.1429H115.857V40.4286H122.143V34.1429Z" fill="black"/>
<path d="M128.429 34.1429H122.143V40.4286H128.429V34.1429Z" fill="black"/>
<path d="M141 34.1429H134.714V40.4286H141V34.1429Z" fill="black"/>
<path d="M15.2857 40.4286H9V46.7143H15.2857V40.4286Z" fill="black"/>
<path d="M53 40.4286H46.7143V46.7143H53V40.4286Z" fill="black"/>
<path d="M78.1429 40.4286H71.8571L71.8571 46.7143H78.1429V40.4286Z" fill="black"/>
<path d="M103.286 40.4286H97V46.7143H103.286V40.4286Z" fill="black"/>
<path d="M141 40.4286H134.714V46.7143H141V40.4286Z" fill="black"/>
<path d="M15.2857 46.7143H9V53H15.2857V46.7143Z" fill="black"/>
<path d="M21.5714 46.7143H15.2857V53H21.5714V46.7143Z" fill="black"/>
<path d="M27.8571 46.7143H21.5714V53H27.8571V46.7143Z" fill="black"/>
<path d="M34.1429 46.7143H27.8571V53H34.1429V46.7143Z" fill="black"/>
<path d="M40.4286 46.7143H34.1429V53H40.4286V46.7143Z" fill="black"/>
<path d="M46.7143 46.7143H40.4286V53H46.7143V46.7143Z" fill="black"/>
<path d="M53 46.7143H46.7143V53H53V46.7143Z" fill="black"/>
<path d="M65.5714 46.7143H59.2857V53H65.5714V46.7143Z" fill="black"/>
<path d="M78.1429 46.7143H71.8571V53H78.1429V46.7143Z" fill="black"/>
<path d="M90.7143 46.7143H84.4286V53H90.7143V46.7143Z" fill="black"/>
<path d="M103.286 46.7143H97V53H103.286V46.7143Z" fill="black"/>
<path d="M109.571 46.7143H103.286V53H109.571V46.7143Z" fill="black"/>
<path d="M115.857 46.7143H109.571V53H115.857V46.7143Z" fill="black"/>
<path d="M122.143 46.7143H115.857V53H122.143V46.7143Z" fill="black"/>
<path d="M128.429 46.7143H122.143V53H128.429V46.7143Z" fill="black"/>
<path d="M134.714 46.7143H128.429V53H134.714V46.7143Z" fill="black"/>
<path d="M141 46.7143H134.714V53H141V46.7143Z" fill="black"/>
<path d="M65.5714 53H59.2857V59.2857H65.5714V53Z" fill="black"/>
<path d="M71.8571 53H65.5714V59.2857H71.8571L71.8571 53Z" fill="black"/>
<path d="M84.4286 53H78.1429V59.2857H84.4286V53Z" fill="black"/>
<path d="M90.7143 53H84.4286V59.2857H90.7143V53Z" fill="black"/>
<path d="M15.2857 59.2857H9V65.5714H15.2857V59.2857Z" fill="black"/>
<path d="M34.1429 59.2857H27.8571V65.5714H34.1429V59.2857Z" fill="black"/>
<path d="M40.4286 59.2857H34.1429V65.5714H40.4286V59.2857Z" fill="black"/>
<path d="M46.7143 59.2857H40.4286V65.5714H46.7143V59.2857Z" fill="black"/>
<path d="M53 59.2857H46.7143V65.5714H53V59.2857Z" fill="black"/>
<path d="M59.2857 59.2857L53 59.2857V65.5714H59.2857L59.2857 59.2857Z" fill="black"/>
<path d="M65.5714 59.2857H59.2857L59.2857 65.5714H65.5714V59.2857Z" fill="black"/>
<path d="M78.1429 59.2857H71.8571L71.8571 65.5714H78.1429V59.2857Z" fill="black"/>
<path d="M90.7143 59.2857H84.4286V65.5714H90.7143V59.2857Z" fill="black"/>
<path d="M97 59.2857L90.7143 59.2857V65.5714H97V59.2857Z" fill="black"/>
<path d="M103.286 59.2857H97V65.5714H103.286V59.2857Z" fill="black"/>
<path d="M115.857 59.2857H109.571V65.5714H115.857V59.2857Z" fill="black"/>
<path d="M141 59.2857H134.714V65.5714H141V59.2857Z" fill="black"/>
<path d="M15.2857 65.5714H9V71.8571H15.2857V65.5714Z" fill="black"/>
<path d="M21.5714 65.5714L15.2857 65.5714V71.8571H21.5714V65.5714Z" fill="black"/>
<path d="M27.8571 65.5714L21.5714 65.5714V71.8571H27.8571V65.5714Z" fill="black"/>
<path d="M46.7143 65.5714H40.4286V71.8571H46.7143V65.5714Z" fill="black"/>
<path d="M71.8571 65.5714H65.5714L65.5714 71.8571H71.8571L71.8571 65.5714Z" fill="black"/>
<path d="M78.1429 65.5714H71.8571L71.8571 71.8571H78.1429V65.5714Z" fill="black"/>
<path d="M84.4286 65.5714H78.1429V71.8571H84.4286V65.5714Z" fill="black"/>
<path d="M90.7143 65.5714H84.4286V71.8571H90.7143V65.5714Z" fill="black"/>
<path d="M97 65.5714H90.7143V71.8571H97V65.5714Z" fill="black"/>
<path d="M115.857 65.5714H109.571V71.8571H115.857V65.5714Z" fill="black"/>
<path d="M122.143 65.5714L115.857 65.5714V71.8571H122.143V65.5714Z" fill="black"/>
<path d="M128.429 65.5714H122.143V71.8571H128.429V65.5714Z" fill="black"/>
<path d="M141 65.5714H134.714V71.8571H141V65.5714Z" fill="black"/>
<path d="M21.5714 71.8571H15.2857V78.1429H21.5714V71.8571Z" fill="black"/>
<path d="M34.1429 71.8571L27.8571 71.8571V78.1429H34.1429V71.8571Z" fill="black"/>
<path d="M53 71.8571L46.7143 71.8571V78.1429H53V71.8571Z" fill="black"/>
<path d="M59.2857 71.8571H53V78.1429H59.2857V71.8571Z" fill="black"/>
<path d="M71.8571 71.8571H65.5714V78.1429H71.8571V71.8571Z" fill="black"/>
<path d="M46.7143 78.1429H40.4286V84.4286H46.7143V78.1429Z" fill="black"/>
<path d="M59.2857 78.1429H53V84.4286H59.2857V78.1429Z" fill="black"/>
<path d="M65.5714 78.1429H59.2857V84.4286H65.5714L65.5714 78.1429Z" fill="black"/>
<path d="M71.8571 78.1429H65.5714L65.5714 84.4286H71.8571V78.1429Z" fill="black"/>
<path d="M78.1429 78.1429H71.8571V84.4286H78.1429V78.1429Z" fill="black"/>
<path d="M109.571 78.1429H103.286V84.4286H109.571V78.1429Z" fill="black"/>
<path d="M115.857 78.1429H109.571V84.4286H115.857V78.1429Z" fill="black"/>
<path d="M122.143 78.1429H115.857V84.4286H122.143V78.1429Z" fill="black"/>
<path d="M128.429 78.1429H122.143V84.4286H128.429V78.1429Z" fill="black"/>
<path d="M21.5714 84.4286H15.2857V90.7143H21.5714V84.4286Z" fill="black"/>
<path d="M34.1429 84.4286H27.8571V90.7143H34.1429V84.4286Z" fill="black"/>
<path d="M40.4286 84.4286H34.1429V90.7143H40.4286V84.4286Z" fill="black"/>
<path d="M53 84.4286H46.7143V90.7143H53V84.4286Z" fill="black"/>
<path d="M59.2857 84.4286H53V90.7143H59.2857V84.4286Z" fill="black"/>
<path d="M71.8571 84.4286H65.5714L65.5714 90.7143H71.8571V84.4286Z" fill="black"/>
<path d="M90.7143 84.4286H84.4286V90.7143H90.7143V84.4286Z" fill="black"/>
<path d="M97 84.4286H90.7143V90.7143H97V84.4286Z" fill="black"/>
<path d="M103.286 84.4286H97V90.7143H103.286V84.4286Z" fill="black"/>
<path d="M109.571 84.4286H103.286V90.7143H109.571V84.4286Z" fill="black"/>
<path d="M122.143 84.4286H115.857V90.7143H122.143V84.4286Z" fill="black"/>
<path d="M141 84.4286H134.714V90.7143H141V84.4286Z" fill="black"/>
<path d="M65.5714 90.7143H59.2857L59.2857 97H65.5714L65.5714 90.7143Z" fill="black"/>
<path d="M84.4286 90.7143H78.1429V97H84.4286V90.7143Z" fill="black"/>
<path d="M90.7143 90.7143H84.4286V97H90.7143V90.7143Z" fill="black"/>
<path d="M97 90.7143H90.7143V97H97V90.7143Z" fill="black"/>
<path d="M103.286 90.7143H97V97H103.286V90.7143Z" fill="black"/>
<path d="M134.714 90.7143H128.429V97H134.714V90.7143Z" fill="black"/>
<path d="M141 90.7143H134.714V97H141V90.7143Z" fill="black"/>
<path d="M15.2857 97H9V103.286H15.2857V97Z" fill="black"/>
<path d="M21.5714 97H15.2857V103.286H21.5714V97Z" fill="black"/>
<path d="M27.8571 97H21.5714V103.286H27.8571V97Z" fill="black"/>
<path d="M34.1429 97H27.8571V103.286H34.1429V97Z" fill="black"/>
<path d="M40.4286 97H34.1429V103.286H40.4286V97Z" fill="black"/>
<path d="M46.7143 97H40.4286V103.286H46.7143V97Z" fill="black"/>
<path d="M53 97H46.7143V103.286H53V97Z" fill="black"/>
<path d="M65.5714 97H59.2857V103.286H65.5714V97Z" fill="black"/>
<path d="M78.1429 97H71.8571V103.286H78.1429V97Z" fill="black"/>
<path d="M84.4286 97H78.1429V103.286H84.4286V97Z" fill="black"/>
<path d="M90.7143 97H84.4286V103.286H90.7143V97Z" fill="black"/>
<path d="M97 97H90.7143V103.286H97V97Z" fill="black"/>
<path d="M115.857 97H109.571V103.286H115.857V97Z" fill="black"/>
<path d="M128.429 97H122.143V103.286H128.429V97Z" fill="black"/>
<path d="M134.714 97H128.429V103.286H134.714V97Z" fill="black"/>
<path d="M141 97H134.714V103.286H141V97Z" fill="black"/>
<path d="M15.2857 103.286H9V109.571H15.2857V103.286Z" fill="black"/>
<path d="M53 103.286H46.7143V109.571H53V103.286Z" fill="black"/>
<path d="M65.5714 103.286H59.2857V109.571H65.5714V103.286Z" fill="black"/>
<path d="M71.8571 103.286H65.5714V109.571H71.8571L71.8571 103.286Z" fill="black"/>
<path d="M78.1429 103.286H71.8571L71.8571 109.571H78.1429V103.286Z" fill="black"/>
<path d="M109.571 103.286H103.286V109.571H109.571V103.286Z" fill="black"/>
<path d="M115.857 103.286H109.571V109.571H115.857V103.286Z" fill="black"/>
<path d="M122.143 103.286H115.857V109.571H122.143V103.286Z" fill="black"/>
<path d="M128.429 103.286H122.143V109.571H128.429V103.286Z" fill="black"/>
<path d="M15.2857 109.571H9V115.857H15.2857V109.571Z" fill="black"/>
<path d="M27.8571 109.571H21.5714V115.857H27.8571V109.571Z" fill="black"/>
<path d="M34.1429 109.571H27.8571V115.857H34.1429V109.571Z" fill="black"/>
<path d="M40.4286 109.571H34.1429V115.857H40.4286V109.571Z" fill="black"/>
<path d="M53 109.571H46.7143V115.857H53V109.571Z" fill="black"/>
<path d="M65.5714 109.571H59.2857V115.857H65.5714V109.571Z" fill="black"/>
<path d="M78.1429 109.571H71.8571L71.8571 115.857H78.1429V109.571Z" fill="black"/>
<path d="M84.4286 109.571H78.1429V115.857H84.4286V109.571Z" fill="black"/>
<path d="M115.857 109.571H109.571V115.857H115.857V109.571Z" fill="black"/>
<path d="M128.429 109.571H122.143V115.857H128.429V109.571Z" fill="black"/>
<path d="M134.714 109.571H128.429V115.857H134.714V109.571Z" fill="black"/>
<path d="M15.2857 115.857H9V122.143H15.2857V115.857Z" fill="black"/>
<path d="M27.8571 115.857H21.5714V122.143H27.8571V115.857Z" fill="black"/>
<path d="M34.1429 115.857H27.8571V122.143H34.1429V115.857Z" fill="black"/>
<path d="M40.4286 115.857H34.1429V122.143H40.4286V115.857Z" fill="black"/>
<path d="M53 115.857H46.7143V122.143H53V115.857Z" fill="black"/>
<path d="M65.5714 115.857H59.2857V122.143H65.5714V115.857Z" fill="black"/>
<path d="M78.1429 115.857H71.8571V122.143H78.1429V115.857Z" fill="black"/>
<path d="M84.4286 115.857H78.1429V122.143H84.4286V115.857Z" fill="black"/>
<path d="M90.7143 115.857H84.4286V122.143H90.7143V115.857Z" fill="black"/>
<path d="M109.571 115.857H103.286V122.143H109.571V115.857Z" fill="black"/>
<path d="M122.143 115.857H115.857V122.143H122.143V115.857Z" fill="black"/>
<path d="M128.429 115.857H122.143V122.143H128.429V115.857Z" fill="black"/>
<path d="M15.2857 122.143H9V128.429H15.2857V122.143Z" fill="black"/>
<path d="M27.8571 122.143H21.5714V128.429H27.8571V122.143Z" fill="black"/>
<path d="M34.1429 122.143H27.8571V128.429H34.1429V122.143Z" fill="black"/>
<path d="M40.4286 122.143H34.1429V128.429H40.4286V122.143Z" fill="black"/>
<path d="M53 122.143H46.7143V128.429H53V122.143Z" fill="black"/>
<path d="M71.8571 122.143H65.5714L65.5714 128.429H71.8571L71.8571 122.143Z" fill="black"/>
<path d="M78.1429 122.143H71.8571L71.8571 128.429H78.1429V122.143Z" fill="black"/>
<path d="M97 122.143H90.7143V128.429H97V122.143Z" fill="black"/>
<path d="M103.286 122.143H97V128.429H103.286V122.143Z" fill="black"/>
<path d="M115.857 122.143H109.571V128.429H115.857V122.143Z" fill="black"/>
<path d="M128.429 122.143H122.143V128.429H128.429V122.143Z" fill="black"/>
<path d="M134.714 122.143H128.429V128.429H134.714V122.143Z" fill="black"/>
<path d="M141 122.143H134.714V128.429H141V122.143Z" fill="black"/>
<path d="M15.2857 128.429H9V134.714H15.2857V128.429Z" fill="black"/>
<path d="M53 128.429H46.7143V134.714H53V128.429Z" fill="black"/>
<path d="M84.4286 128.429H78.1429V134.714H84.4286V128.429Z" fill="black"/>
<path d="M90.7143 128.429H84.4286V134.714H90.7143V128.429Z" fill="black"/>
<path d="M109.571 128.429H103.286V134.714H109.571V128.429Z" fill="black"/>
<path d="M115.857 128.429H109.571V134.714H115.857V128.429Z" fill="black"/>
<path d="M122.143 128.429H115.857V134.714H122.143V128.429Z" fill="black"/>
<path d="M15.2857 134.714H9V141H15.2857V134.714Z" fill="black"/>
<path d="M21.5714 134.714H15.2857V141H21.5714V134.714Z" fill="black"/>
<path d="M27.8571 134.714H21.5714V141H27.8571V134.714Z" fill="black"/>
<path d="M34.1429 134.714H27.8571V141H34.1429V134.714Z" fill="black"/>
<path d="M40.4286 134.714H34.1429V141H40.4286V134.714Z" fill="black"/>
<path d="M46.7143 134.714H40.4286V141H46.7143V134.714Z" fill="black"/>
<path d="M53 134.714H46.7143V141H53V134.714Z" fill="black"/>
<path d="M65.5714 134.714H59.2857V141H65.5714V134.714Z" fill="black"/>
<path d="M90.7143 134.714H84.4286V141H90.7143V134.714Z" fill="black"/>
<path d="M109.571 134.714H103.286V141H109.571V134.714Z" fill="black"/>
<path d="M115.857 134.714H109.571V141H115.857V134.714Z" fill="black"/>
<path d="M122.143 134.714H115.857V141H122.143V134.714Z" fill="black"/>
<path d="M141 134.714H134.714V141H141V134.714Z" fill="black"/>
</g>
<rect x="0.5" y="0.5" width="149" height="149" stroke="#DDDDDD"/>
<defs>
<clipPath id="clip0_51_3636">
<rect width="150" height="150" fill="white"/>
</clipPath>
</defs>
</svg>
