<svg width="177" height="65" viewBox="0 0 177 65" fill="none" xmlns="http://www.w3.org/2000/svg">
<path d="M14.7949 21.6808C14.7949 11.9373 21.1057 3 28.8905 3C36.6752 3 42.9861 11.9376 42.9861 21.6808" stroke="white" stroke-width="6"/>
<path fill-rule="evenodd" clip-rule="evenodd" d="M25.1237 21.1593H3.4959C3.4959 21.1593 0.273955 20.9886 0.469491 24.0381C0.665026 27.0876 3.20064 60.2074 3.20064 60.2074C3.20064 60.2074 3.74089 64.9316 9.54872 64.9316H48.4491C48.4491 64.9316 53.7925 65.0363 54.4282 59.1002C55.0638 53.1641 56.9379 23.9643 56.9379 23.9643C56.9379 23.9643 57.676 21.0117 54.0591 21.0117C50.4421 21.0117 25.1237 21.1593 25.1237 21.1593ZM26.0395 31.6305C26.8993 30.813 28.0484 30.4041 29.4867 30.4039C30.3943 30.3773 31.2947 30.5734 32.109 30.975C32.8445 31.3207 33.5516 31.7238 34.2238 32.1804C34.627 32.484 35.115 32.6541 35.6196 32.6668C36.1272 32.6816 36.5078 32.4771 36.7616 32.0535C37.0716 31.5182 37.0716 30.9754 36.7616 30.4251C36.4516 29.8748 35.937 29.3814 35.2178 28.9447C34.4988 28.5079 33.6317 28.1413 32.6166 27.8449C31.5998 27.5486 30.5459 27.399 29.4868 27.4008C28.4451 27.3962 27.4095 27.5605 26.4204 27.8872C25.4757 28.1958 24.5996 28.6841 23.8403 29.3253C23.0866 29.9679 22.4745 30.76 22.0428 31.6515C21.5914 32.5682 21.3658 33.5903 21.366 34.718C21.366 35.9591 21.5634 37.0094 21.9582 37.869C22.3471 38.7218 22.9172 39.4796 23.6288 40.0895C24.4065 40.7482 25.2666 41.3027 26.1876 41.7389C27.1743 42.2187 28.2458 42.684 29.4021 43.1347C30.0469 43.4005 30.6754 43.7041 31.2844 44.0441C31.9089 44.3896 32.4849 44.8163 32.9974 45.313C33.5012 45.8016 33.9162 46.3741 34.224 47.0048C34.5411 47.6716 34.7002 48.4025 34.689 49.1407C34.6953 49.9013 34.529 50.6534 34.2026 51.3404C33.892 51.9984 33.4535 52.5879 32.9126 53.0745C32.37 53.5585 31.7476 53.9449 31.0731 54.2165C30.3957 54.4959 29.67 54.6396 28.9372 54.6395C27.815 54.6514 26.7013 54.443 25.6593 54.0262C24.6891 53.6341 23.761 53.1453 22.8889 52.567C22.4091 52.257 21.965 52.0878 21.5566 52.0594C21.1481 52.0311 20.7886 52.2144 20.478 52.6093C20.1112 53.1168 20.1112 53.709 20.478 54.3857C20.8449 55.0624 21.6344 55.711 22.8466 56.3313C23.7356 56.7519 24.6634 57.0848 25.617 57.3253C26.6452 57.5928 27.706 57.7138 28.768 57.6848C30.0467 57.6705 31.3132 57.4344 32.5112 56.9869C33.6019 56.5818 34.6011 55.9635 35.4504 55.1682C36.2678 54.393 36.9158 53.457 37.3537 52.419C37.8114 51.3279 38.0416 50.1549 38.0304 48.9718C38.0304 47.8444 37.8754 46.8575 37.5654 46.0111C37.2653 45.1825 36.8054 44.4209 36.2119 43.7694C35.5809 43.0896 34.8543 42.5055 34.0548 42.0353C33.1263 41.4854 32.1659 40.991 31.1787 40.5549C30.3605 40.1888 29.5639 39.8222 28.7889 39.4551C28.0712 39.1223 27.3847 38.726 26.7376 38.2708C26.169 37.8726 25.6811 37.3703 25.2996 36.7905C24.9328 36.2267 24.7495 35.5501 24.7497 34.7605C24.7496 33.4916 25.1796 32.4482 26.0395 31.6305Z" fill="white"/>
<path d="M72.5938 48.7588C72.0417 48.2588 71.8958 47.8213 72.1562 47.4463L72.9688 46.2744C73.25 45.8682 73.7031 45.8994 74.3281 46.3682C75.151 46.9827 76.0052 47.488 76.8906 47.8838C77.7865 48.2796 78.8698 48.4775 80.1406 48.4775C81.0781 48.4775 81.8698 48.3369 82.5156 48.0557C83.1615 47.7744 83.6771 47.3734 84.0625 46.8525C84.4583 46.3213 84.6562 45.6807 84.6562 44.9307C84.6562 44.389 84.5729 43.889 84.4062 43.4307C84.25 42.9619 83.9948 42.5713 83.6406 42.2588C83.2865 41.9463 82.9167 41.7015 82.5312 41.5244C81.8958 41.2327 80.9427 40.8942 79.6719 40.5088C78.4115 40.1234 77.3073 39.7067 76.3594 39.2588C75.4219 38.8109 74.6719 38.2692 74.1094 37.6338C73.5573 36.9984 73.1875 36.3473 73 35.6807C72.8229 35.0036 72.7344 34.2327 72.7344 33.3682C72.7344 32.0452 73.1198 30.9046 73.8906 29.9463C74.6615 28.988 75.6042 28.3525 76.7188 28.04C77.8438 27.7275 78.9844 27.5713 80.1406 27.5713C81.4635 27.5713 82.6146 27.7432 83.5938 28.0869C84.5729 28.4307 85.4479 28.8786 86.2188 29.4307C86.7604 29.8161 86.8854 30.2223 86.5938 30.6494L85.7969 31.79C85.5573 32.1338 85.0885 32.0609 84.3906 31.5713C83.8594 31.1963 83.2083 30.8473 82.4375 30.5244C81.6771 30.1911 80.9219 30.0244 80.1719 30.0244C79.2135 30.0244 78.4167 30.139 77.7812 30.3682C77.1458 30.5869 76.6458 30.9619 76.2812 31.4932C75.9167 32.0244 75.7344 32.639 75.7344 33.3369C75.7344 33.7744 75.776 34.1807 75.8594 34.5557C75.9427 34.9202 76.1562 35.2952 76.5 35.6807C76.8438 36.0661 77.2604 36.363 77.75 36.5713C78.4062 36.8525 79.4219 37.1859 80.7969 37.5713C82.1823 37.9463 83.3906 38.4098 84.4219 38.9619C85.3802 39.4723 86.0677 40.0088 86.4844 40.5713C86.9115 41.1234 87.2396 41.7275 87.4688 42.3838C87.7083 43.0296 87.8281 43.7588 87.8281 44.5713C87.8281 46.0505 87.4479 47.2848 86.6875 48.2744C85.9271 49.264 85.026 49.9515 83.9844 50.3369C82.9427 50.7223 81.6354 50.915 80.0625 50.915C78.1771 50.915 76.6146 50.6963 75.375 50.2588C74.1354 49.8213 73.2083 49.3213 72.5938 48.7588ZM92.0469 50.4463C91.5781 50.4463 91.3438 50.2119 91.3438 49.7432V28.0869C91.3438 27.6182 91.5781 27.3838 92.0469 27.3838H93.3906C93.8594 27.3838 94.0938 27.6182 94.0938 28.0869V35.0557C94.0938 35.3682 94.0833 35.6807 94.0625 35.9932H94.125C94.8021 35.2432 95.5312 34.6859 96.3125 34.3213C97.0938 33.9567 98.0677 33.7744 99.2344 33.7744C101.13 33.7744 102.49 34.3109 103.312 35.3838C104.146 36.4463 104.562 37.9046 104.562 39.7588V49.7432C104.562 50.2119 104.328 50.4463 103.859 50.4463H102.516C102.047 50.4463 101.812 50.2119 101.812 49.7432V40.5088C101.812 38.4671 101.474 37.1755 100.797 36.6338C100.12 36.0817 99.2604 35.8057 98.2188 35.8057C96.8646 35.8057 95.8385 36.2119 95.1406 37.0244C94.4427 37.8265 94.0938 39.2067 94.0938 41.165V49.7432C94.0938 50.2119 93.8594 50.4463 93.3906 50.4463H92.0469ZM108.078 42.2432C108.078 39.7952 108.724 37.7744 110.016 36.1807C111.318 34.5765 113.219 33.7744 115.719 33.7744C118.219 33.7744 120.115 34.5765 121.406 36.1807C122.708 37.7744 123.359 39.7952 123.359 42.2432C123.359 44.6911 122.708 46.7171 121.406 48.3213C120.115 49.915 118.219 50.7119 115.719 50.7119C113.219 50.7119 111.318 49.915 110.016 48.3213C108.724 46.7171 108.078 44.6911 108.078 42.2432ZM110.984 42.2432C110.984 44.4307 111.417 46.0505 112.281 47.1025C113.146 48.1546 114.292 48.6807 115.719 48.6807C117.146 48.6807 118.292 48.1546 119.156 47.1025C120.021 46.0505 120.453 44.4307 120.453 42.2432C120.453 40.0557 120.021 38.4359 119.156 37.3838C118.292 36.3317 117.146 35.8057 115.719 35.8057C114.292 35.8057 113.146 36.3317 112.281 37.3838C111.417 38.4359 110.984 40.0557 110.984 42.2432ZM127.609 56.6963C127.141 56.6963 126.906 56.4619 126.906 55.9932V34.7432C126.906 34.2744 127.141 34.04 127.609 34.04H128.922C129.297 34.04 129.5 34.2744 129.531 34.7432L129.625 35.9932H129.656C130.229 35.3057 130.875 34.764 131.594 34.3682C132.312 33.9723 133.271 33.7744 134.469 33.7744C136.552 33.7744 138.135 34.6286 139.219 36.3369C140.302 38.0348 140.844 40.0036 140.844 42.2432C140.844 44.4827 140.302 46.4567 139.219 48.165C138.135 49.863 136.552 50.7119 134.469 50.7119C133.271 50.7119 132.312 50.514 131.594 50.1182C130.875 49.7223 130.229 49.1807 129.656 48.4932H129.625C129.646 48.8057 129.656 49.1234 129.656 49.4463V55.9932C129.656 56.4619 129.422 56.6963 128.953 56.6963H127.609ZM129.656 44.04C129.656 45.6025 130.026 46.7692 130.766 47.54C131.516 48.3005 132.453 48.6807 133.578 48.6807C135.161 48.6807 136.281 48.0869 136.938 46.8994C137.604 45.7119 137.938 44.1598 137.938 42.2432C137.938 40.3265 137.604 38.7744 136.938 37.5869C136.281 36.3994 135.161 35.8057 133.578 35.8057C132.453 35.8057 131.516 36.1911 130.766 36.9619C130.026 37.7223 129.656 38.8838 129.656 40.4463V44.04ZM143.516 42.2432C143.516 39.6598 144.161 37.6025 145.453 36.0713C146.745 34.54 148.594 33.7744 151 33.7744C153 33.7744 154.656 34.4775 155.969 35.8838C157.292 37.2796 157.953 39.514 157.953 42.5869C157.953 43.0557 157.74 43.29 157.312 43.29H146.422C146.599 45.3005 147.141 46.7015 148.047 47.4932C148.953 48.2744 149.979 48.665 151.125 48.665C152.333 48.665 153.26 48.4619 153.906 48.0557C154.552 47.6494 155.026 47.2484 155.328 46.8525C155.661 46.415 155.984 46.3317 156.297 46.6025L157.219 47.3994C157.458 47.6077 157.458 47.8942 157.219 48.2588C157.021 48.5609 156.453 49.0452 155.516 49.7119C154.589 50.3786 153.125 50.7119 151.125 50.7119C148.521 50.7119 146.599 49.9463 145.359 48.415C144.13 46.8838 143.516 44.8265 143.516 42.2432ZM146.359 41.2588H155.188C155.146 39.8005 154.771 38.5244 154.062 37.4307C153.354 36.3265 152.312 35.7744 150.938 35.7744C149.729 35.7744 148.703 36.1807 147.859 36.9932C147.016 37.7952 146.516 39.2171 146.359 41.2588ZM160.672 42.2432C160.672 39.6598 161.318 37.6025 162.609 36.0713C163.901 34.54 165.75 33.7744 168.156 33.7744C170.156 33.7744 171.812 34.4775 173.125 35.8838C174.448 37.2796 175.109 39.514 175.109 42.5869C175.109 43.0557 174.896 43.29 174.469 43.29H163.578C163.755 45.3005 164.297 46.7015 165.203 47.4932C166.109 48.2744 167.135 48.665 168.281 48.665C169.49 48.665 170.417 48.4619 171.062 48.0557C171.708 47.6494 172.182 47.2484 172.484 46.8525C172.818 46.415 173.141 46.3317 173.453 46.6025L174.375 47.3994C174.615 47.6077 174.615 47.8942 174.375 48.2588C174.177 48.5609 173.609 49.0452 172.672 49.7119C171.745 50.3786 170.281 50.7119 168.281 50.7119C165.677 50.7119 163.755 49.9463 162.516 48.415C161.286 46.8838 160.672 44.8265 160.672 42.2432ZM163.516 41.2588H172.344C172.302 39.8005 171.927 38.5244 171.219 37.4307C170.51 36.3265 169.469 35.7744 168.094 35.7744C166.885 35.7744 165.859 36.1807 165.016 36.9932C164.172 37.7952 163.672 39.2171 163.516 41.2588Z" fill="white"/>
</svg>
