<svg width="1080" height="1080" viewBox="0 0 1080 1080" fill="none" xmlns="http://www.w3.org/2000/svg">
<rect width="1080" height="1080" fill="white"/>
<path d="M377.16 399.489C377.16 289.633 448.313 188.867 536.083 188.867C623.854 188.867 695.008 289.636 695.008 399.489" stroke="#FF532C" stroke-width="60"/>
<path fill-rule="evenodd" clip-rule="evenodd" d="M493.604 393.599H249.757C249.757 393.599 213.431 391.674 215.635 426.057C217.84 460.439 246.428 833.855 246.428 833.855C246.428 833.855 252.52 887.119 318.001 887.119H756.593C756.593 887.119 816.837 888.3 824.005 821.372C831.172 754.444 852.301 425.224 852.301 425.224C852.301 425.224 860.623 391.935 819.843 391.935C779.064 391.935 493.604 393.599 493.604 393.599ZM503.931 511.658C513.625 502.441 526.58 497.831 542.797 497.829C553.03 497.529 563.181 499.74 572.363 504.267C580.655 508.166 588.627 512.71 596.207 517.858C600.753 521.281 606.254 523.199 611.943 523.342C617.666 523.509 621.958 521.204 624.819 516.427C628.315 510.392 628.315 504.272 624.819 498.068C621.324 491.864 615.522 486.3 607.413 481.377C599.306 476.452 589.53 472.319 578.085 468.977C566.621 465.636 554.739 463.95 542.798 463.969C531.053 463.918 519.377 465.77 508.224 469.454C497.573 472.933 487.696 478.438 479.135 485.668C470.637 492.913 463.736 501.844 458.868 511.896C453.779 522.23 451.236 533.755 451.238 546.469C451.238 560.462 453.464 572.304 457.915 581.996C462.299 591.611 468.727 600.155 476.751 607.032C485.518 614.458 495.217 620.709 505.6 625.628C516.725 631.038 528.806 636.283 541.843 641.365C549.113 644.362 556.199 647.785 563.065 651.618C570.106 655.514 576.6 660.325 582.379 665.925C588.059 671.434 592.738 677.888 596.208 685C599.784 692.517 601.578 700.758 601.451 709.081C601.522 717.657 599.647 726.136 595.967 733.882C592.466 741.301 587.521 747.947 581.423 753.434C575.305 758.891 568.288 763.247 560.683 766.31C553.045 769.459 544.863 771.08 536.601 771.078C523.948 771.212 511.392 768.863 499.643 764.164C488.705 759.743 478.241 754.231 468.408 747.712C462.999 744.216 457.991 742.309 453.386 741.989C448.781 741.669 444.728 743.736 441.226 748.188C437.091 753.911 437.091 760.587 441.226 768.217C445.362 775.847 454.264 783.159 467.931 790.153C477.954 794.896 488.415 798.649 499.166 801.36C510.759 804.376 522.72 805.74 534.694 805.413C549.111 805.252 563.39 802.59 576.897 797.545C589.194 792.977 600.46 786.007 610.035 777.04C619.251 768.3 626.558 757.746 631.495 746.043C636.655 733.741 639.251 720.516 639.125 707.177C639.125 694.465 637.377 683.338 633.881 673.796C630.498 664.453 625.313 655.866 618.621 648.522C611.508 640.857 603.315 634.271 594.301 628.97C583.832 622.769 573.003 617.196 561.873 612.279C552.649 608.151 543.667 604.018 534.929 599.879C526.837 596.127 519.097 591.658 511.801 586.526C505.391 582.037 499.889 576.373 495.588 569.836C491.453 563.479 489.386 555.851 489.388 546.949C489.387 532.641 494.235 520.878 503.931 511.658Z" fill="#FF532C"/>
</svg>
