<svg width="111" height="54" viewBox="0 0 111 54" fill="none" xmlns="http://www.w3.org/2000/svg">
<g clip-path="url(#clip0_643_2420)">
<path d="M42.524 17.149C43.3362 17.149 44.0608 17.1429 44.7866 17.149C46.4367 17.1649 47.4024 18.1732 47.3999 19.8305C47.3914 25.0231 47.3914 30.2169 47.3938 35.4095C47.3938 36.9877 46.4562 38.0423 44.8584 38.0532C40.0921 38.0849 35.3245 38.0776 30.557 38.0557C29.3209 38.0496 28.3528 37.0912 28.298 35.871C28.2554 34.9199 28.2858 33.9652 28.2907 33.0117C28.2907 32.8935 28.3285 32.7754 28.3285 32.7754C29.5231 32.3663 30.697 32.0862 31.7614 31.5771C34.343 30.3448 36.0114 28.2721 36.8857 25.5577C37.0757 24.9695 36.8711 24.5324 36.373 24.3813C35.9273 24.245 35.5462 24.4995 35.3538 25.0901C34.3686 28.1077 32.3167 29.9928 29.2722 30.8209C28.9861 30.8988 28.6853 30.9195 28.3163 30.978C28.3005 30.6772 28.2785 30.4422 28.2785 30.2059C28.2761 26.7195 28.2761 23.2306 28.2761 19.7417C28.2761 18.0867 29.2199 17.1527 30.8833 17.149C31.4508 17.1478 32.0195 17.1295 32.587 17.1551C32.9828 17.1734 33.1033 17.0333 33.1204 16.6351C33.1508 15.8911 33.1533 15.1227 33.3493 14.4139C33.9838 12.1196 36.1344 10.8239 38.6296 11.1479C40.6937 11.4158 42.4339 13.3873 42.5216 15.5708C42.5423 16.0725 42.524 16.5742 42.524 17.1478V17.149ZM40.9007 17.1064C41.288 15.5245 40.7972 14.0522 39.6062 13.1925C38.6442 12.4971 37.1756 12.4606 36.1563 13.1073C34.9044 13.9012 34.3869 15.3394 34.7437 17.1076H40.9007V17.1064ZM31.7918 25.5979C32.3605 25.5955 32.8744 25.0803 32.8744 24.5116C32.8744 23.932 32.3654 23.3974 31.8162 23.401C31.2584 23.4047 30.7238 23.9369 30.7226 24.4873C30.7214 25.0426 31.2584 25.5991 31.7918 25.5967V25.5979Z" fill="#EF1923"/>
</g>
<g clip-path="url(#clip1_643_2420)">
<path d="M11.4758 17.149C10.6635 17.149 9.93894 17.1429 9.21315 17.149C7.56308 17.1649 6.59739 18.1732 6.59982 19.8305C6.60835 25.0231 6.60835 30.2169 6.60591 35.4095C6.60591 36.9877 7.54359 38.0423 9.14131 38.0532C13.9076 38.0849 18.6752 38.0776 23.4428 38.0557C24.6788 38.0496 25.6469 37.0912 25.7017 35.871C25.7444 34.9199 25.7139 33.9652 25.709 33.0117C25.709 32.8935 25.6713 32.7754 25.6713 32.7754C24.4767 32.3663 23.3027 32.0862 22.2384 31.5771C19.6567 30.3448 17.9884 28.2721 17.114 25.5577C16.9241 24.9695 17.1286 24.5324 17.6267 24.3813C18.0724 24.245 18.4536 24.4995 18.646 25.0901C19.6312 28.1077 21.6831 29.9928 24.7275 30.8209C25.0137 30.8988 25.3145 30.9195 25.6835 30.978C25.6993 30.6772 25.7212 30.4422 25.7212 30.2059C25.7237 26.7195 25.7237 23.2306 25.7237 19.7417C25.7237 18.0867 24.7799 17.1527 23.1164 17.149C22.5489 17.1478 21.9802 17.1295 21.4128 17.1551C21.017 17.1734 20.8964 17.0333 20.8794 16.6351C20.8489 15.8911 20.8465 15.1227 20.6504 14.4139C20.016 12.1196 17.8654 10.8239 15.3702 11.1479C13.3061 11.4158 11.5659 13.3873 11.4782 15.5708C11.4575 16.0725 11.4758 16.5742 11.4758 17.1478V17.149ZM13.0991 17.1064C12.7118 15.5245 13.2026 14.0522 14.3935 13.1925C15.3556 12.4971 16.8242 12.4606 17.8435 13.1073C19.0953 13.9012 19.6129 15.3394 19.2561 17.1076H13.0991V17.1064ZM22.208 25.5979C21.6393 25.5955 21.1254 25.0803 21.1254 24.5116C21.1254 23.932 21.6344 23.3974 22.1836 23.401C22.7413 23.4047 23.2759 23.9369 23.2772 24.4873C23.2784 25.0426 22.7413 25.5991 22.208 25.5967V25.5979Z" fill="#16ADDA"/>
</g>
<path d="M63.9723 33H61.4411L66.0497 19.9091H68.9773L73.5923 33H71.0611L67.5646 22.5938H67.4624L63.9723 33ZM64.0554 27.8672H70.9588V29.772H64.0554V27.8672ZM75.0865 33V31.5298L80.149 25.1825V25.0994H75.2527V23.1818H82.9806V24.7607L78.161 30.9993V31.0824H83.1468V33H75.0865ZM89.3871 33.1918C88.4027 33.1918 87.5526 32.9872 86.8366 32.5781C86.125 32.1648 85.5774 31.581 85.1939 30.8267C84.8104 30.0682 84.6186 29.1754 84.6186 28.1484C84.6186 27.1385 84.8104 26.2521 85.1939 25.4893C85.5817 24.7223 86.1229 24.1257 86.8175 23.6996C87.5121 23.2692 88.3281 23.054 89.2656 23.054C89.8707 23.054 90.4418 23.152 90.9787 23.348C91.5199 23.5398 91.9972 23.8381 92.4105 24.2429C92.8281 24.6477 93.1563 25.1634 93.3949 25.7898C93.6335 26.4119 93.7528 27.1534 93.7528 28.0142V28.7237H85.7053V27.1641H91.5348C91.5305 26.7209 91.4347 26.3267 91.2472 25.9815C91.0597 25.6321 90.7976 25.3572 90.4609 25.157C90.1286 24.9567 89.7408 24.8565 89.2976 24.8565C88.8246 24.8565 88.4091 24.9716 88.0511 25.2017C87.6932 25.4276 87.4141 25.7259 87.2138 26.0966C87.0178 26.4631 86.9176 26.8658 86.9134 27.3047V28.6662C86.9134 29.2372 87.0178 29.7273 87.2266 30.1364C87.4354 30.5412 87.7273 30.8523 88.1023 31.0696C88.4773 31.2827 88.9162 31.3892 89.419 31.3892C89.7557 31.3892 90.0604 31.3423 90.3331 31.2486C90.6058 31.1506 90.8423 31.0078 91.0426 30.8203C91.2429 30.6328 91.3942 30.4006 91.4964 30.1236L93.657 30.3665C93.5206 30.9375 93.2607 31.4361 92.8771 31.8622C92.4979 32.2841 92.0121 32.6122 91.4197 32.8466C90.8274 33.0767 90.1499 33.1918 89.3871 33.1918ZM99.3539 33.1726C98.5826 33.1726 97.8922 32.9744 97.2828 32.5781C96.6735 32.1818 96.1919 31.6065 95.8382 30.8523C95.4846 30.098 95.3077 29.1818 95.3077 28.1037C95.3077 27.0128 95.4867 26.0923 95.8446 25.3423C96.2069 24.5881 96.6948 24.0192 97.3084 23.6357C97.9221 23.2479 98.606 23.054 99.3603 23.054C99.9355 23.054 100.409 23.152 100.779 23.348C101.15 23.5398 101.444 23.772 101.661 24.0447C101.879 24.3132 102.047 24.5668 102.166 24.8054H102.262V19.9091H104.583V33H102.307V31.4531H102.166C102.047 31.6918 101.874 31.9453 101.649 32.2138C101.423 32.478 101.124 32.7038 100.754 32.8913C100.383 33.0788 99.9164 33.1726 99.3539 33.1726ZM99.9995 31.2741C100.49 31.2741 100.907 31.142 101.252 30.8778C101.597 30.6094 101.86 30.2365 102.039 29.7592C102.218 29.282 102.307 28.7259 102.307 28.0909C102.307 27.456 102.218 26.9041 102.039 26.4354C101.864 25.9666 101.604 25.6023 101.259 25.3423C100.918 25.0824 100.498 24.9524 99.9995 24.9524C99.4838 24.9524 99.0534 25.0866 98.7083 25.3551C98.3631 25.6236 98.1032 25.9943 97.9284 26.4673C97.7537 26.9403 97.6664 27.4815 97.6664 28.0909C97.6664 28.7045 97.7537 29.2521 97.9284 29.7337C98.1074 30.2109 98.3695 30.5881 98.7147 30.8651C99.0641 31.1378 99.4924 31.2741 99.9995 31.2741ZM107.048 33V23.1818H109.362V33H107.048ZM108.212 21.7884C107.845 21.7884 107.53 21.6669 107.266 21.424C107.001 21.1768 106.869 20.8807 106.869 20.5355C106.869 20.1861 107.001 19.8899 107.266 19.647C107.53 19.3999 107.845 19.2763 108.212 19.2763C108.582 19.2763 108.898 19.3999 109.158 19.647C109.422 19.8899 109.554 20.1861 109.554 20.5355C109.554 20.8807 109.422 21.1768 109.158 21.424C108.898 21.6669 108.582 21.7884 108.212 21.7884Z" fill="white"/>
<defs>
<clipPath id="clip0_643_2420">
<rect width="19.1238" height="26.976" fill="white" transform="translate(28.2761 11.0996)"/>
</clipPath>
<clipPath id="clip1_643_2420">
<rect width="19.1238" height="26.976" fill="white" transform="matrix(-1 0 0 1 25.7236 11.0996)"/>
</clipPath>
</defs>
</svg>
