<svg width="105" height="28" viewBox="0 0 105 28" fill="none" xmlns="http://www.w3.org/2000/svg">
<g clip-path="url(#clip0_643_1699)">
<path d="M36.524 6.14902C37.3362 6.14902 38.0608 6.14293 38.7866 6.14902C40.4367 6.16485 41.4024 7.17316 41.3999 8.83055C41.3914 14.0231 41.3914 19.2169 41.3938 24.4095C41.3938 25.9877 40.4562 27.0423 38.8584 27.0532C34.0921 27.0849 29.3245 27.0776 24.557 27.0557C23.3209 27.0496 22.3528 26.0912 22.298 24.871C22.2554 23.9199 22.2858 22.9652 22.2907 22.0117C22.2907 21.8935 22.3285 21.7754 22.3285 21.7754C23.5231 21.3663 24.697 21.0862 25.7614 20.5771C28.343 19.3448 30.0114 17.2721 30.8857 14.5577C31.0757 13.9695 30.8711 13.5324 30.373 13.3813C29.9273 13.245 29.5462 13.4995 29.3538 14.0901C28.3686 17.1077 26.3167 18.9928 23.2722 19.8209C22.9861 19.8988 22.6853 19.9195 22.3163 19.978C22.3005 19.6772 22.2785 19.4422 22.2785 19.2059C22.2761 15.7195 22.2761 12.2306 22.2761 8.74165C22.2761 7.0867 23.2199 6.15268 24.8833 6.14902C25.4508 6.14781 26.0195 6.12954 26.587 6.15511C26.9828 6.17338 27.1033 6.03333 27.1204 5.63512C27.1508 4.89107 27.1533 4.12266 27.3493 3.41392C27.9838 1.11964 30.1344 -0.176065 32.6296 0.147861C34.6937 0.41577 36.4339 2.38734 36.5216 4.5708C36.5423 5.07252 36.524 5.57424 36.524 6.1478V6.14902ZM34.9007 6.1064C35.288 4.52452 34.7972 3.05224 33.6062 2.19249C32.6442 1.49715 31.1756 1.46062 30.1563 2.10725C28.9044 2.90124 28.3869 4.33942 28.7437 6.10762H34.9007V6.1064ZM25.7918 14.5979C26.3605 14.5955 26.8744 14.0803 26.8744 13.5116C26.8744 12.932 26.3654 12.3974 25.8162 12.401C25.2584 12.4047 24.7238 12.9369 24.7226 13.4873C24.7214 14.0426 25.2584 14.5991 25.7918 14.5967V14.5979Z" fill="#EF1923"/>
</g>
<g clip-path="url(#clip1_643_1699)">
<path d="M5.47577 6.14902C4.66352 6.14902 3.93894 6.14293 3.21315 6.14902C1.56308 6.16485 0.597389 7.17316 0.599825 8.83055C0.608349 14.0231 0.608347 19.2169 0.605911 24.4095C0.605911 25.9877 1.54359 27.0423 3.14131 27.0532C7.90765 27.0849 12.6752 27.0776 17.4428 27.0557C18.6788 27.0496 19.6469 26.0912 19.7017 24.871C19.7444 23.9199 19.7139 22.9652 19.709 22.0117C19.709 21.8935 19.6713 21.7754 19.6713 21.7754C18.4767 21.3663 17.3027 21.0862 16.2384 20.5771C13.6567 19.3448 11.9884 17.2721 11.114 14.5577C10.9241 13.9695 11.1286 13.5324 11.6267 13.3813C12.0724 13.245 12.4536 13.4995 12.646 14.0901C13.6312 17.1077 15.6831 18.9928 18.7275 19.8209C19.0137 19.8988 19.3145 19.9195 19.6835 19.978C19.6993 19.6772 19.7212 19.4422 19.7212 19.2059C19.7237 15.7195 19.7237 12.2306 19.7237 8.74165C19.7237 7.0867 18.7799 6.15268 17.1164 6.14902C16.5489 6.14781 15.9802 6.12954 15.4128 6.15511C15.017 6.17338 14.8964 6.03333 14.8794 5.63512C14.8489 4.89107 14.8465 4.12266 14.6504 3.41392C14.016 1.11964 11.8654 -0.176065 9.37019 0.147861C7.30607 0.41577 5.56588 2.38734 5.4782 4.5708C5.4575 5.07252 5.47577 5.57424 5.47577 6.1478V6.14902ZM7.09905 6.1064C6.7118 4.52452 7.20256 3.05224 8.39354 2.19249C9.35558 1.49715 10.8242 1.46062 11.8435 2.10725C13.0953 2.90124 13.6129 4.33942 13.2561 6.10762H7.09905V6.1064ZM16.208 14.5979C15.6393 14.5955 15.1254 14.0803 15.1254 13.5116C15.1254 12.932 15.6344 12.3974 16.1836 12.401C16.7413 12.4047 17.2759 12.9369 17.2772 13.4873C17.2784 14.0426 16.7413 14.5991 16.208 14.5967V14.5979Z" fill="#16ADDA"/>
</g>
<path d="M57.9723 22H55.4411L60.0497 8.90909H62.9773L67.5923 22H65.0611L61.5646 11.5938H61.4624L57.9723 22ZM58.0554 16.8672H64.9588V18.772H58.0554V16.8672ZM69.0865 22V20.5298L74.149 14.1825V14.0994H69.2527V12.1818H76.9806V13.7607L72.161 19.9993V20.0824H77.1468V22H69.0865ZM83.3871 22.1918C82.4027 22.1918 81.5526 21.9872 80.8366 21.5781C80.125 21.1648 79.5774 20.581 79.1939 19.8267C78.8104 19.0682 78.6186 18.1754 78.6186 17.1484C78.6186 16.1385 78.8104 15.2521 79.1939 14.4893C79.5817 13.7223 80.1229 13.1257 80.8175 12.6996C81.5121 12.2692 82.3281 12.054 83.2656 12.054C83.8707 12.054 84.4418 12.152 84.9787 12.348C85.5199 12.5398 85.9972 12.8381 86.4105 13.2429C86.8281 13.6477 87.1563 14.1634 87.3949 14.7898C87.6335 15.4119 87.7528 16.1534 87.7528 17.0142V17.7237H79.7053V16.1641H85.5348C85.5305 15.7209 85.4347 15.3267 85.2472 14.9815C85.0597 14.6321 84.7976 14.3572 84.4609 14.157C84.1286 13.9567 83.7408 13.8565 83.2976 13.8565C82.8246 13.8565 82.4091 13.9716 82.0511 14.2017C81.6932 14.4276 81.4141 14.7259 81.2138 15.0966C81.0178 15.4631 80.9176 15.8658 80.9134 16.3047V17.6662C80.9134 18.2372 81.0178 18.7273 81.2266 19.1364C81.4354 19.5412 81.7273 19.8523 82.1023 20.0696C82.4773 20.2827 82.9162 20.3892 83.419 20.3892C83.7557 20.3892 84.0604 20.3423 84.3331 20.2486C84.6058 20.1506 84.8423 20.0078 85.0426 19.8203C85.2429 19.6328 85.3942 19.4006 85.4964 19.1236L87.657 19.3665C87.5206 19.9375 87.2607 20.4361 86.8771 20.8622C86.4979 21.2841 86.0121 21.6122 85.4197 21.8466C84.8274 22.0767 84.1499 22.1918 83.3871 22.1918ZM93.3539 22.1726C92.5826 22.1726 91.8922 21.9744 91.2828 21.5781C90.6735 21.1818 90.1919 20.6065 89.8382 19.8523C89.4846 19.098 89.3077 18.1818 89.3077 17.1037C89.3077 16.0128 89.4867 15.0923 89.8446 14.3423C90.2069 13.5881 90.6948 13.0192 91.3084 12.6357C91.9221 12.2479 92.606 12.054 93.3603 12.054C93.9355 12.054 94.4086 12.152 94.7793 12.348C95.15 12.5398 95.4441 12.772 95.6614 13.0447C95.8787 13.3132 96.0471 13.5668 96.1664 13.8054H96.2623V8.90909H98.5826V22H96.307V20.4531H96.1664C96.0471 20.6918 95.8745 20.9453 95.6486 21.2138C95.4228 21.478 95.1245 21.7038 94.7537 21.8913C94.383 22.0788 93.9164 22.1726 93.3539 22.1726ZM93.9995 20.2741C94.4895 20.2741 94.9071 20.142 95.2523 19.8778C95.5975 19.6094 95.8596 19.2365 96.0385 18.7592C96.2175 18.282 96.307 17.7259 96.307 17.0909C96.307 16.456 96.2175 15.9041 96.0385 15.4354C95.8638 14.9666 95.6039 14.6023 95.2587 14.3423C94.9178 14.0824 94.498 13.9524 93.9995 13.9524C93.4838 13.9524 93.0534 14.0866 92.7083 14.3551C92.3631 14.6236 92.1032 14.9943 91.9284 15.4673C91.7537 15.9403 91.6664 16.4815 91.6664 17.0909C91.6664 17.7045 91.7537 18.2521 91.9284 18.7337C92.1074 19.2109 92.3695 19.5881 92.7147 19.8651C93.0641 20.1378 93.4924 20.2741 93.9995 20.2741ZM101.048 22V12.1818H103.362V22H101.048ZM102.212 10.7884C101.845 10.7884 101.53 10.6669 101.266 10.424C101.001 10.1768 100.869 9.88068 100.869 9.53551C100.869 9.18608 101.001 8.88991 101.266 8.64702C101.53 8.39986 101.845 8.27628 102.212 8.27628C102.582 8.27628 102.898 8.39986 103.158 8.64702C103.422 8.88991 103.554 9.18608 103.554 9.53551C103.554 9.88068 103.422 10.1768 103.158 10.424C102.898 10.6669 102.582 10.7884 102.212 10.7884Z" fill="#333333"/>
<defs>
<clipPath id="clip0_643_1699">
<rect width="19.1238" height="26.976" fill="white" transform="translate(22.2761 0.0996094)"/>
</clipPath>
<clipPath id="clip1_643_1699">
<rect width="19.1238" height="26.976" fill="white" transform="matrix(-1 0 0 1 19.7236 0.0996094)"/>
</clipPath>
</defs>
</svg>
