<svg width="180" height="50" viewBox="0 0 180 50" fill="none" xmlns="http://www.w3.org/2000/svg">
<path fill-rule="evenodd" clip-rule="evenodd" d="M45.9005 25.6319C46.0413 25.0122 46.0326 24.3681 45.8751 23.7524C45.7176 23.1366 45.5139 22.4818 45.2385 21.9679C43.5371 18.7931 39.907 14.9623 35.2876 11.1835C32.063 8.82224 17.9876 -0.912129 7.91772 0.0692549C6.43193 0.3121 3.34806 1.25625 1.77345 9.51632C0.198846 17.7764 -2.30969 34.8867 4.5663 47.8603C5.53319 49.3285 7.75015 50.7717 12.9448 49.5274C18.1395 48.2832 44.3627 39.2963 45.9005 25.6319Z" fill="#FF6900"/>
<path d="M60.7812 12.6719H75.9219V15.0781L63.7344 33.3438H76.2656V36H60.4375V33.5938L72.2969 15.3281H60.7812V12.6719ZM86.81 27.2031H85.8569C84.1798 27.2031 82.9142 27.5 82.06 28.0938C81.2162 28.6771 80.7944 29.5521 80.7944 30.7188C80.7944 31.7708 81.1121 32.5885 81.7475 33.1719C82.3829 33.7552 83.2631 34.0469 84.3881 34.0469C85.9715 34.0469 87.2162 33.5 88.1225 32.4062C89.0287 31.3021 89.4871 29.7812 89.4975 27.8438V27.2031H86.81ZM92.3881 26.0156V36H89.4975V33.4062C88.8829 34.4479 88.1069 35.2188 87.1694 35.7188C86.2423 36.2083 85.1121 36.4531 83.7787 36.4531C81.9975 36.4531 80.5756 35.9531 79.5131 34.9531C78.4506 33.9427 77.9194 32.5938 77.9194 30.9062C77.9194 28.9583 78.5704 27.4792 79.8725 26.4688C81.185 25.4583 83.1069 24.9531 85.6381 24.9531H89.4975V24.5C89.4871 23.1042 89.1329 22.0938 88.435 21.4688C87.7371 20.8333 86.6225 20.5156 85.0912 20.5156C84.1121 20.5156 83.1225 20.6562 82.1225 20.9375C81.1225 21.2188 80.1485 21.6302 79.2006 22.1719V19.2969C80.2631 18.8906 81.2787 18.5885 82.2475 18.3906C83.2267 18.1823 84.1746 18.0781 85.0912 18.0781C86.5392 18.0781 87.7735 18.2917 88.7944 18.7188C89.8256 19.1458 90.659 19.7865 91.2944 20.6406C91.6902 21.1615 91.9715 21.8073 92.1381 22.5781C92.3048 23.3385 92.3881 24.4844 92.3881 26.0156Z" fill="#FF6900"/>
<path d="M100.234 29.6719C100.234 30.9635 100.469 31.9375 100.938 32.5938C101.417 33.25 102.12 33.5781 103.047 33.5781H106.406V36H102.766C101.047 36 99.7135 35.4531 98.7656 34.3594C97.8281 33.2552 97.3594 31.6927 97.3594 29.6719V13.8438H92.75V11.5938H100.234V29.6719ZM117.81 27.2031H116.857C115.18 27.2031 113.914 27.5 113.06 28.0938C112.216 28.6771 111.794 29.5521 111.794 30.7188C111.794 31.7708 112.112 32.5885 112.747 33.1719C113.383 33.7552 114.263 34.0469 115.388 34.0469C116.971 34.0469 118.216 33.5 119.122 32.4062C120.029 31.3021 120.487 29.7812 120.497 27.8438V27.2031H117.81ZM123.388 26.0156V36H120.497V33.4062C119.883 34.4479 119.107 35.2188 118.169 35.7188C117.242 36.2083 116.112 36.4531 114.779 36.4531C112.997 36.4531 111.576 35.9531 110.513 34.9531C109.451 33.9427 108.919 32.5938 108.919 30.9062C108.919 28.9583 109.57 27.4792 110.872 26.4688C112.185 25.4583 114.107 24.9531 116.638 24.9531H120.497V24.5C120.487 23.1042 120.133 22.0938 119.435 21.4688C118.737 20.8333 117.622 20.5156 116.091 20.5156C115.112 20.5156 114.122 20.6562 113.122 20.9375C112.122 21.2188 111.149 21.6302 110.201 22.1719V19.2969C111.263 18.8906 112.279 18.5885 113.247 18.3906C114.227 18.1823 115.175 18.0781 116.091 18.0781C117.539 18.0781 118.774 18.2917 119.794 18.7188C120.826 19.1458 121.659 19.7865 122.294 20.6406C122.69 21.1615 122.971 21.8073 123.138 22.5781C123.305 23.3385 123.388 24.4844 123.388 26.0156ZM141.104 25.1562V36H138.214V25.1562C138.214 23.5833 137.938 22.4271 137.386 21.6875C136.834 20.9479 135.969 20.5781 134.792 20.5781C133.448 20.5781 132.412 21.0573 131.682 22.0156C130.964 22.9635 130.604 24.3281 130.604 26.1094V36H127.729V18.5H130.604V21.125C131.115 20.125 131.807 19.3698 132.682 18.8594C133.557 18.3385 134.594 18.0781 135.792 18.0781C137.573 18.0781 138.901 18.6667 139.776 19.8438C140.662 21.0104 141.104 22.7812 141.104 25.1562ZM155.93 20.7344V11.6875H158.805V36H155.93V33.7969C155.451 34.6615 154.81 35.3229 154.008 35.7812C153.216 36.2292 152.3 36.4531 151.258 36.4531C149.144 36.4531 147.477 35.6354 146.258 34C145.05 32.3542 144.446 30.0885 144.446 27.2031C144.446 24.3594 145.055 22.1302 146.274 20.5156C147.493 18.8906 149.154 18.0781 151.258 18.0781C152.31 18.0781 153.237 18.3073 154.039 18.7656C154.841 19.2135 155.472 19.8698 155.93 20.7344ZM147.477 27.2656C147.477 29.4948 147.831 31.1771 148.539 32.3125C149.248 33.4479 150.295 34.0156 151.68 34.0156C153.065 34.0156 154.118 33.4427 154.836 32.2969C155.565 31.151 155.93 29.474 155.93 27.2656C155.93 25.0469 155.565 23.3698 154.836 22.2344C154.118 21.0885 153.065 20.5156 151.68 20.5156C150.295 20.5156 149.248 21.0833 148.539 22.2188C147.831 23.3542 147.477 25.0365 147.477 27.2656ZM169.99 20.5156C168.532 20.5156 167.427 21.0833 166.677 22.2188C165.927 23.3542 165.552 25.0365 165.552 27.2656C165.552 29.4844 165.927 31.1667 166.677 32.3125C167.427 33.4479 168.532 34.0156 169.99 34.0156C171.459 34.0156 172.568 33.4479 173.318 32.3125C174.068 31.1667 174.443 29.4844 174.443 27.2656C174.443 25.0365 174.068 23.3542 173.318 22.2188C172.568 21.0833 171.459 20.5156 169.99 20.5156ZM169.99 18.0781C172.417 18.0781 174.271 18.8646 175.552 20.4375C176.844 22.0104 177.49 24.2865 177.49 27.2656C177.49 30.2552 176.849 32.5365 175.568 34.1094C174.287 35.6719 172.427 36.4531 169.99 36.4531C167.563 36.4531 165.709 35.6719 164.427 34.1094C163.146 32.5365 162.506 30.2552 162.506 27.2656C162.506 24.2865 163.146 22.0104 164.427 20.4375C165.709 18.8646 167.563 18.0781 169.99 18.0781Z" fill="#FF6900"/>
</svg>
