<svg width="1080" height="1080" viewBox="0 0 1080 1080" fill="none" xmlns="http://www.w3.org/2000/svg">
<rect width="1080" height="1080" fill="#1A508C"/>
<g opacity="0.7" clip-path="url(#clip0_631_1654)">
<path d="M933.9 506.83C945.56 497.19 957 487.73 968.45 478.26C960.72 477.13 953.45 477.05 946.19 477.21C945.01 477.23 943.7 478.09 942.69 478.87C934.02 485.63 925.42 492.46 916.78 499.26C912.85 502.36 908.89 505.42 904.08 509.18C909.59 483.25 914.82 458.62 920.24 433.09C908.63 433.09 897.84 433.24 887.05 433.01C883.2 432.93 881.99 434.46 881.26 438.01C875.15 467.79 868.84 497.52 862.61 527.27C860.71 536.32 858.87 545.38 856.84 555.2C866.89 555.2 876.18 555.26 885.47 555.18C896.03 555.09 893.73 556.46 895.94 546.39C897.8 537.93 899.59 529.45 901.66 519.8C907.41 531.06 912.67 541.05 917.6 551.21C919.06 554.21 920.83 555.32 924.12 555.26C934.28 555.07 944.45 555.19 954.61 555.15C956.32 555.15 958.03 554.98 960.57 554.85C951.39 538.33 942.7 522.68 933.89 506.83H933.9ZM502.55 551.26C511.64 552.98 519.86 555.04 528.2 556C541.5 557.52 554.82 557.01 567.75 553.09C580.11 549.34 586.93 540.57 586.77 529.24C586.62 518.48 580.83 512.06 567.68 508.19C562.91 506.78 558.04 505.66 553.33 504.08C550.26 503.05 547.75 501.31 547.66 497.37C547.58 493.37 549.36 490.72 552.66 488.88C556.87 486.53 560.2 487.96 561.21 492.73C561.71 495.1 561.64 497.59 561.87 500.52C565.29 500.52 568.41 500.53 571.54 500.52C585.08 500.46 584.72 500.36 588.23 487.39C589.68 482.02 587.82 480.26 583.35 478.93C566.53 473.93 549.67 473.31 532.76 478.31C525.2 480.55 518.6 484.42 514.66 491.48C507.12 504.98 513.32 519.38 528.13 523.94C534.11 525.78 540.02 528.05 545.66 530.76C549.49 532.61 549.5 536.24 547.52 539.78C545.31 543.73 541.58 544.38 537.62 543.89C533.5 543.38 531.79 540.64 531.59 536.6C531.48 534.34 532.3 531.31 528.15 531.41C521.99 531.57 515.82 531.32 509.67 531.59C508.51 531.64 506.72 533.1 506.4 534.23C505 539.32 504.03 544.53 502.58 551.24L502.55 551.26ZM850.58 524.57C842.63 524.57 835.51 524.66 828.39 524.53C825.45 524.48 824.45 525.71 823.1 528.38C820.62 533.28 817.55 538.28 813.52 541.9C809.14 545.82 804.32 543.36 803.83 537.42C803.41 532.32 803.36 527.09 803.99 522.01C805.36 510.87 807.77 499.87 815.82 491.4C817.64 489.49 821.5 488.34 824.09 488.79C825.59 489.05 827.07 493.12 827.38 495.62C827.91 499.96 827.53 504.42 827.53 509.22C831.81 509.22 835.28 509.22 838.76 509.22C847.693 509.22 853.157 504.786 855.15 495.92C855.33 495.11 855.64 494.33 855.82 493.52C857.7 484.65 856.92 482.97 848.68 478.82C847.07 478.01 845.27 477.26 843.51 477.13C833.75 476.41 823.94 475 814.23 475.46C786.85 476.75 770.17 491.45 766.99 517.05C764.82 534.53 772.3 548.85 790.23 553.94C807.69 558.9 825.15 557.16 842.3 551.74C843.58 551.34 845.35 550.24 845.59 549.17C847.39 541.29 848.87 533.33 850.61 524.58L850.58 524.57ZM236.29 477.28C236.47 479.46 236.5 481.26 236.78 483.03C240.35 505.51 244.01 527.98 247.51 550.47C248.03 553.81 249.22 555.36 252.9 555.28C262.56 555.07 272.23 555.11 281.89 555.3C285.36 555.37 287.18 554.11 288.78 551.01C299.05 531.22 309.55 511.56 319.97 491.85C322.42 487.21 324.81 482.55 327.64 477.12C321.62 477.12 316.5 476.82 311.46 477.28C309.62 477.44 307.26 478.99 306.33 480.6C303.17 486.06 300.53 491.82 297.71 497.48C292.64 507.66 287.59 517.84 282.03 529.03C279.53 511.04 277.2 494.29 274.84 477.29H236.3L236.29 477.28ZM611.78 489.73C610.71 495.06 609.74 499.57 608.91 504.1C606.94 514.88 604.51 525.6 603.27 536.47C601.97 547.84 607.27 554.55 618.6 555.58C627.97 556.43 637.5 555.69 646.95 555.46C647.96 555.44 649.57 554.34 649.84 553.43C650.9 549.88 651.54 546.21 652.35 542.49C649.4 542.1 647.27 541.69 645.12 541.55C641.03 541.3 639.33 539.03 640.08 535.24C643.07 520.12 646.22 505.04 649.37 489.64H663.5C664.39 485.37 665.21 481.45 666.17 476.84H652.24C653.89 468.68 655.42 461.14 657.15 452.62C651.15 452.62 646.02 452.44 640.91 452.73C639.32 452.82 637.27 453.76 636.33 455C627.95 466.03 617.3 473.43 603.64 476.35C602.49 476.6 600.84 477.44 600.57 478.35C599.52 481.9 598.94 485.58 598.07 489.74H611.79L611.78 489.73ZM463.27 477.02C454.8 477.02 446.66 477.23 438.54 476.93C434.7 476.79 433.06 477.81 432.28 481.81C428.88 499.25 425.1 516.61 421.45 534C420.03 540.77 418.6 547.54 416.99 555.17C428.56 555.17 439.32 555.06 450.08 555.24C453.41 555.3 454.6 554.17 455.26 550.89C458.31 535.76 461.73 520.7 464.93 505.59C466.1 500.06 469.25 496.47 473.51 496.95C478.73 497.53 479.01 502 479.61 505.95C480.13 509.36 480.48 512.79 480.97 516.74C486.91 516.74 492.71 516.93 498.47 516.58C499.61 516.51 501.26 514.49 501.58 513.12C503.88 503.26 505.7 493.29 508.1 483.47C508.98 479.88 507.93 478.41 504.76 477.13C492.77 472.3 478.59 475.92 470.01 486.22C468.91 487.55 467.81 488.88 466.3 490.7C465.22 485.83 464.33 481.82 463.27 477.04V477.02Z" fill="url(#paint0_linear_631_1654)"/>
<path d="M112 509.85C112.39 494.42 115.24 479.7 123.45 466.44C135.04 447.73 152.58 439.36 174.01 438.43C180.78 438.14 187.67 438.34 194.38 439.21C213.23 441.64 224.82 453.24 227.67 472.31C230.63 492.13 226.37 510.68 216.94 528.13C206.7 547.09 190.04 555.74 169.14 556.34C159.57 556.62 149.78 556.05 140.38 554.31C125.48 551.56 115.9 540.71 113.59 525.72C112.78 520.48 112.52 515.15 112 509.86L112 509.85ZM188.26 466.29C188.07 464.48 187.89 461.49 187.41 458.54C186.25 451.51 180.38 449.03 175.11 453.82C171.5 457.1 168.32 461.21 166.04 465.52C158.16 480.41 154.75 496.69 153.03 513.27C152.28 520.48 152.46 527.89 153.19 535.11C153.47 537.88 156 541.8 158.37 542.58C160.77 543.37 164.81 541.61 167.08 539.71C169.9 537.35 172.09 533.93 173.79 530.58C183.84 510.77 187.26 489.39 188.26 466.3V466.29Z" fill="url(#paint1_linear_631_1654)"/>
<path d="M735.43 476.48C749.88 479.2 758.17 487.65 759.59 502.41C762.16 529.04 751.01 551.96 718.66 555.45C708.4 556.56 697.68 556.04 687.48 554.37C672.68 551.95 663.98 539.97 663.44 524.85C662.89 509.52 666.96 496.27 679.04 486.1C688.17 478.41 699.14 476.15 710.57 475.26C713.05 475.07 715.56 475.23 718.06 475.23C718.08 475.01 729.73 475.41 735.41 476.48H735.43ZM723.24 501.55C723.37 500.98 723.41 500.4 723.35 499.82C723.21 498.57 722.84 497.2 722.48 496.15C721.53 493.39 721.58 489.89 718.85 489.12C715.85 488.38 712.42 490.22 710.64 492.44C707.92 495.83 705.96 500.1 704.65 504.3C701.18 515.42 698.52 526.79 700.87 538.54C701.95 543.94 707.12 545.41 710.98 541.43C713.34 539 715.63 535.91 716.49 532.72C719.24 522.46 720.94 511.93 723.25 501.55H723.24Z" fill="url(#paint2_linear_631_1654)"/>
<path d="M409.46 528.26C407.84 534.85 406.57 540.83 404.79 546.65C404.36 548.07 402.41 549.42 400.86 550.04C381.68 557.64 362.01 559.15 342.24 553.06C330.18 549.34 322.95 538.36 322.49 525.73C321.83 507.9 326.83 492.85 342.93 483.09C350.8 478.32 359.59 476.04 368.56 475.62C377.98 475.18 387.63 475.23 396.89 476.76C413.37 479.49 419.81 491.3 415.37 508.42C415.24 508.9 415.08 509.38 414.94 509.85C413.174 515.777 409.184 518.74 402.97 518.74C390.14 518.74 377.3 518.84 364.47 518.67C361.11 518.62 359.54 519.55 359.63 523.06C359.76 528.18 359.17 533.38 359.84 538.42C360.5 543.48 364.57 545.28 368.58 542.09C372.36 539.08 375.1 534.76 378.35 531.06C379.24 530.05 380.29 528.41 381.3 528.38C390.42 528.17 399.55 528.26 409.47 528.26H409.46ZM362.56 510.09C367.89 510.09 372.65 510.09 377.41 510.09C378.24 510.09 379.18 510.35 379.87 510.04C380.8 509.62 382.16 508.83 382.24 508.08C382.77 503.33 383.6 498.49 383.16 493.78C382.62 488.1 377.34 486.07 372.95 489.74C366.89 494.81 364.21 501.85 362.56 510.09Z" fill="url(#paint3_linear_631_1654)"/>
</g>
<g clip-path="url(#clip1_631_1654)">
<path d="M933.9 555.83C945.56 546.19 957 536.73 968.45 527.26C960.72 526.13 953.45 526.05 946.19 526.21C945.01 526.23 943.7 527.09 942.69 527.87C934.02 534.63 925.42 541.46 916.78 548.26C912.85 551.36 908.89 554.42 904.08 558.18C909.59 532.25 914.82 507.62 920.24 482.09C908.63 482.09 897.84 482.24 887.05 482.01C883.2 481.93 881.99 483.46 881.26 487.01C875.15 516.79 868.84 546.52 862.61 576.27C860.71 585.32 858.87 594.38 856.84 604.2C866.89 604.2 876.18 604.26 885.47 604.18C896.03 604.09 893.73 605.46 895.94 595.39C897.8 586.93 899.59 578.45 901.66 568.8C907.41 580.06 912.67 590.05 917.6 600.21C919.06 603.21 920.83 604.32 924.12 604.26C934.28 604.07 944.45 604.19 954.61 604.15C956.32 604.15 958.03 603.98 960.57 603.85C951.39 587.33 942.7 571.68 933.89 555.83H933.9ZM502.55 600.26C511.64 601.98 519.86 604.04 528.2 605C541.5 606.52 554.82 606.01 567.75 602.09C580.11 598.34 586.93 589.57 586.77 578.24C586.62 567.48 580.83 561.06 567.68 557.19C562.91 555.78 558.04 554.66 553.33 553.08C550.26 552.05 547.75 550.31 547.66 546.37C547.58 542.37 549.36 539.72 552.66 537.88C556.87 535.53 560.2 536.96 561.21 541.73C561.71 544.1 561.64 546.59 561.87 549.52C565.29 549.52 568.41 549.53 571.54 549.52C585.08 549.46 584.72 549.36 588.23 536.39C589.68 531.02 587.82 529.26 583.35 527.93C566.53 522.93 549.67 522.31 532.76 527.31C525.2 529.55 518.6 533.42 514.66 540.48C507.12 553.98 513.32 568.38 528.13 572.94C534.11 574.78 540.02 577.05 545.66 579.76C549.49 581.61 549.5 585.24 547.52 588.78C545.31 592.73 541.58 593.38 537.62 592.89C533.5 592.38 531.79 589.64 531.59 585.6C531.48 583.34 532.3 580.31 528.15 580.41C521.99 580.57 515.82 580.32 509.67 580.59C508.51 580.64 506.72 582.1 506.4 583.23C505 588.32 504.03 593.53 502.58 600.24L502.55 600.26ZM850.58 573.57C842.63 573.57 835.51 573.66 828.39 573.53C825.45 573.48 824.45 574.71 823.1 577.38C820.62 582.28 817.55 587.28 813.52 590.9C809.14 594.82 804.32 592.36 803.83 586.42C803.41 581.32 803.36 576.09 803.99 571.01C805.36 559.87 807.77 548.87 815.82 540.4C817.64 538.49 821.5 537.34 824.09 537.79C825.59 538.05 827.07 542.12 827.38 544.62C827.91 548.96 827.53 553.42 827.53 558.22C831.81 558.22 835.28 558.22 838.76 558.22C847.693 558.22 853.157 553.786 855.15 544.92C855.33 544.11 855.64 543.33 855.82 542.52C857.7 533.65 856.92 531.97 848.68 527.82C847.07 527.01 845.27 526.26 843.51 526.13C833.75 525.41 823.94 524 814.23 524.46C786.85 525.75 770.17 540.45 766.99 566.05C764.82 583.53 772.3 597.85 790.23 602.94C807.69 607.9 825.15 606.16 842.3 600.74C843.58 600.34 845.35 599.24 845.59 598.17C847.39 590.29 848.87 582.33 850.61 573.58L850.58 573.57ZM236.29 526.28C236.47 528.46 236.5 530.26 236.78 532.03C240.35 554.51 244.01 576.98 247.51 599.47C248.03 602.81 249.22 604.36 252.9 604.28C262.56 604.07 272.23 604.11 281.89 604.3C285.36 604.37 287.18 603.11 288.78 600.01C299.05 580.22 309.55 560.56 319.97 540.85C322.42 536.21 324.81 531.55 327.64 526.12C321.62 526.12 316.5 525.82 311.46 526.28C309.62 526.44 307.26 527.99 306.33 529.6C303.17 535.06 300.53 540.82 297.71 546.48C292.64 556.66 287.59 566.84 282.03 578.03C279.53 560.04 277.2 543.29 274.84 526.29H236.3L236.29 526.28ZM611.78 538.73C610.71 544.06 609.74 548.57 608.91 553.1C606.94 563.88 604.51 574.6 603.27 585.47C601.97 596.84 607.27 603.55 618.6 604.58C627.97 605.43 637.5 604.69 646.95 604.46C647.96 604.44 649.57 603.34 649.84 602.43C650.9 598.88 651.54 595.21 652.35 591.49C649.4 591.1 647.27 590.69 645.12 590.55C641.03 590.3 639.33 588.03 640.08 584.24C643.07 569.12 646.22 554.04 649.37 538.64H663.5C664.39 534.37 665.21 530.45 666.17 525.84H652.24C653.89 517.68 655.42 510.14 657.15 501.62C651.15 501.62 646.02 501.44 640.91 501.73C639.32 501.82 637.27 502.76 636.33 504C627.95 515.03 617.3 522.43 603.64 525.35C602.49 525.6 600.84 526.44 600.57 527.35C599.52 530.9 598.94 534.58 598.07 538.74H611.79L611.78 538.73ZM463.27 526.02C454.8 526.02 446.66 526.23 438.54 525.93C434.7 525.79 433.06 526.81 432.28 530.81C428.88 548.25 425.1 565.61 421.45 583C420.03 589.77 418.6 596.54 416.99 604.17C428.56 604.17 439.32 604.06 450.08 604.24C453.41 604.3 454.6 603.17 455.26 599.89C458.31 584.76 461.73 569.7 464.93 554.59C466.1 549.06 469.25 545.47 473.51 545.95C478.73 546.53 479.01 551 479.61 554.95C480.13 558.36 480.48 561.79 480.97 565.74C486.91 565.74 492.71 565.93 498.47 565.58C499.61 565.51 501.26 563.49 501.58 562.12C503.88 552.26 505.7 542.29 508.1 532.47C508.98 528.88 507.93 527.41 504.76 526.13C492.77 521.3 478.59 524.92 470.01 535.22C468.91 536.55 467.81 537.88 466.3 539.7C465.22 534.83 464.33 530.82 463.27 526.04V526.02Z" fill="black"/>
<path d="M112 558.85C112.39 543.42 115.24 528.7 123.45 515.44C135.04 496.73 152.58 488.36 174.01 487.43C180.78 487.14 187.67 487.34 194.38 488.21C213.23 490.64 224.82 502.24 227.67 521.31C230.63 541.13 226.37 559.68 216.94 577.13C206.7 596.09 190.04 604.74 169.14 605.34C159.57 605.62 149.78 605.05 140.38 603.31C125.48 600.56 115.9 589.71 113.59 574.72C112.78 569.48 112.52 564.15 112 558.86L112 558.85ZM188.26 515.29C188.07 513.48 187.89 510.49 187.41 507.54C186.25 500.51 180.38 498.03 175.11 502.82C171.5 506.1 168.32 510.21 166.04 514.52C158.16 529.41 154.75 545.69 153.03 562.27C152.28 569.48 152.46 576.89 153.19 584.11C153.47 586.88 156 590.8 158.37 591.58C160.77 592.37 164.81 590.61 167.08 588.71C169.9 586.35 172.09 582.93 173.79 579.58C183.84 559.77 187.26 538.39 188.26 515.3V515.29Z" fill="white"/>
<path d="M933.9 555.83C942.7 571.68 951.4 587.33 960.58 603.85C958.04 603.98 956.33 604.15 954.62 604.15C944.46 604.18 934.29 604.07 924.13 604.26C920.84 604.32 919.07 603.21 917.61 600.21C912.68 590.06 907.42 580.06 901.67 568.8C899.6 578.45 897.81 586.93 895.95 595.39C893.74 605.46 896.05 604.08 885.48 604.18C876.19 604.26 866.91 604.2 856.85 604.2C858.88 594.38 860.72 585.32 862.62 576.27C868.85 546.52 875.16 516.79 881.27 487.01C882 483.46 883.2 481.92 887.06 482.01C897.85 482.25 908.65 482.09 920.25 482.09C914.83 507.61 909.6 532.25 904.09 558.18C908.9 554.43 912.86 551.36 916.79 548.26C925.43 541.46 934.03 534.63 942.7 527.87C943.71 527.09 945.01 526.23 946.2 526.21C953.46 526.06 960.72 526.13 968.46 527.26C957.02 536.73 945.57 546.19 933.91 555.83H933.9Z" fill="white"/>
<path d="M735.43 525.48C749.88 528.2 758.17 536.65 759.59 551.41C762.16 578.04 751.01 600.96 718.66 604.45C708.4 605.56 697.68 605.04 687.48 603.37C672.68 600.95 663.98 588.97 663.44 573.85C662.89 558.52 666.96 545.27 679.04 535.1C688.17 527.41 699.14 525.15 710.57 524.26C713.05 524.07 715.56 524.23 718.06 524.23C718.08 524.01 729.73 524.41 735.41 525.48H735.43ZM723.24 550.55C723.37 549.98 723.41 549.4 723.35 548.82C723.21 547.57 722.84 546.2 722.48 545.15C721.53 542.39 721.58 538.89 718.85 538.12C715.85 537.38 712.42 539.22 710.64 541.44C707.92 544.83 705.96 549.1 704.65 553.3C701.18 564.42 698.52 575.79 700.87 587.54C701.95 592.94 707.12 594.41 710.98 590.43C713.34 588 715.63 584.91 716.49 581.72C719.24 571.46 720.94 560.93 723.25 550.55H723.24Z" fill="white"/>
<path d="M409.46 577.26C407.84 583.85 406.57 589.83 404.79 595.65C404.36 597.07 402.41 598.42 400.86 599.04C381.68 606.64 362.01 608.15 342.24 602.06C330.18 598.34 322.95 587.36 322.49 574.73C321.83 556.9 326.83 541.85 342.93 532.09C350.8 527.32 359.59 525.04 368.56 524.62C377.98 524.18 387.63 524.23 396.89 525.76C413.37 528.49 419.81 540.3 415.37 557.42C415.24 557.9 415.08 558.38 414.94 558.85C413.174 564.777 409.184 567.74 402.97 567.74C390.14 567.74 377.3 567.84 364.47 567.67C361.11 567.62 359.54 568.55 359.63 572.06C359.76 577.18 359.17 582.38 359.84 587.42C360.5 592.48 364.57 594.28 368.58 591.09C372.36 588.08 375.1 583.76 378.35 580.06C379.24 579.05 380.29 577.41 381.3 577.38C390.42 577.17 399.55 577.26 409.47 577.26H409.46ZM362.56 559.09C367.89 559.09 372.65 559.09 377.41 559.09C378.24 559.09 379.18 559.35 379.87 559.04C380.8 558.62 382.16 557.83 382.24 557.08C382.77 552.33 383.6 547.49 383.16 542.78C382.62 537.1 377.34 535.07 372.95 538.74C366.89 543.81 364.21 550.85 362.56 559.09Z" fill="white"/>
<path d="M502.55 600.26C504.01 593.55 504.98 588.34 506.37 583.25C506.68 582.12 508.47 580.66 509.64 580.61C515.79 580.34 521.96 580.59 528.12 580.43C532.28 580.32 531.45 583.36 531.56 585.62C531.76 589.65 533.47 592.39 537.59 592.91C541.56 593.4 545.28 592.75 547.49 588.8C549.47 585.26 549.47 581.63 545.63 579.78C540 577.06 534.09 574.8 528.1 572.96C513.3 568.4 507.09 554 514.63 540.5C518.57 533.44 525.17 529.56 532.73 527.33C549.64 522.33 566.5 522.95 583.32 527.95C587.79 529.28 589.65 531.04 588.2 536.41C584.69 549.38 585.05 549.48 571.51 549.54C568.39 549.55 565.26 549.54 561.84 549.54C561.61 546.62 561.68 544.13 561.18 541.75C560.18 536.98 556.85 535.55 552.63 537.9C549.33 539.74 547.54 542.4 547.63 546.39C547.71 550.33 550.22 552.07 553.3 553.1C558.01 554.67 562.88 555.8 567.65 557.21C580.8 561.09 586.59 567.5 586.74 578.26C586.89 589.58 580.08 598.36 567.72 602.11C554.79 606.03 541.47 606.54 528.17 605.02C519.83 604.07 511.62 602 502.52 600.28L502.55 600.26Z" fill="white"/>
<path d="M850.58 573.56C848.84 582.31 847.37 590.26 845.56 598.15C845.31 599.22 843.55 600.32 842.27 600.72C825.12 606.13 807.66 607.88 790.2 602.92C772.27 597.82 764.78 583.5 766.96 566.03C770.14 540.43 786.83 525.73 814.2 524.44C823.92 523.98 833.73 525.39 843.48 526.11C845.24 526.24 847.04 526.99 848.65 527.8C856.88 531.95 857.66 533.63 855.79 542.5C855.62 543.31 855.31 544.09 855.12 544.9C853.127 553.773 847.664 558.207 838.73 558.2C835.26 558.2 831.79 558.2 827.5 558.2C827.5 553.4 827.88 548.94 827.35 544.6C827.04 542.1 825.55 538.03 824.06 537.77C821.48 537.32 817.61 538.47 815.79 540.38C807.74 548.85 805.33 559.84 803.96 570.99C803.34 576.06 803.38 581.29 803.8 586.4C804.29 592.34 809.12 594.8 813.49 590.88C817.52 587.27 820.59 582.26 823.07 577.36C824.42 574.69 825.43 573.46 828.36 573.51C835.48 573.64 842.6 573.55 850.55 573.55L850.58 573.56Z" fill="white"/>
<path d="M236.29 526.28H274.83C277.19 543.27 279.52 560.03 282.02 578.02C287.58 566.84 292.63 556.65 297.7 546.47C300.52 540.81 303.16 535.05 306.32 529.59C307.25 527.98 309.62 526.44 311.45 526.27C316.5 525.82 321.61 526.11 327.63 526.11C324.81 531.54 322.41 536.2 319.96 540.84C309.55 560.55 299.04 580.21 288.77 600C287.16 603.09 285.34 604.36 281.88 604.29C272.22 604.09 262.55 604.05 252.89 604.27C249.21 604.35 248.02 602.8 247.5 599.46C243.99 576.97 240.34 554.5 236.77 532.02C236.49 530.26 236.46 528.46 236.28 526.27L236.29 526.28Z" fill="white"/>
<path d="M611.79 538.72H598.07C598.94 534.56 599.52 530.88 600.57 527.33C600.84 526.42 602.49 525.57 603.64 525.33C617.3 522.41 627.95 515.01 636.33 503.98C637.27 502.74 639.32 501.8 640.91 501.71C646.02 501.42 651.15 501.6 657.15 501.6C655.42 510.12 653.9 517.66 652.24 525.82H666.17C665.21 530.43 664.39 534.35 663.5 538.62H649.37C646.22 554.02 643.07 569.1 640.08 584.22C639.33 588.01 641.03 590.28 645.12 590.53C647.27 590.66 649.4 591.07 652.35 591.47C651.54 595.19 650.9 598.86 649.84 602.41C649.57 603.32 647.97 604.42 646.95 604.44C637.5 604.66 627.97 605.41 618.6 604.56C607.27 603.53 601.97 596.82 603.27 585.45C604.51 574.59 606.94 563.86 608.91 553.08C609.74 548.54 610.71 544.03 611.78 538.71L611.79 538.72Z" fill="white"/>
<path d="M463.28 526.01C464.34 530.79 465.23 534.8 466.31 539.67C467.82 537.85 468.92 536.52 470.02 535.19C478.59 524.89 492.77 521.27 504.77 526.1C507.95 527.38 508.99 528.85 508.11 532.44C505.71 542.27 503.89 552.24 501.59 562.09C501.27 563.47 499.61 565.48 498.48 565.55C492.72 565.9 486.92 565.71 480.98 565.71C480.49 561.77 480.13 558.33 479.62 554.92C479.02 550.97 478.74 546.5 473.52 545.92C469.26 545.44 466.11 549.04 464.94 554.56C461.73 569.66 458.32 584.72 455.27 599.86C454.61 603.14 453.42 604.26 450.09 604.21C439.33 604.03 428.57 604.14 417 604.14C418.61 596.5 420.04 589.74 421.46 582.97C425.11 565.58 428.89 548.22 432.29 530.78C433.07 526.78 434.71 525.76 438.55 525.9C446.67 526.19 454.82 525.99 463.28 525.99V526.01Z" fill="white"/>
</g>
<defs>
<linearGradient id="paint0_linear_631_1654" x1="602.37" y1="433.007" x2="602.37" y2="556.87" gradientUnits="userSpaceOnUse">
<stop stop-color="#42719F"/>
<stop offset="1" stop-color="#1A508C"/>
</linearGradient>
<linearGradient id="paint1_linear_631_1654" x1="170.299" y1="438.306" x2="170.299" y2="556.408" gradientUnits="userSpaceOnUse">
<stop stop-color="#406EA0"/>
<stop offset="1" stop-color="#1A508C"/>
</linearGradient>
<linearGradient id="paint2_linear_631_1654" x1="711.668" y1="475.167" x2="711.668" y2="556.037" gradientUnits="userSpaceOnUse">
<stop stop-color="#406EA0"/>
<stop offset="1" stop-color="#1A508C"/>
</linearGradient>
<linearGradient id="paint3_linear_631_1654" x1="369.585" y1="475.38" x2="369.585" y2="556.823" gradientUnits="userSpaceOnUse">
<stop stop-color="#406EA0"/>
<stop offset="1" stop-color="#1A508C"/>
</linearGradient>
<clipPath id="clip0_631_1654">
<rect width="856.44" height="123.85" fill="white" transform="translate(112 433)"/>
</clipPath>
<clipPath id="clip1_631_1654">
<rect width="856.44" height="123.85" fill="white" transform="translate(112 482)"/>
</clipPath>
</defs>
</svg>
