<?xml version="1.0" standalone="no"?><!DOCTYPE svg PUBLIC "-//W3C//DTD SVG 1.1//EN" "http://www.w3.org/Graphics/SVG/1.1/DTD/svg11.dtd"><svg t="1696862070768" class="icon" viewBox="0 0 1024 1024" version="1.1" xmlns="http://www.w3.org/2000/svg" p-id="3790" xmlns:xlink="http://www.w3.org/1999/xlink" width="200" height="200"><path d="M420.47737383 464.40823442l96.09875747 374.32754099 365.17527844-374.32754099z" fill="#7DD6EA" p-id="3791"></path><path d="M943.98679553 417.73169505H414.98601627c-10.06748889 0-17.38929897-8.23703635-17.38929899-17.38929896 0-10.06748889 8.23703635-17.38929897 17.38929899-17.38929898h482.3242399l-210.50204016-188.53660992H337.19178399l-210.50204016 188.53660992h144.60574933c10.06748889 0 17.38929897 8.23703635 17.38929899 17.38929898 0 10.06748889-8.23703635 17.38929897-17.38929899 17.38929896H80.01320447c-7.3218101 0-13.72839391-4.5761313-16.47407273-11.89794142-2.74567878-7.3218101-0.91522626-14.64362017 4.57613131-19.21975149l249.85676947-224.23043412c3.66090506-2.74567878 7.3218101-4.5761313 11.8979414-4.57613132h363.3448259c4.5761313 0 8.23703635 1.83045253 11.89794141 4.57613132l249.85676944 224.23043412c5.49135757 4.5761313 7.3218101 12.81316766 4.57613131 19.21975149-1.83045253 7.3218101-8.23703635 11.8979414-15.55884645 11.89794142z" fill="#256782" p-id="3792"></path><path d="M512 866.1925633c-4.5761313 0-9.15226261-1.83045253-12.81316766-5.49135758-4.5761313-4.5761313-412.76704403-429.24111674-431.07156929-448.46086825-7.3218101-7.3218101-7.3218101-18.30452524 0-25.62633533 7.3218101-7.3218101 18.30452524-7.3218101 25.62633536 0 17.38929897 17.38929897 347.78597947 361.51437339 419.17362785 435.64770057l419.17362787-434.73247429c6.40658382-7.3218101 18.30452524-7.3218101 25.62633533-0.91522628 7.3218101 6.40658382 7.3218101 18.30452524 0.91522627 25.62633533l-431.98679556 448.46086825c-5.49135757 3.66090506-10.06748889 5.49135757-14.64362017 5.49135758z" fill="#256782" p-id="3793"></path><path d="M512 866.1925633c-6.40658382 0-12.81316766-3.66090506-15.55884645-9.15226262l-243.45018562-448.46086825c-1.83045253-3.66090506-2.74567878-9.15226261-1.83045253-12.81316765l62.23538581-224.23043416c2.74567878-9.15226261 12.81316766-14.64362017 21.96543028-12.81316767 9.15226261 2.74567878 14.64362017 12.81316766 12.81316766 21.9654303l-60.40493327 216.90862403 240.70450682 442.05428442c4.5761313 8.23703635 1.83045253 19.21975149-7.32181009 23.7958828-3.66090506 1.83045253-6.40658382 2.74567878-9.15226261 2.7456788z" fill="#256782" p-id="3794"></path><path d="M512 866.1925633c-2.74567878 0-5.49135757-0.91522626-8.23703635-1.83045253-8.23703635-4.5761313-11.8979414-15.55884645-7.3218101-23.7958828l240.70450682-442.05428442-60.40493326-217.8238503c-2.74567878-9.15226261 2.74567878-19.21975149 12.81316766-21.9654303 9.15226261-2.74567878 19.21975149 2.74567878 21.96543029 12.81316767l62.23538579 224.23043416c0.91522626 4.5761313 0.91522626 9.15226261-1.83045252 12.81316765l-243.45018563 448.46086825c-3.66090506 5.49135757-10.06748889 9.15226261-16.4740727 9.15226262z" fill="#256782" p-id="3795"></path></svg>