<svg width="1024" height="1024" viewBox="0 0 1024 1024" fill="none" xmlns="http://www.w3.org/2000/svg">
<path d="M134.345 543.084V447.953H199.561V464.046H153.553V486.564H193.267V502.657H153.553V543.084H134.345ZM228.957 495.194L212.41 492.209C214.27 485.547 217.471 480.615 222.014 477.414C226.556 474.213 233.305 472.612 242.26 472.612C250.393 472.612 256.45 473.585 260.43 475.532C264.41 477.436 267.2 479.88 268.801 482.865C270.445 485.807 271.266 491.236 271.266 499.153L271.072 520.437C271.072 526.494 271.353 530.971 271.915 533.87C272.521 536.725 273.624 539.797 275.225 543.084H257.185C256.709 541.873 256.125 540.078 255.433 537.698C255.13 536.617 254.914 535.903 254.784 535.557C251.669 538.585 248.338 540.857 244.791 542.371C241.243 543.885 237.458 544.642 233.435 544.642C226.34 544.642 220.737 542.717 216.628 538.867C212.561 535.016 210.528 530.149 210.528 524.266C210.528 520.372 211.458 516.911 213.318 513.883C215.178 510.812 217.774 508.476 221.105 506.875C224.479 505.231 229.325 503.803 235.641 502.592C244.163 500.991 250.069 499.499 253.356 498.114V496.297C253.356 492.793 252.491 490.306 250.761 488.835C249.03 487.321 245.764 486.564 240.962 486.564C237.717 486.564 235.187 487.213 233.37 488.51C231.553 489.765 230.082 491.993 228.957 495.194ZM253.356 509.99C251.02 510.768 247.321 511.698 242.26 512.78C237.198 513.862 233.889 514.921 232.331 515.96C229.952 517.647 228.762 519.788 228.762 522.384C228.762 524.936 229.714 527.143 231.618 529.003C233.521 530.863 235.944 531.793 238.885 531.793C242.173 531.793 245.31 530.712 248.295 528.549C250.501 526.905 251.95 524.893 252.643 522.514C253.118 520.956 253.356 517.993 253.356 513.624V509.99ZM287.944 474.169H304.751V483.579C310.764 476.268 317.924 472.612 326.23 472.612C330.642 472.612 334.471 473.52 337.716 475.337C340.96 477.154 343.621 479.901 345.697 483.579C348.726 479.901 351.992 477.154 355.496 475.337C359 473.52 362.742 472.612 366.722 472.612C371.784 472.612 376.067 473.65 379.571 475.727C383.075 477.76 385.692 480.767 387.423 484.747C388.677 487.688 389.305 492.447 389.305 499.023V543.084H371.07V503.695C371.07 496.86 370.443 492.447 369.188 490.457C367.501 487.862 364.905 486.564 361.401 486.564C358.849 486.564 356.448 487.342 354.198 488.9C351.949 490.457 350.326 492.75 349.331 495.778C348.336 498.763 347.839 503.5 347.839 509.99V543.084H329.604V505.317C329.604 498.612 329.28 494.286 328.631 492.339C327.982 490.392 326.965 488.943 325.581 487.991C324.24 487.04 322.401 486.564 320.065 486.564C317.253 486.564 314.722 487.321 312.473 488.835C310.223 490.349 308.601 492.534 307.606 495.389C306.654 498.244 306.178 502.981 306.178 509.6V543.084H287.944V474.169ZM407.539 464.825V447.953H425.774V464.825H407.539ZM407.539 543.084V474.169H425.774V543.084H407.539ZM444.528 543.084V447.953H462.762V543.084H444.528ZM472.885 474.169H492.288L508.77 523.098L524.864 474.169H543.747L519.413 540.489L515.065 552.494C513.464 556.517 511.929 559.589 510.458 561.708C509.03 563.828 507.365 565.537 505.461 566.835C503.601 568.176 501.286 569.214 498.518 569.95C495.792 570.685 492.699 571.053 489.238 571.053C485.734 571.053 482.295 570.685 478.92 569.95L477.298 555.673C480.153 556.236 482.727 556.517 485.02 556.517C489.26 556.517 492.396 555.263 494.429 552.753C496.463 550.287 498.02 547.129 499.102 543.279L472.885 474.169ZM586.057 523.422L604.356 520.632C605.135 524.179 606.714 526.883 609.093 528.743C611.473 530.56 614.804 531.469 619.087 531.469C623.802 531.469 627.349 530.604 629.729 528.873C631.329 527.662 632.13 526.04 632.13 524.006C632.13 522.622 631.697 521.476 630.832 520.567C629.924 519.702 627.89 518.901 624.732 518.166C610.023 514.921 600.701 511.958 596.764 509.276C591.313 505.555 588.587 500.386 588.587 493.767C588.587 487.797 590.945 482.778 595.661 478.712C600.376 474.645 607.687 472.612 617.594 472.612C627.025 472.612 634.033 474.148 638.619 477.219C643.205 480.291 646.363 484.833 648.093 490.847L630.897 494.026C630.161 491.344 628.755 489.289 626.679 487.862C624.646 486.434 621.726 485.72 617.919 485.72C613.117 485.72 609.677 486.391 607.601 487.732C606.216 488.684 605.524 489.916 605.524 491.431C605.524 492.728 606.13 493.832 607.341 494.74C608.985 495.951 614.652 497.66 624.343 499.867C634.077 502.073 640.869 504.777 644.719 507.978C648.526 511.223 650.429 515.743 650.429 521.54C650.429 527.857 647.79 533.286 642.513 537.828C637.235 542.371 629.426 544.642 619.087 544.642C609.699 544.642 602.258 542.738 596.764 538.931C591.313 535.124 587.744 529.955 586.057 523.422ZM684.627 447.953V482.93C690.511 476.051 697.541 472.612 705.717 472.612C709.913 472.612 713.699 473.391 717.073 474.948C720.448 476.505 722.978 478.495 724.666 480.918C726.396 483.341 727.564 486.023 728.17 488.965C728.819 491.906 729.143 496.471 729.143 502.657V543.084H710.908V506.68C710.908 499.456 710.562 494.87 709.87 492.923C709.178 490.976 707.945 489.441 706.171 488.316C704.441 487.148 702.256 486.564 699.617 486.564C696.589 486.564 693.885 487.299 691.506 488.77C689.126 490.241 687.374 492.469 686.25 495.454C685.168 498.396 684.627 502.765 684.627 508.562V543.084H666.393V447.953H684.627ZM743.484 507.654C743.484 501.597 744.977 495.735 747.962 490.068C750.947 484.401 755.165 480.075 760.616 477.09C766.11 474.104 772.231 472.612 778.98 472.612C789.406 472.612 797.95 476.008 804.612 482.8C811.275 489.549 814.606 498.093 814.606 508.432C814.606 518.858 811.231 527.51 804.483 534.389C797.777 541.224 789.319 544.642 779.11 544.642C772.794 544.642 766.759 543.214 761.005 540.359C755.295 537.504 750.947 533.329 747.962 527.835C744.977 522.297 743.484 515.57 743.484 507.654ZM762.173 508.627C762.173 515.462 763.795 520.697 767.04 524.331C770.285 527.965 774.286 529.782 779.045 529.782C783.804 529.782 787.784 527.965 790.985 524.331C794.23 520.697 795.852 515.419 795.852 508.497C795.852 501.748 794.23 496.557 790.985 492.923C787.784 489.289 783.804 487.472 779.045 487.472C774.286 487.472 770.285 489.289 767.04 492.923C763.795 496.557 762.173 501.792 762.173 508.627ZM828.428 474.169H845.429V484.292C847.636 480.832 850.621 478.02 854.384 475.857C858.148 473.693 862.323 472.612 866.908 472.612C874.912 472.612 881.704 475.748 887.284 482.021C892.865 488.294 895.655 497.033 895.655 508.238C895.655 519.745 892.843 528.7 887.22 535.103C881.596 541.462 874.782 544.642 866.779 544.642C862.972 544.642 859.511 543.885 856.396 542.371C853.324 540.857 850.08 538.261 846.662 534.584V569.301H828.428V474.169ZM846.467 507.459C846.467 515.203 848.003 520.935 851.075 524.655C854.146 528.332 857.888 530.171 862.301 530.171C866.541 530.171 870.066 528.484 872.878 525.109C875.69 521.692 877.096 516.111 877.096 508.367C877.096 501.143 875.647 495.778 872.749 492.274C869.85 488.77 866.259 487.018 861.977 487.018C857.521 487.018 853.822 488.748 850.88 492.209C847.938 495.627 846.467 500.71 846.467 507.459Z" fill="white"/>
<path d="M932 357H94V415H932V357Z" fill="white"/>
<path d="M932 595H94V607H932V595Z" fill="white"/>
</svg>
