<svg width="127" height="40" viewBox="0 0 127 40" fill="none" xmlns="http://www.w3.org/2000/svg">
<path d="M57.346 20.1819C57.346 21.4508 57.1054 22.5303 56.6244 23.4205C56.1471 24.3106 55.4956 24.9906 54.6698 25.4603C53.8479 25.9262 52.9236 26.1591 51.8971 26.1591C50.863 26.1591 49.935 25.9243 49.113 25.4546C48.291 24.9849 47.6414 24.305 47.1642 23.4148C46.6869 22.5247 46.4482 21.447 46.4482 20.1819C46.4482 18.9129 46.6869 17.8334 47.1642 16.9432C47.6414 16.0531 48.291 15.375 49.113 14.9091C49.935 14.4394 50.863 14.2046 51.8971 14.2046C52.9236 14.2046 53.8479 14.4394 54.6698 14.9091C55.4956 15.375 56.1471 16.0531 56.6244 16.9432C57.1054 17.8334 57.346 18.9129 57.346 20.1819ZM54.8517 20.1819C54.8517 19.3599 54.7285 18.6667 54.4823 18.1023C54.2399 17.5379 53.8971 17.1099 53.4539 16.8182C53.0107 16.5266 52.4918 16.3807 51.8971 16.3807C51.3024 16.3807 50.7835 16.5266 50.3403 16.8182C49.8971 17.1099 49.5524 17.5379 49.3062 18.1023C49.0638 18.6667 48.9426 19.3599 48.9426 20.1819C48.9426 21.0038 49.0638 21.697 49.3062 22.2614C49.5524 22.8258 49.8971 23.2538 50.3403 23.5455C50.7835 23.8372 51.3024 23.983 51.8971 23.983C52.4918 23.983 53.0107 23.8372 53.4539 23.5455C53.8971 23.2538 54.2399 22.8258 54.4823 22.2614C54.7285 21.697 54.8517 21.0038 54.8517 20.1819Z" fill="#274E86"/>
<path d="M67.2593 17.2728L64.2082 26H61.4809L58.4298 17.2728H60.9866L62.7991 23.5171H62.89L64.6968 17.2728H67.2593Z" fill="#274E86"/>
<path d="M72.194 26.1705C71.2963 26.1705 70.5235 25.9887 69.8758 25.625C69.2319 25.2576 68.7356 24.7387 68.3872 24.0682C68.0387 23.394 67.8644 22.5966 67.8644 21.6762C67.8644 20.7785 68.0387 19.9906 68.3872 19.3125C68.7356 18.6345 69.2262 18.1061 69.8588 17.7273C70.4951 17.3485 71.2413 17.1591 72.0974 17.1591C72.6731 17.1591 73.2091 17.2519 73.7053 17.4375C74.2053 17.6194 74.641 17.894 75.0122 18.2614C75.3872 18.6288 75.6788 19.091 75.8872 19.6478C76.0955 20.2008 76.1997 20.8485 76.1997 21.591V22.2557H68.8303V20.7557H73.9213C73.9213 20.4072 73.8455 20.0985 73.694 19.8296C73.5425 19.5607 73.3322 19.3504 73.0633 19.1989C72.7981 19.0436 72.4894 18.966 72.1372 18.966C71.7697 18.966 71.444 19.0512 71.1599 19.2216C70.8796 19.3883 70.6599 19.6137 70.5008 19.8978C70.3417 20.1781 70.2603 20.4906 70.2565 20.8353V22.2614C70.2565 22.6932 70.336 23.0663 70.4951 23.3807C70.658 23.6951 70.8872 23.9375 71.1826 24.108C71.4781 24.2785 71.8285 24.3637 72.2338 24.3637C72.5027 24.3637 72.7489 24.3258 72.9724 24.25C73.1959 24.1743 73.3872 24.0607 73.5463 23.9091C73.7053 23.7576 73.8266 23.572 73.9099 23.3523L76.1485 23.5C76.0349 24.0379 75.8019 24.5076 75.4497 24.9091C75.1012 25.3069 74.6504 25.6175 74.0974 25.841C73.5481 26.0607 72.9137 26.1705 72.194 26.1705Z" fill="#274E86"/>
<path d="M77.7792 26V17.2728H80.1258V18.7955H80.2167C80.3758 18.2538 80.6428 17.8447 81.0178 17.5682C81.3928 17.2879 81.8247 17.1478 82.3133 17.1478C82.4345 17.1478 82.5652 17.1553 82.7053 17.1705C82.8455 17.1857 82.9686 17.2065 83.0747 17.233V19.3807C82.961 19.3466 82.8038 19.3163 82.6031 19.2898C82.4023 19.2633 82.2186 19.25 82.0519 19.25C81.6959 19.25 81.3777 19.3277 81.0974 19.483C80.8209 19.6345 80.6012 19.8466 80.4383 20.1194C80.2792 20.3921 80.1997 20.7065 80.1997 21.0625V26H77.7792Z" fill="#274E86"/>
<path d="M91.5874 19.7614L89.3715 19.8978C89.3337 19.7084 89.2522 19.5379 89.1272 19.3864C89.0022 19.2311 88.8374 19.108 88.6329 19.0171C88.4321 18.9224 88.1916 18.875 87.9113 18.875C87.5363 18.875 87.22 18.9546 86.9624 19.1137C86.7049 19.269 86.5761 19.4773 86.5761 19.7387C86.5761 19.947 86.6594 20.1232 86.8261 20.2671C86.9928 20.411 87.2787 20.5266 87.684 20.6137L89.2636 20.9319C90.1121 21.1061 90.7446 21.3864 91.1613 21.7728C91.578 22.1591 91.7863 22.6667 91.7863 23.2955C91.7863 23.8675 91.6178 24.3694 91.2806 24.8012C90.9473 25.233 90.489 25.5701 89.9056 25.8125C89.3261 26.0512 88.6575 26.1705 87.8999 26.1705C86.7446 26.1705 85.8242 25.93 85.1386 25.4489C84.4568 24.9641 84.0571 24.305 83.9397 23.4716L86.3204 23.3466C86.3924 23.6989 86.5666 23.9678 86.8431 24.1535C87.1196 24.3353 87.4738 24.4262 87.9056 24.4262C88.3299 24.4262 88.6708 24.3447 88.9284 24.1819C89.1897 24.0152 89.3223 23.8012 89.3261 23.5398C89.3223 23.3201 89.2295 23.1402 89.0477 23C88.8659 22.8561 88.5856 22.7463 88.2068 22.6705L86.6954 22.3694C85.8431 22.1989 85.2087 21.9035 84.792 21.483C84.3791 21.0625 84.1727 20.5266 84.1727 19.875C84.1727 19.3144 84.3242 18.8315 84.6272 18.4262C84.934 18.0209 85.364 17.7084 85.917 17.4887C86.4738 17.269 87.1253 17.1591 87.8715 17.1591C88.9738 17.1591 89.8412 17.3921 90.4738 17.858C91.1102 18.3239 91.4814 18.9584 91.5874 19.7614Z" fill="#274E86"/>
<path d="M97.9525 17.2728V19.091H92.6968V17.2728H97.9525ZM93.89 15.1819H96.3105V23.3182C96.3105 23.5417 96.3446 23.716 96.4127 23.841C96.4809 23.9622 96.5756 24.0474 96.6968 24.0966C96.8218 24.1459 96.9658 24.1705 97.1286 24.1705C97.2423 24.1705 97.3559 24.161 97.4696 24.1421C97.5832 24.1194 97.6703 24.1023 97.7309 24.091L98.1116 25.8921C97.9904 25.93 97.8199 25.9735 97.6002 26.0228C97.3805 26.0758 97.1135 26.108 96.7991 26.1194C96.2158 26.1421 95.7044 26.0644 95.265 25.8864C94.8294 25.7084 94.4904 25.4319 94.248 25.0569C94.0055 24.6819 93.8862 24.2084 93.89 23.6364V15.1819Z" fill="#274E86"/>
<path d="M103.379 26.1705C102.496 26.1705 101.733 25.983 101.089 25.608C100.449 25.2292 99.9544 24.7027 99.6059 24.0285C99.2574 23.3504 99.0832 22.5644 99.0832 21.6705C99.0832 20.769 99.2574 19.9811 99.6059 19.3069C99.9544 18.6288 100.449 18.1023 101.089 17.7273C101.733 17.3485 102.496 17.1591 103.379 17.1591C104.261 17.1591 105.023 17.3485 105.663 17.7273C106.307 18.1023 106.803 18.6288 107.151 19.3069C107.5 19.9811 107.674 20.769 107.674 21.6705C107.674 22.5644 107.5 23.3504 107.151 24.0285C106.803 24.7027 106.307 25.2292 105.663 25.608C105.023 25.983 104.261 26.1705 103.379 26.1705ZM103.39 24.2955C103.792 24.2955 104.127 24.1819 104.396 23.9546C104.665 23.7235 104.867 23.4091 105.004 23.0114C105.144 22.6137 105.214 22.161 105.214 21.6535C105.214 21.1459 105.144 20.6932 105.004 20.2955C104.867 19.8978 104.665 19.5834 104.396 19.3523C104.127 19.1213 103.792 19.0057 103.39 19.0057C102.985 19.0057 102.644 19.1213 102.367 19.3523C102.095 19.5834 101.888 19.8978 101.748 20.2955C101.612 20.6932 101.543 21.1459 101.543 21.6535C101.543 22.161 101.612 22.6137 101.748 23.0114C101.888 23.4091 102.095 23.7235 102.367 23.9546C102.644 24.1819 102.985 24.2955 103.39 24.2955Z" fill="#274E86"/>
<path d="M113.191 26.1705C112.297 26.1705 111.528 25.9811 110.884 25.6023C110.244 25.2197 109.752 24.6894 109.407 24.0114C109.066 23.3334 108.896 22.5531 108.896 21.6705C108.896 20.7766 109.068 19.9925 109.413 19.3182C109.761 18.6402 110.256 18.1118 110.896 17.733C111.536 17.3504 112.297 17.1591 113.18 17.1591C113.941 17.1591 114.608 17.2974 115.18 17.5739C115.752 17.8504 116.204 18.2387 116.538 18.7387C116.871 19.2387 117.055 19.8258 117.089 20.5H114.805C114.74 20.0644 114.57 19.7141 114.293 19.4489C114.021 19.18 113.663 19.0455 113.22 19.0455C112.845 19.0455 112.517 19.1478 112.237 19.3523C111.96 19.5531 111.744 19.8466 111.589 20.233C111.434 20.6194 111.356 21.0872 111.356 21.6364C111.356 22.1932 111.432 22.6667 111.583 23.0569C111.738 23.447 111.956 23.7444 112.237 23.9489C112.517 24.1535 112.845 24.2557 113.22 24.2557C113.496 24.2557 113.744 24.1989 113.964 24.0853C114.187 23.9716 114.371 23.8069 114.515 23.591C114.663 23.3713 114.759 23.108 114.805 22.8012H117.089C117.051 23.4678 116.869 24.055 116.543 24.5625C116.221 25.0663 115.776 25.4603 115.208 25.7444C114.64 26.0285 113.968 26.1705 113.191 26.1705Z" fill="#274E86"/>
<path d="M120.832 23.4887L120.837 20.5853H121.19L123.985 17.2728H126.764L123.008 21.6591H122.434L120.832 23.4887ZM118.639 26V14.3637H121.059V26H118.639ZM124.093 26L121.525 22.1989L123.139 20.4887L126.928 26H124.093Z" fill="#274E86"/>
<rect width="40" height="40" rx="10" fill="#1A508C"/>
<g opacity="0.7" clip-path="url(#clip0_632_1715)">
<path d="M34.5884 18.7713C35.0202 18.4143 35.4439 18.0639 35.868 17.7131C35.5817 17.6713 35.3125 17.6683 35.0436 17.6743C34.9999 17.675 34.9514 17.7068 34.9139 17.7357C34.5928 17.9861 34.2743 18.2391 33.9543 18.4909C33.8088 18.6057 33.6621 18.7191 33.4839 18.8583C33.688 17.898 33.8817 16.9857 34.0825 16.0402C33.6525 16.0402 33.2528 16.0457 32.8532 16.0372C32.7106 16.0343 32.6658 16.0909 32.6388 16.2224C32.4125 17.3254 32.1788 18.4265 31.948 19.5283C31.8776 19.8635 31.8095 20.1991 31.7343 20.5628C32.1065 20.5628 32.4506 20.565 32.7947 20.562C33.1858 20.5587 33.1006 20.6094 33.1825 20.2365C33.2514 19.9231 33.3176 19.6091 33.3943 19.2517C33.6073 19.6687 33.8021 20.0387 33.9847 20.415C34.0388 20.5261 34.1043 20.5672 34.2262 20.565C34.6025 20.558 34.9791 20.5624 35.3554 20.5609C35.4188 20.5609 35.4821 20.5546 35.5762 20.5498C35.2362 19.938 34.9143 19.3583 34.588 18.7713H34.5884ZM18.6125 20.4168C18.9491 20.4806 19.2536 20.5568 19.5625 20.5924C20.0551 20.6487 20.5484 20.6298 21.0273 20.4846C21.4851 20.3457 21.7376 20.0209 21.7317 19.6013C21.7262 19.2028 21.5117 18.965 21.0247 18.8217C20.848 18.7694 20.6676 18.728 20.4932 18.6694C20.3795 18.6313 20.2865 18.5668 20.2832 18.4209C20.2802 18.2728 20.3462 18.1746 20.4684 18.1065C20.6243 18.0194 20.7476 18.0724 20.7851 18.2491C20.8036 18.3368 20.801 18.4291 20.8095 18.5376C20.9362 18.5376 21.0517 18.538 21.1676 18.5376C21.6691 18.5354 21.6558 18.5317 21.7858 18.0513C21.8395 17.8524 21.7706 17.7872 21.6051 17.738C20.9821 17.5528 20.3576 17.5298 19.7313 17.715C19.4513 17.798 19.2069 17.9413 19.061 18.2028C18.7817 18.7028 19.0113 19.2361 19.5599 19.405C19.7813 19.4731 20.0002 19.5572 20.2091 19.6576C20.351 19.7261 20.3513 19.8606 20.278 19.9917C20.1962 20.138 20.058 20.162 19.9113 20.1439C19.7588 20.125 19.6954 20.0235 19.688 19.8739C19.6839 19.7902 19.7143 19.678 19.5606 19.6817C19.3325 19.6876 19.1039 19.6783 18.8762 19.6883C18.8332 19.6902 18.7669 19.7443 18.7551 19.7861C18.7032 19.9746 18.6673 20.1676 18.6136 20.4161L18.6125 20.4168ZM31.5025 19.4283C31.208 19.4283 30.9443 19.4317 30.6806 19.4268C30.5717 19.425 30.5347 19.4706 30.4847 19.5694C30.3928 19.7509 30.2791 19.9361 30.1299 20.0702C29.9676 20.2154 29.7891 20.1243 29.771 19.9043C29.7554 19.7154 29.7536 19.5217 29.7769 19.3335C29.8276 18.9209 29.9169 18.5135 30.2151 18.1998C30.2825 18.1291 30.4254 18.0865 30.5214 18.1031C30.5769 18.1128 30.6317 18.2635 30.6432 18.3561C30.6628 18.5168 30.6488 18.682 30.6488 18.8598C30.8073 18.8598 30.9358 18.8598 31.0647 18.8598C31.3955 18.8598 31.5979 18.6956 31.6717 18.3672C31.6784 18.3372 31.6899 18.3083 31.6965 18.2783C31.7662 17.9498 31.7373 17.8876 31.4321 17.7339C31.3725 17.7039 31.3058 17.6761 31.2406 17.6713C30.8791 17.6446 30.5158 17.5924 30.1562 17.6094C29.1421 17.6572 28.5243 18.2017 28.4065 19.1498C28.3262 19.7972 28.6032 20.3276 29.2673 20.5161C29.9139 20.6998 30.5606 20.6354 31.1958 20.4346C31.2432 20.4198 31.3088 20.3791 31.3176 20.3394C31.3843 20.0476 31.4391 19.7528 31.5036 19.4287L31.5025 19.4283ZM8.75098 17.6768C8.75764 17.7576 8.75875 17.8243 8.76912 17.8898C8.90135 18.7224 9.0369 19.5546 9.16653 20.3876C9.18579 20.5113 9.22987 20.5687 9.36616 20.5657C9.72394 20.558 10.0821 20.5594 10.4399 20.5665C10.5684 20.5691 10.6358 20.5224 10.6951 20.4076C11.0754 19.6746 11.4643 18.9465 11.8502 18.2165C11.941 18.0446 12.0295 17.872 12.1343 17.6709C11.9113 17.6709 11.7217 17.6598 11.5351 17.6768C11.4669 17.6828 11.3795 17.7402 11.3451 17.7998C11.228 18.002 11.1302 18.2154 11.0258 18.425C10.838 18.802 10.651 19.1791 10.4451 19.5935C10.3525 18.9272 10.2662 18.3068 10.1788 17.6772H8.75135L8.75098 17.6768ZM22.658 18.138C22.6184 18.3354 22.5825 18.5024 22.5517 18.6702C22.4788 19.0694 22.3888 19.4665 22.3428 19.8691C22.2947 20.2902 22.491 20.5387 22.9106 20.5768C23.2576 20.6083 23.6106 20.5809 23.9606 20.5724C23.998 20.5717 24.0576 20.5309 24.0676 20.4972C24.1069 20.3657 24.1306 20.2298 24.1606 20.092C24.0513 20.0776 23.9725 20.0624 23.8928 20.0572C23.7413 20.048 23.6784 19.9639 23.7062 19.8235C23.8169 19.2635 23.9336 18.705 24.0502 18.1346H24.5736C24.6065 17.9765 24.6369 17.8313 24.6725 17.6606H24.1565C24.2176 17.3583 24.2743 17.0791 24.3384 16.7635C24.1162 16.7635 23.9262 16.7568 23.7369 16.7676C23.678 16.7709 23.6021 16.8057 23.5673 16.8517C23.2569 17.2602 22.8625 17.5343 22.3565 17.6424C22.3139 17.6517 22.2528 17.6828 22.2428 17.7165C22.2039 17.848 22.1825 17.9843 22.1502 18.1383H22.6584L22.658 18.138ZM17.1576 17.6672C16.8439 17.6672 16.5425 17.675 16.2417 17.6639C16.0995 17.6587 16.0388 17.6965 16.0099 17.8446C15.8839 18.4906 15.7439 19.1335 15.6088 19.7776C15.5562 20.0283 15.5032 20.2791 15.4436 20.5617C15.8721 20.5617 16.2706 20.5576 16.6691 20.5643C16.7925 20.5665 16.8365 20.5246 16.861 20.4031C16.9739 19.8428 17.1006 19.285 17.2191 18.7254C17.2625 18.5206 17.3791 18.3876 17.5369 18.4054C17.7302 18.4268 17.7406 18.5924 17.7628 18.7387C17.7821 18.865 17.7951 18.992 17.8132 19.1383C18.0332 19.1383 18.248 19.1454 18.4613 19.1324C18.5036 19.1298 18.5647 19.055 18.5765 19.0043C18.6617 18.6391 18.7291 18.2698 18.818 17.9061C18.8506 17.7731 18.8117 17.7187 18.6943 17.6713C18.2502 17.4924 17.7251 17.6265 17.4073 18.008C17.3665 18.0572 17.3258 18.1065 17.2699 18.1739C17.2299 17.9935 17.1969 17.845 17.1576 17.668V17.6672Z" fill="url(#paint0_linear_632_1715)"/>
<path d="M4.14746 18.8832C4.16191 18.3117 4.26746 17.7665 4.57154 17.2754C5.00079 16.5825 5.65042 16.2725 6.44413 16.238C6.69487 16.2273 6.95005 16.2347 7.19857 16.2669C7.89672 16.3569 8.32598 16.7865 8.43153 17.4928C8.54116 18.2269 8.38339 18.9139 8.03413 19.5602C7.65487 20.2625 7.03783 20.5828 6.26376 20.605C5.90931 20.6154 5.54672 20.5943 5.19857 20.5299C4.64672 20.428 4.29191 20.0262 4.20635 19.471C4.17635 19.2769 4.16672 19.0795 4.14746 18.8836L4.14746 18.8832ZM6.97191 17.2699C6.96487 17.2028 6.9582 17.0921 6.94042 16.9828C6.89746 16.7225 6.68005 16.6306 6.48487 16.808C6.35116 16.9295 6.23339 17.0817 6.14894 17.2413C5.85709 17.7928 5.73079 18.3958 5.66709 19.0099C5.63931 19.2769 5.64598 19.5513 5.67302 19.8187C5.68339 19.9213 5.77709 20.0665 5.86487 20.0954C5.95376 20.1247 6.10339 20.0595 6.18746 19.9891C6.29191 19.9017 6.37302 19.775 6.43598 19.651C6.8082 18.9173 6.93487 18.1254 6.97191 17.2702V17.2699Z" fill="url(#paint1_linear_632_1715)"/>
<path d="M27.2374 17.6473C27.7726 17.748 28.0796 18.061 28.1322 18.6076C28.2274 19.5939 27.8145 20.4428 26.6163 20.5721C26.2363 20.6132 25.8393 20.5939 25.4615 20.5321C24.9134 20.4424 24.5911 19.9987 24.5711 19.4387C24.5508 18.871 24.7015 18.3802 25.1489 18.0036C25.4871 17.7187 25.8934 17.635 26.3167 17.6021C26.4085 17.595 26.5015 17.601 26.5941 17.601C26.5948 17.5928 27.0263 17.6076 27.2367 17.6473H27.2374ZM26.7859 18.5758C26.7908 18.5547 26.7922 18.5332 26.79 18.5117C26.7848 18.4654 26.7711 18.4147 26.7578 18.3758C26.7226 18.2736 26.7245 18.1439 26.6234 18.1154C26.5122 18.088 26.3852 18.1562 26.3193 18.2384C26.2185 18.3639 26.1459 18.5221 26.0974 18.6776C25.9689 19.0895 25.8704 19.5106 25.9574 19.9458C25.9974 20.1458 26.1889 20.2002 26.3319 20.0528C26.4193 19.9628 26.5041 19.8484 26.5359 19.7302C26.6378 19.3502 26.7008 18.9602 26.7863 18.5758H26.7859Z" fill="url(#paint2_linear_632_1715)"/>
<path d="M15.1646 19.565C15.1046 19.809 15.0576 20.0305 14.9917 20.2461C14.9757 20.2987 14.9035 20.3487 14.8461 20.3716C14.1357 20.6531 13.4072 20.709 12.675 20.4835C12.2283 20.3457 11.9605 19.939 11.9435 19.4713C11.9191 18.8109 12.1042 18.2535 12.7005 17.892C12.992 17.7153 13.3176 17.6309 13.6498 17.6153C13.9987 17.599 14.3561 17.6009 14.6991 17.6576C15.3094 17.7587 15.5479 18.1961 15.3835 18.8301C15.3787 18.8479 15.3728 18.8657 15.3676 18.8831C15.3021 19.1026 15.1544 19.2124 14.9242 19.2124C14.4491 19.2124 13.9735 19.2161 13.4983 19.2098C13.3739 19.2079 13.3157 19.2424 13.3191 19.3724C13.3239 19.562 13.302 19.7546 13.3268 19.9413C13.3513 20.1287 13.502 20.1953 13.6505 20.0772C13.7905 19.9657 13.892 19.8057 14.0124 19.6687C14.0454 19.6313 14.0842 19.5705 14.1217 19.5694C14.4594 19.5616 14.7976 19.565 15.165 19.565H15.1646ZM13.4276 18.892C13.625 18.892 13.8013 18.892 13.9776 18.892C14.0083 18.892 14.0431 18.9016 14.0687 18.8901C14.1031 18.8746 14.1535 18.8453 14.1565 18.8176C14.1761 18.6416 14.2068 18.4624 14.1905 18.2879C14.1705 18.0776 13.975 18.0024 13.8124 18.1383C13.588 18.3261 13.4887 18.5868 13.4276 18.892Z" fill="url(#paint3_linear_632_1715)"/>
</g>
<g clip-path="url(#clip1_632_1715)">
<path d="M34.5884 20.5862C35.0202 20.2292 35.4439 19.8788 35.868 19.5281C35.5817 19.4862 35.3125 19.4833 35.0436 19.4892C34.9999 19.4899 34.9514 19.5218 34.9139 19.5507C34.5928 19.801 34.2743 20.054 33.9543 20.3059C33.8088 20.4207 33.6621 20.534 33.4839 20.6733C33.688 19.7129 33.8817 18.8007 34.0825 17.8551C33.6525 17.8551 33.2528 17.8607 32.8532 17.8522C32.7106 17.8492 32.6658 17.9059 32.6388 18.0373C32.4125 19.1403 32.1788 20.2414 31.948 21.3433C31.8776 21.6785 31.8095 22.014 31.7343 22.3777C32.1065 22.3777 32.4506 22.3799 32.7947 22.377C33.1858 22.3736 33.1006 22.4244 33.1825 22.0514C33.2514 21.7381 33.3176 21.424 33.3943 21.0666C33.6073 21.4836 33.8021 21.8536 33.9847 22.2299C34.0388 22.341 34.1043 22.3822 34.2262 22.3799C34.6025 22.3729 34.9791 22.3773 35.3554 22.3759C35.4188 22.3759 35.4821 22.3696 35.5762 22.3648C35.2362 21.7529 34.9143 21.1733 34.588 20.5862H34.5884ZM18.6125 22.2318C18.9491 22.2955 19.2536 22.3718 19.5625 22.4073C20.0551 22.4636 20.5484 22.4448 21.0273 22.2996C21.4851 22.1607 21.7376 21.8359 21.7317 21.4162C21.7262 21.0177 21.5117 20.7799 21.0247 20.6366C20.848 20.5844 20.6676 20.5429 20.4932 20.4844C20.3795 20.4462 20.2865 20.3818 20.2832 20.2359C20.2802 20.0877 20.3462 19.9896 20.4684 19.9214C20.6243 19.8344 20.7476 19.8873 20.7851 20.064C20.8036 20.1518 20.801 20.244 20.8095 20.3525C20.9362 20.3525 21.0517 20.3529 21.1676 20.3525C21.6691 20.3503 21.6558 20.3466 21.7858 19.8662C21.8395 19.6673 21.7706 19.6022 21.6051 19.5529C20.9821 19.3677 20.3576 19.3448 19.7313 19.5299C19.4513 19.6129 19.2069 19.7562 19.061 20.0177C18.7817 20.5177 19.0113 21.051 19.5599 21.2199C19.7813 21.2881 20.0002 21.3722 20.2091 21.4725C20.351 21.541 20.3513 21.6755 20.278 21.8066C20.1962 21.9529 20.058 21.977 19.9113 21.9588C19.7588 21.9399 19.6954 21.8385 19.688 21.6888C19.6839 21.6051 19.7143 21.4929 19.5606 21.4966C19.3325 21.5025 19.1039 21.4933 18.8762 21.5033C18.8332 21.5051 18.7669 21.5592 18.7551 21.601C18.7032 21.7896 18.6673 21.9825 18.6136 22.231L18.6125 22.2318ZM31.5025 21.2433C31.208 21.2433 30.9443 21.2466 30.6806 21.2418C30.5717 21.2399 30.5347 21.2855 30.4847 21.3844C30.3928 21.5659 30.2791 21.751 30.1299 21.8851C29.9676 22.0303 29.7891 21.9392 29.771 21.7192C29.7554 21.5303 29.7536 21.3366 29.7769 21.1485C29.8276 20.7359 29.9169 20.3285 30.2151 20.0148C30.2825 19.944 30.4254 19.9014 30.5214 19.9181C30.5769 19.9277 30.6317 20.0785 30.6432 20.171C30.6628 20.3318 30.6488 20.497 30.6488 20.6748C30.8073 20.6748 30.9358 20.6748 31.0647 20.6748C31.3955 20.6748 31.5979 20.5106 31.6717 20.1822C31.6784 20.1522 31.6899 20.1233 31.6965 20.0933C31.7662 19.7648 31.7373 19.7025 31.4321 19.5488C31.3725 19.5188 31.3058 19.491 31.2406 19.4862C30.8791 19.4596 30.5158 19.4073 30.1562 19.4244C29.1421 19.4722 28.5243 20.0166 28.4065 20.9648C28.3262 21.6122 28.6032 22.1425 29.2673 22.331C29.9139 22.5148 30.5606 22.4503 31.1958 22.2496C31.2432 22.2348 31.3088 22.194 31.3176 22.1544C31.3843 21.8625 31.4391 21.5677 31.5036 21.2436L31.5025 21.2433ZM8.75098 19.4918C8.75764 19.5725 8.75875 19.6392 8.76912 19.7048C8.90135 20.5373 9.0369 21.3696 9.16653 22.2025C9.18579 22.3262 9.22987 22.3836 9.36616 22.3807C9.72394 22.3729 10.0821 22.3744 10.4399 22.3814C10.5684 22.384 10.6358 22.3373 10.6951 22.2225C11.0754 21.4896 11.4643 20.7614 11.8502 20.0314C11.941 19.8596 12.0295 19.687 12.1343 19.4859C11.9113 19.4859 11.7217 19.4748 11.5351 19.4918C11.4669 19.4977 11.3795 19.5551 11.3451 19.6148C11.228 19.817 11.1302 20.0303 11.0258 20.2399C10.838 20.617 10.651 20.994 10.4451 21.4085C10.3525 20.7422 10.2662 20.1218 10.1788 19.4922H8.75135L8.75098 19.4918ZM22.658 19.9529C22.6184 20.1503 22.5825 20.3173 22.5517 20.4851C22.4788 20.8844 22.3888 21.2814 22.3428 21.684C22.2947 22.1051 22.491 22.3536 22.9106 22.3918C23.2576 22.4233 23.6106 22.3959 23.9606 22.3873C23.998 22.3866 24.0576 22.3459 24.0676 22.3122C24.1069 22.1807 24.1306 22.0448 24.1606 21.907C24.0513 21.8925 23.9725 21.8773 23.8928 21.8722C23.7413 21.8629 23.6784 21.7788 23.7062 21.6385C23.8169 21.0785 23.9336 20.5199 24.0502 19.9496H24.5736C24.6065 19.7914 24.6369 19.6462 24.6725 19.4755H24.1565C24.2176 19.1733 24.2743 18.894 24.3384 18.5785C24.1162 18.5785 23.9262 18.5718 23.7369 18.5825C23.678 18.5859 23.6021 18.6207 23.5673 18.6666C23.2569 19.0751 22.8625 19.3492 22.3565 19.4573C22.3139 19.4666 22.2528 19.4977 22.2428 19.5314C22.2039 19.6629 22.1825 19.7992 22.1502 19.9533H22.6584L22.658 19.9529ZM17.1576 19.4822C16.8439 19.4822 16.5425 19.4899 16.2417 19.4788C16.0995 19.4736 16.0388 19.5114 16.0099 19.6596C15.8839 20.3055 15.7439 20.9485 15.6088 21.5925C15.5562 21.8433 15.5032 22.094 15.4436 22.3766C15.8721 22.3766 16.2706 22.3725 16.6691 22.3792C16.7925 22.3814 16.8365 22.3396 16.861 22.2181C16.9739 21.6577 17.1006 21.0999 17.2191 20.5403C17.2625 20.3355 17.3791 20.2025 17.5369 20.2203C17.7302 20.2418 17.7406 20.4073 17.7628 20.5536C17.7821 20.6799 17.7951 20.807 17.8132 20.9533C18.0332 20.9533 18.248 20.9603 18.4613 20.9473C18.5036 20.9448 18.5647 20.8699 18.5765 20.8192C18.6617 20.454 18.7291 20.0848 18.818 19.721C18.8506 19.5881 18.8117 19.5336 18.6943 19.4862C18.2502 19.3073 17.7251 19.4414 17.4073 19.8229C17.3665 19.8722 17.3258 19.9214 17.2699 19.9888C17.2299 19.8085 17.1969 19.6599 17.1576 19.4829V19.4822Z" fill="black"/>
<path d="M4.14746 20.6981C4.16191 20.1267 4.26746 19.5815 4.57154 19.0904C5.00079 18.3974 5.65042 18.0874 6.44413 18.0529C6.69487 18.0422 6.95005 18.0496 7.19857 18.0818C7.89672 18.1718 8.32598 18.6015 8.43153 19.3078C8.54116 20.0418 8.38339 20.7289 8.03413 21.3752C7.65487 22.0774 7.03783 22.3978 6.26376 22.42C5.90931 22.4304 5.54672 22.4092 5.19857 22.3448C4.64672 22.2429 4.29191 21.8411 4.20635 21.2859C4.17635 21.0918 4.16672 20.8944 4.14746 20.6985L4.14746 20.6981ZM6.97191 19.0848C6.96487 19.0178 6.9582 18.907 6.94042 18.7978C6.89746 18.5374 6.68005 18.4455 6.48487 18.6229C6.35116 18.7444 6.23339 18.8967 6.14894 19.0563C5.85709 19.6078 5.73079 20.2107 5.66709 20.8248C5.63931 21.0918 5.64598 21.3663 5.67302 21.6337C5.68339 21.7363 5.77709 21.8815 5.86487 21.9104C5.95376 21.9396 6.10339 21.8744 6.18746 21.8041C6.29191 21.7167 6.37302 21.59 6.43598 21.4659C6.8082 20.7322 6.93487 19.9404 6.97191 19.0852V19.0848Z" fill="white"/>
<path d="M34.5881 20.5863C34.914 21.1733 35.2362 21.7529 35.5762 22.3648C35.4822 22.3696 35.4188 22.3759 35.3555 22.3759C34.9792 22.377 34.6025 22.3729 34.2262 22.38C34.1044 22.3822 34.0388 22.3411 33.9847 22.23C33.8022 21.854 33.6073 21.4837 33.3944 21.0666C33.3177 21.424 33.2514 21.7381 33.1825 22.0514C33.1007 22.4244 33.1862 22.3733 32.7947 22.377C32.4507 22.38 32.107 22.3777 31.7344 22.3777C31.8096 22.014 31.8777 21.6785 31.9481 21.3433C32.1788 20.2414 32.4125 19.1403 32.6388 18.0374C32.6659 17.9059 32.7103 17.8489 32.8533 17.8522C33.2529 17.8611 33.6529 17.8552 34.0825 17.8552C33.8818 18.8003 33.6881 19.7129 33.484 20.6733C33.6622 20.5344 33.8088 20.4207 33.9544 20.3059C34.2744 20.054 34.5929 19.8011 34.914 19.5507C34.9514 19.5218 34.9996 19.49 35.0436 19.4892C35.3125 19.4837 35.5814 19.4863 35.8681 19.5281C35.4444 19.8789 35.0203 20.2292 34.5884 20.5863H34.5881Z" fill="white"/>
<path d="M27.2374 19.4622C27.7726 19.5629 28.0796 19.8759 28.1322 20.4226C28.2274 21.4089 27.8145 22.2578 26.6163 22.387C26.2363 22.4281 25.8393 22.4089 25.4615 22.347C24.9134 22.2574 24.5911 21.8137 24.5711 21.2537C24.5508 20.6859 24.7015 20.1952 25.1489 19.8185C25.4871 19.5337 25.8934 19.45 26.3167 19.417C26.4085 19.41 26.5015 19.4159 26.5941 19.4159C26.5948 19.4078 27.0263 19.4226 27.2367 19.4622H27.2374ZM26.7859 20.3907C26.7908 20.3696 26.7922 20.3481 26.79 20.3266C26.7848 20.2804 26.7711 20.2296 26.7578 20.1907C26.7226 20.0885 26.7245 19.9589 26.6234 19.9304C26.5122 19.9029 26.3852 19.9711 26.3193 20.0533C26.2185 20.1789 26.1459 20.337 26.0974 20.4926C25.9689 20.9044 25.8704 21.3255 25.9574 21.7607C25.9974 21.9607 26.1889 22.0152 26.3319 21.8678C26.4193 21.7778 26.5041 21.6633 26.5359 21.5452C26.6378 21.1652 26.7008 20.7752 26.7863 20.3907H26.7859Z" fill="white"/>
<path d="M15.1646 21.3799C15.1046 21.624 15.0576 21.8455 14.9917 22.061C14.9757 22.1136 14.9035 22.1636 14.8461 22.1866C14.1357 22.4681 13.4072 22.524 12.675 22.2984C12.2283 22.1606 11.9605 21.754 11.9435 21.2862C11.9191 20.6258 12.1042 20.0684 12.7005 19.7069C12.992 19.5303 13.3176 19.4458 13.6498 19.4303C13.9987 19.414 14.3561 19.4158 14.6991 19.4725C15.3094 19.5736 15.5479 20.011 15.3835 20.6451C15.3787 20.6629 15.3728 20.6806 15.3676 20.6981C15.3021 20.9176 15.1544 21.0273 14.9242 21.0273C14.4491 21.0273 13.9735 21.031 13.4983 21.0247C13.3739 21.0229 13.3157 21.0573 13.3191 21.1873C13.3239 21.3769 13.302 21.5695 13.3268 21.7562C13.3513 21.9436 13.502 22.0103 13.6505 21.8921C13.7905 21.7806 13.892 21.6206 14.0124 21.4836C14.0454 21.4462 14.0842 21.3855 14.1217 21.3843C14.4594 21.3766 14.7976 21.3799 15.165 21.3799H15.1646ZM13.4276 20.7069C13.625 20.7069 13.8013 20.7069 13.9776 20.7069C14.0083 20.7069 14.0431 20.7166 14.0687 20.7051C14.1031 20.6895 14.1535 20.6603 14.1565 20.6325C14.1761 20.4566 14.2068 20.2773 14.1905 20.1029C14.1705 19.8925 13.975 19.8173 13.8124 19.9532C13.588 20.141 13.4887 20.4018 13.4276 20.7069Z" fill="white"/>
<path d="M18.6124 22.2319C18.6665 21.9834 18.7024 21.7904 18.7539 21.6019C18.7654 21.56 18.8317 21.506 18.875 21.5041C19.1028 21.4941 19.3313 21.5034 19.5595 21.4974C19.7136 21.4934 19.6828 21.606 19.6869 21.6897C19.6943 21.8389 19.7576 21.9404 19.9102 21.9597C20.0573 21.9778 20.195 21.9537 20.2769 21.8074C20.3502 21.6763 20.3502 21.5419 20.208 21.4734C19.9995 21.3726 19.7806 21.2889 19.5587 21.2208C19.0106 21.0519 18.7806 20.5185 19.0598 20.0185C19.2058 19.7571 19.4502 19.6134 19.7302 19.5308C20.3565 19.3456 20.981 19.3685 21.6039 19.5537C21.7695 19.603 21.8384 19.6682 21.7847 19.8671C21.6547 20.3474 21.668 20.3511 21.1665 20.3534C21.051 20.3537 20.935 20.3534 20.8084 20.3534C20.7998 20.2452 20.8024 20.153 20.7839 20.0648C20.7469 19.8882 20.6236 19.8352 20.4673 19.9223C20.345 19.9904 20.2787 20.0889 20.2821 20.2367C20.285 20.3826 20.378 20.4471 20.4921 20.4852C20.6665 20.5434 20.8469 20.5852 21.0236 20.6374C21.5106 20.7811 21.725 21.0185 21.7306 21.4171C21.7361 21.8363 21.4839 22.1615 21.0261 22.3004C20.5473 22.4456 20.0539 22.4645 19.5613 22.4082C19.2524 22.373 18.9484 22.2963 18.6113 22.2326L18.6124 22.2319Z" fill="white"/>
<path d="M31.5022 21.243C31.4378 21.5671 31.3834 21.8615 31.3163 22.1538C31.3071 22.1934 31.2419 22.2341 31.1945 22.2489C30.5593 22.4493 29.9126 22.5141 29.266 22.3304C28.6019 22.1415 28.3245 21.6112 28.4052 20.9641C28.523 20.016 29.1411 19.4715 30.1548 19.4238C30.5148 19.4067 30.8782 19.4589 31.2393 19.4856C31.3045 19.4904 31.3711 19.5182 31.4308 19.5482C31.7356 19.7019 31.7645 19.7641 31.6952 20.0926C31.6889 20.1226 31.6774 20.1515 31.6704 20.1815C31.5966 20.5102 31.3942 20.6744 31.0634 20.6741C30.9348 20.6741 30.8063 20.6741 30.6474 20.6741C30.6474 20.4963 30.6615 20.3312 30.6419 20.1704C30.6304 20.0778 30.5752 19.9271 30.52 19.9175C30.4245 19.9008 30.2811 19.9434 30.2137 20.0141C29.9156 20.3278 29.8263 20.7349 29.7756 21.1478C29.7526 21.3356 29.7541 21.5293 29.7697 21.7186C29.7878 21.9386 29.9667 22.0297 30.1285 21.8845C30.2778 21.7508 30.3915 21.5652 30.4834 21.3838C30.5334 21.2849 30.5708 21.2393 30.6793 21.2412C30.943 21.246 31.2067 21.2426 31.5011 21.2426L31.5022 21.243Z" fill="white"/>
<path d="M8.75037 19.4919H10.1778C10.2652 20.1211 10.3515 20.7419 10.4441 21.4082C10.65 20.9941 10.837 20.6167 11.0248 20.2397C11.1293 20.03 11.227 19.8167 11.3441 19.6145C11.3785 19.5548 11.4663 19.4978 11.5341 19.4915C11.7211 19.4748 11.9104 19.4856 12.1333 19.4856C12.0289 19.6867 11.94 19.8593 11.8493 20.0311C11.4637 20.7611 11.0744 21.4893 10.6941 22.2223C10.6344 22.3367 10.567 22.3837 10.4389 22.3811C10.0811 22.3737 9.72296 22.3723 9.36519 22.3804C9.22889 22.3834 9.18481 22.326 9.16556 22.2023C9.03556 21.3693 8.90037 20.5371 8.76815 19.7045C8.75778 19.6393 8.75667 19.5726 8.75 19.4915L8.75037 19.4919Z" fill="white"/>
<path d="M22.6585 19.9525H22.1504C22.1826 19.7985 22.2041 19.6622 22.243 19.5307C22.253 19.497 22.3141 19.4655 22.3567 19.4566C22.8626 19.3485 23.2571 19.0744 23.5674 18.6659C23.6022 18.62 23.6782 18.5851 23.7371 18.5818C23.9263 18.5711 24.1163 18.5777 24.3385 18.5777C24.2745 18.8933 24.2182 19.1725 24.1567 19.4748H24.6726C24.6371 19.6455 24.6067 19.7907 24.5737 19.9488H24.0504C23.9337 20.5192 23.8171 21.0777 23.7063 21.6377C23.6785 21.7781 23.7415 21.8622 23.893 21.8714C23.9726 21.8762 24.0515 21.8914 24.1608 21.9062C24.1308 22.044 24.1071 22.18 24.0678 22.3114C24.0578 22.3451 23.9985 22.3859 23.9608 22.3866C23.6108 22.3948 23.2578 22.4225 22.9108 22.3911C22.4911 22.3529 22.2948 22.1044 22.343 21.6833C22.3889 21.2811 22.4789 20.8837 22.5519 20.4844C22.5826 20.3162 22.6185 20.1492 22.6582 19.9522L22.6585 19.9525Z" fill="white"/>
<path d="M17.1574 19.4817C17.1967 19.6587 17.2297 19.8073 17.2697 19.9876C17.3256 19.9202 17.3663 19.871 17.4071 19.8217C17.7245 19.4402 18.2497 19.3061 18.6941 19.485C18.8119 19.5324 18.8504 19.5869 18.8178 19.7198C18.7289 20.0839 18.6615 20.4532 18.5763 20.818C18.5645 20.8691 18.503 20.9435 18.4611 20.9461C18.2478 20.9591 18.033 20.9521 17.813 20.9521C17.7948 20.8061 17.7815 20.6787 17.7626 20.5524C17.7404 20.4061 17.73 20.2406 17.5367 20.2191C17.3789 20.2013 17.2622 20.3347 17.2189 20.5391C17.1 21.0984 16.9737 21.6561 16.8608 22.2169C16.8363 22.3384 16.7922 22.3798 16.6689 22.378C16.2704 22.3713 15.8719 22.3754 15.4434 22.3754C15.503 22.0924 15.556 21.8421 15.6085 21.5913C15.7437 20.9473 15.8837 20.3043 16.0097 19.6584C16.0385 19.5102 16.0993 19.4724 16.2415 19.4776C16.5422 19.4884 16.8441 19.481 17.1574 19.481V19.4817Z" fill="white"/>
</g>
<defs>
<linearGradient id="paint0_linear_632_1715" x1="22.3095" y1="16.0371" x2="22.3095" y2="20.6246" gradientUnits="userSpaceOnUse">
<stop stop-color="#42719F"/>
<stop offset="1" stop-color="#1A508C"/>
</linearGradient>
<linearGradient id="paint1_linear_632_1715" x1="6.30669" y1="16.2334" x2="6.30669" y2="20.6076" gradientUnits="userSpaceOnUse">
<stop stop-color="#406EA0"/>
<stop offset="1" stop-color="#1A508C"/>
</linearGradient>
<linearGradient id="paint2_linear_632_1715" x1="26.3574" y1="17.5986" x2="26.3574" y2="20.5938" gradientUnits="userSpaceOnUse">
<stop stop-color="#406EA0"/>
<stop offset="1" stop-color="#1A508C"/>
</linearGradient>
<linearGradient id="paint3_linear_632_1715" x1="13.6878" y1="17.6064" x2="13.6878" y2="20.6229" gradientUnits="userSpaceOnUse">
<stop stop-color="#406EA0"/>
<stop offset="1" stop-color="#1A508C"/>
</linearGradient>
<clipPath id="clip0_632_1715">
<rect width="31.72" height="4.58704" fill="white" transform="translate(4.14746 16.0369)"/>
</clipPath>
<clipPath id="clip1_632_1715">
<rect width="31.72" height="4.58704" fill="white" transform="translate(4.14746 17.8518)"/>
</clipPath>
</defs>
</svg>
