<svg width="1080" height="1080" viewBox="0 0 1080 1080" fill="none" xmlns="http://www.w3.org/2000/svg">
<rect width="1080" height="1080" fill="white"/>
<g clip-path="url(#clip0_643_1638)">
<path d="M850.483 342.998C866.728 342.998 881.22 342.876 895.735 342.998C928.737 343.315 948.051 363.481 948.002 396.629C947.832 500.48 947.832 604.355 947.88 708.207C947.88 739.771 929.127 760.863 897.172 761.082C801.846 761.715 706.494 761.569 611.143 761.131C586.422 761.009 567.06 741.841 565.964 717.437C565.111 698.416 565.72 679.321 565.818 660.251C565.818 657.889 566.573 655.526 566.573 655.526C590.465 647.343 613.944 641.741 635.231 631.56C686.864 606.913 720.231 565.46 737.718 511.172C741.517 499.408 737.426 490.665 727.464 487.645C718.55 484.917 710.927 490.007 707.079 501.819C687.375 562.172 646.337 599.874 585.448 616.436C579.725 617.994 573.709 618.409 566.329 619.578C566.013 613.562 565.574 608.861 565.574 604.136C565.525 534.407 565.525 464.629 565.525 394.851C565.525 361.752 584.401 343.071 617.67 342.998C629.02 342.974 640.394 342.608 651.743 343.12C659.659 343.485 662.07 340.684 662.411 332.72C663.02 317.839 663.069 302.471 666.99 288.296C679.679 242.41 722.691 216.496 772.595 222.975C813.877 228.333 848.681 267.764 850.434 311.433C850.849 321.468 850.483 331.502 850.483 342.974V342.998ZM818.017 342.146C825.762 310.508 815.947 281.062 792.128 263.867C772.887 249.961 743.514 249.23 723.129 262.163C698.092 278.042 687.741 306.806 694.877 342.17H818.017V342.146ZM635.839 511.976C647.213 511.927 657.491 501.625 657.491 490.251C657.491 478.657 647.311 467.965 636.326 468.038C625.172 468.112 614.48 478.755 614.455 489.763C614.431 500.87 625.172 512 635.839 511.951V511.976Z" fill="#EF1923"/>
</g>
<g clip-path="url(#clip1_643_1638)">
<path d="M229.519 342.998C213.274 342.998 198.782 342.876 184.266 342.998C151.265 343.315 131.951 363.481 132 396.629C132.17 500.48 132.17 604.355 132.122 708.207C132.122 739.771 150.875 760.863 182.83 761.082C278.156 761.715 373.508 761.569 468.859 761.131C493.58 761.009 512.942 741.841 514.038 717.437C514.891 698.416 514.282 679.321 514.184 660.251C514.184 657.889 513.429 655.526 513.429 655.526C489.537 647.343 466.058 641.741 444.771 631.56C393.138 606.913 359.771 565.46 342.284 511.172C338.485 499.408 342.576 490.665 352.538 487.645C361.452 484.917 369.075 490.007 372.923 501.819C392.627 562.172 433.665 599.874 494.554 616.436C500.277 617.994 506.293 618.409 513.673 619.578C513.989 613.562 514.428 608.861 514.428 604.136C514.476 534.407 514.476 464.629 514.476 394.851C514.476 361.752 495.601 343.071 462.332 342.998C450.982 342.974 439.608 342.608 428.258 343.12C420.343 343.485 417.932 340.684 417.591 332.72C416.982 317.839 416.933 302.471 413.012 288.296C400.323 242.41 357.311 216.496 307.407 222.975C266.125 228.333 231.321 267.764 229.567 311.433C229.153 321.468 229.519 331.502 229.519 342.974V342.998ZM261.984 342.146C254.239 310.508 264.055 281.062 287.874 263.867C307.115 249.961 336.488 249.23 356.873 262.163C381.91 278.042 392.261 306.806 385.125 342.17H261.984V342.146ZM444.163 511.976C432.789 511.927 422.511 501.625 422.511 490.251C422.511 478.657 432.691 467.965 443.675 468.038C454.83 468.112 465.522 478.755 465.547 489.763C465.571 500.87 454.83 512 444.163 511.951V511.976Z" fill="#16ADDA"/>
</g>
<defs>
<clipPath id="clip0_643_1638">
<rect width="382.477" height="539.52" fill="white" transform="translate(565.525 222)"/>
</clipPath>
<clipPath id="clip1_643_1638">
<rect width="382.477" height="539.52" fill="white" transform="matrix(-1 0 0 1 514.477 222)"/>
</clipPath>
</defs>
</svg>
