<svg width="20" height="18" viewBox="0 0 20 18"  xmlns="http://www.w3.org/2000/svg">
<path d="M13.5225 1.96187L8.54875 4.83312H6.04875L13.2588 0.67062C13.3535 0.615922 13.4582 0.580433 13.5667 0.566179C13.6752 0.551926 13.7855 0.559187 13.8912 0.587548C13.9969 0.615909 14.096 0.664815 14.1828 0.731472C14.2696 0.798129 14.3424 0.881233 14.3971 0.976036L16.6237 4.83312L18.3333 4.83354C18.5543 4.83354 18.7663 4.92133 18.9226 5.07761C19.0789 5.23389 19.1667 5.44586 19.1667 5.66687V16.5002C19.1667 16.7212 19.0789 16.9332 18.9226 17.0895C18.7663 17.2457 18.5543 17.3335 18.3333 17.3335H1.66667C1.44565 17.3335 1.23369 17.2457 1.07741 17.0895C0.921131 16.9332 0.833334 16.7212 0.833334 16.5002V5.66687C0.833334 5.44586 0.921131 5.23389 1.07741 5.07761C1.23369 4.92133 1.44565 4.83354 1.66667 4.83354H15.1804L13.5225 1.96187ZM17.9167 6.08354H2.08333V8.58354H5.83333C6.16164 8.58354 6.48673 8.6482 6.79004 8.77384C7.09336 8.89947 7.36895 9.08362 7.6011 9.31577C7.83325 9.54792 8.0174 9.82351 8.14303 10.1268C8.26867 10.4301 8.33333 10.7552 8.33333 11.0835C8.33333 11.4118 8.26867 11.7369 8.14303 12.0402C8.0174 12.3436 7.83325 12.6192 7.6011 12.8513C7.36895 13.0834 7.09336 13.2676 6.79004 13.3932C6.48673 13.5189 6.16164 13.5835 5.83333 13.5835H2.08333V16.0835H17.9167V6.08354ZM5.83333 9.83354H2.08333V12.3335H5.83333C6.15871 12.3338 6.47139 12.2073 6.70493 11.9807C6.93846 11.7542 7.07445 11.4455 7.084 11.1202C7.09355 10.795 6.9759 10.4788 6.75606 10.239C6.53621 9.99909 6.2315 9.85439 5.90667 9.83562L5.83333 9.83354ZM16.0417 9.83354C16.2074 9.83354 16.3664 9.89938 16.4836 10.0166C16.6008 10.1338 16.6667 10.2928 16.6667 10.4585V11.7085C16.6667 11.8743 16.6008 12.0333 16.4836 12.1505C16.3664 12.2677 16.2074 12.3335 16.0417 12.3335C15.8759 12.3335 15.7169 12.2677 15.5997 12.1505C15.4825 12.0333 15.4167 11.8743 15.4167 11.7085V10.4585C15.4167 10.2928 15.4825 10.1338 15.5997 10.0166C15.7169 9.89938 15.8759 9.83354 16.0417 9.83354Z" />
</svg>
