<svg width="19" height="20" viewBox="0 0 19 20"  xmlns="http://www.w3.org/2000/svg">
<path d="M14.3637 10.8089L14.3638 10.809L15.5798 13.273L18.334 13.6732C18.5482 13.7043 18.6677 13.8724 18.704 14.0368C18.7394 14.1972 18.7058 14.3926 18.5736 14.5215M14.3637 10.8089L18.4689 14.4141M14.3637 10.8089L14.355 10.7912C14.355 10.7912 14.355 10.7912 14.355 10.7912C14.2789 10.6371 14.1282 10.5572 13.9842 10.5385M14.3637 10.8089L13.9842 10.5385M18.5736 14.5215L18.4689 14.4141M18.5736 14.5215L18.5737 14.5214L18.4689 14.4141M18.5736 14.5215L18.5595 14.5352L18.5594 14.5353L16.6069 16.4385M18.4689 14.4141L18.4547 14.4279L16.4458 16.3861M16.6069 16.4385L16.5936 16.3608L16.4458 16.3861M16.6069 16.4385L17.064 19.1033C17.0983 19.3034 17.0461 19.5313 16.8291 19.6584M16.6069 16.4385L16.5505 16.4936L16.4458 16.3861M16.4458 16.3861L16.9161 19.1286C16.9434 19.2876 16.9005 19.4427 16.7532 19.529M9.49477 13.6732L9.51428 13.6703L9.51436 13.6703L12.249 13.273L13.4738 10.7912C13.5499 10.6369 13.7009 10.557 13.8451 10.5385M9.49477 13.6732L13.8578 10.5371L13.8576 10.5372C13.8576 10.5372 13.8572 10.5372 13.8559 10.5373L13.8558 10.5373C13.8541 10.5375 13.85 10.5378 13.8451 10.5385M9.49477 13.6732C9.28059 13.7043 9.16107 13.8724 9.12479 14.0368C9.08938 14.1972 9.12302 14.3926 9.25522 14.5215L11.2219 16.4385M9.49477 13.6732L11.2219 16.4385M13.8451 10.5385L13.8642 10.6872L13.8442 10.5386C13.8445 10.5385 13.8448 10.5385 13.8451 10.5385ZM13.9842 10.5385C13.984 10.5385 13.9839 10.5385 13.9837 10.5385L13.9646 10.6872C13.9628 10.687 13.9611 10.6869 13.9594 10.6867C13.9581 10.6866 13.9568 10.6865 13.9555 10.6863M13.9842 10.5385L13.8975 10.6844C13.9005 10.6842 13.9036 10.6842 13.9066 10.6842C13.9092 10.6842 13.9118 10.6842 13.9144 10.6842C13.9157 10.6842 13.917 10.6842 13.9183 10.6842C13.9226 10.6842 13.927 10.6842 13.9313 10.6844C13.9394 10.6848 13.9474 10.6854 13.9555 10.6863M13.9555 10.6863L13.9723 10.5373C13.9723 10.5373 13.9723 10.5373 13.9722 10.5373L13.9555 10.6863ZM11.2219 16.4385L10.7682 19.0838L10.7682 19.0838L10.7648 19.1032L10.7648 19.1033L10.9127 19.1286C10.8907 19.2568 10.9077 19.3774 11.0038 19.4735L11.2219 16.4385ZM16.8291 19.6584L13.9842 18.3574L13.9144 18.2246L16.3779 19.5197L16.3954 19.529C16.509 19.5887 16.6401 19.5953 16.7532 19.529M16.8291 19.6584C16.8291 19.6584 16.8291 19.6584 16.8291 19.6584L16.7532 19.529M16.8291 19.6584L16.7532 19.529M13.9132 10.5342C13.9096 10.5342 13.8998 10.5341 13.8911 10.5345L13.9729 10.5373L13.9715 10.5372C13.9607 10.536 13.9498 10.5351 13.939 10.5345L13.9382 10.5345C13.9293 10.5341 13.9193 10.5342 13.9156 10.5342L13.9144 10.5342L13.9132 10.5342ZM15.7251 15.8891L15.7251 15.8891C15.6035 16.0076 15.5702 16.1485 15.5707 16.2778C15.571 16.3712 15.59 16.4714 15.6053 16.552C15.6093 16.5735 15.6131 16.5937 15.6163 16.6119L15.7641 16.5865L15.6163 16.6119L15.7624 17.464L15.9062 18.302L14.1806 17.3948C14.0304 17.3158 13.8916 17.3154 13.7652 17.3519C13.6723 17.3788 13.581 17.4283 13.5054 17.4693C13.4888 17.4783 13.4729 17.4869 13.458 17.4948L13.5278 17.6275L13.458 17.4948L12.6928 17.8971L11.9226 18.302L12.2488 16.4001C12.2792 16.2231 12.2557 16.0373 12.1007 15.8863C12.1007 15.8863 12.1007 15.8863 12.1007 15.8863L11.9498 15.7391L11.3308 15.1357L11.2261 15.2431L11.3308 15.1357L10.6923 14.5133L12.6807 14.2244C12.8355 14.2019 12.934 14.1087 12.999 14.0142C13.0442 13.9486 13.0817 13.8676 13.1104 13.8058C13.1192 13.7868 13.1272 13.7695 13.1343 13.7551L13.5207 12.9723L13.9144 12.1746L14.795 13.9589L14.795 13.9589C14.864 14.0987 14.972 14.1693 15.0841 14.2058C15.1605 14.2306 15.2492 14.2415 15.3188 14.2501C15.3386 14.2525 15.3569 14.2548 15.373 14.2571L16.2369 14.3826L17.1365 14.5133L15.7251 15.8891ZM1.28416 1.37692V1.37692C1.28416 1.34234 1.2968 1.30425 1.32261 1.27628C1.34549 1.25147 1.38861 1.22373 1.47316 1.22373H5.92402C6.20008 1.22373 6.42851 0.995339 6.42851 0.719238C6.42851 0.443138 6.20008 0.214746 5.92402 0.214746H1.28056C0.641785 0.214746 0.28115 0.748381 0.28115 1.16689L0.27783 9.5061L0.274511 17.8627C0.274511 18.5122 0.816328 19.0556 1.46659 19.0556H8.33024C8.60632 19.0556 8.83474 18.8272 8.83474 18.5511C8.83474 18.275 8.60635 18.0466 8.33027 18.0466H1.46874C1.40177 18.0466 1.35929 18.0189 1.32998 17.9822C1.29662 17.9405 1.28352 17.8902 1.28352 17.8636L1.28416 1.37692ZM12.4123 1.22373H16.5493C16.6355 1.22373 16.6926 1.24541 16.7252 1.27214C16.7535 1.29534 16.7777 1.33367 16.7777 1.40674V11.058C16.7777 11.3341 17.0062 11.5625 17.2822 11.5625C17.5583 11.5625 17.7867 11.3341 17.7867 11.058V1.44257C17.7867 1.2004 17.746 0.890012 17.5478 0.638696C17.3441 0.380482 16.9989 0.214746 16.456 0.214746H12.4123C12.1362 0.214746 11.9078 0.443138 11.9078 0.719238C11.9078 0.995339 12.1362 1.22373 12.4123 1.22373Z"  stroke="#333333" stroke-width="0.3"/>
</svg>
