<svg width="1080" height="1080" viewBox="0 0 1080 1080" fill="none" xmlns="http://www.w3.org/2000/svg">
<g clip-path="url(#clip0_568_2096)">
<path fill-rule="evenodd" clip-rule="evenodd" d="M0 0H1080V1080H0V0Z" fill="#FF5A01"/>
<path d="M827.746 422.679C764.314 457.877 700.008 490.129 628.899 504.93C612.905 508.259 595.499 508.131 579.246 505.912C563.759 503.798 556.244 490.07 561.687 475.411C566.796 461.652 573.83 447.949 582.847 436.443C602.201 411.739 623.986 388.953 643.583 364.427C655.587 349.403 666.33 333.149 675.848 316.428C682.689 304.409 679.629 290.085 667.502 284.043C647.125 273.889 625.216 266.761 603.743 258.932C601.272 258.03 597.476 260.765 592.66 262.352C598.792 267.993 603.446 272.276 609.618 277.953C545.788 288.898 485.079 304.866 426.24 326.676C425.984 327.962 425.489 328.878 425.761 329.308C434.424 342.972 430.359 353.372 417.796 361.924C412.991 365.194 408.601 369.075 404.984 374.162C443.733 385.839 478.332 379.182 511.238 356.936C509.189 353.899 507.347 351.17 505.344 348.2C517.875 350.355 525.32 357.399 526.29 368.369C526.505 370.789 524.963 373.363 524.23 375.866C522.396 373.845 520.362 371.965 518.799 369.752C517.831 368.377 517.577 366.499 516.728 364.059C477.49 390.953 435.331 397.684 388.738 383.721C388.738 393.069 388.297 401.017 388.871 408.89C389.368 415.683 386.559 418.568 380.784 422.155C367.28 430.545 353.419 439.264 342.373 450.479C328.885 464.176 333.918 480.706 351.994 487.698C372.606 495.67 394.213 495.802 415.702 493.157C441.161 490.024 466.481 485.764 494.111 481.658C461.455 497.226 429.646 508.284 395.783 512.786C372.212 515.92 348.656 517.678 325.259 510.923C291.759 501.253 276.825 475.824 285.642 441.978C293.911 410.234 313.584 384.906 334.993 361.51C406.252 283.636 496.298 244.06 600.597 236.292C624.918 234.482 649.555 237.677 672.325 248.26C704.455 263.191 717.703 294.674 702.214 326.521C691.943 347.638 677.758 367.054 663.798 386.114C650.007 404.944 634.17 422.266 619.504 440.47C615.177 445.842 611.268 451.694 608.068 457.799C601.995 469.382 606.16 477.302 619.28 475.993C646.8 473.247 674.793 471.085 701.376 464.072C740.401 453.775 778.367 439.456 816.769 426.807C820.481 425.585 824.09 424.063 827.746 422.679Z" fill="white"/>
<path d="M799.176 721.091V679.126C799.176 676.108 798.682 673.525 797.696 671.378C796.709 669.172 795.171 667.46 793.081 666.241C791.05 665.022 788.409 664.413 785.158 664.413C782.372 664.413 779.964 664.906 777.932 665.893C775.901 666.821 774.334 668.185 773.231 669.985C772.128 671.726 771.577 673.786 771.577 676.166H746.503C746.503 672.161 747.431 668.36 749.289 664.761C751.146 661.162 753.845 657.999 757.385 655.271C760.926 652.485 765.134 650.308 770.01 648.741C774.943 647.174 780.457 646.391 786.551 646.391C793.865 646.391 800.365 647.61 806.054 650.047C811.742 652.485 816.211 656.142 819.461 661.017C822.77 665.893 824.424 671.987 824.424 679.3V719.611C824.424 724.776 824.743 729.013 825.382 732.322C826.02 735.572 826.949 738.416 828.168 740.854V742.334H802.832C801.613 739.78 800.685 736.588 800.046 732.757C799.466 728.868 799.176 724.979 799.176 721.091ZM802.484 684.96L802.658 699.151H788.641C785.333 699.151 782.46 699.528 780.022 700.283C777.584 701.037 775.582 702.111 774.014 703.504C772.447 704.839 771.286 706.406 770.532 708.205C769.835 710.005 769.487 711.978 769.487 714.126C769.487 716.273 769.98 718.218 770.967 719.959C771.954 721.642 773.376 722.977 775.233 723.964C777.091 724.892 779.267 725.357 781.763 725.357C785.536 725.357 788.815 724.602 791.601 723.093C794.387 721.584 796.535 719.727 798.044 717.521C799.611 715.315 800.424 713.226 800.482 711.253L807.098 721.874C806.17 724.254 804.893 726.721 803.268 729.275C801.7 731.828 799.698 734.237 797.26 736.501C794.822 738.706 791.891 740.535 788.467 741.986C785.042 743.379 780.979 744.075 776.278 744.075C770.3 744.075 764.873 742.885 759.997 740.506C755.18 738.068 751.349 734.731 748.505 730.493C745.719 726.198 744.326 721.323 744.326 715.867C744.326 710.933 745.255 706.551 747.112 702.72C748.969 698.89 751.697 695.668 755.296 693.056C758.953 690.386 763.509 688.384 768.965 687.049C774.421 685.656 780.747 684.96 787.944 684.96H802.484Z" fill="white"/>
<path d="M648.034 608.609H673.108V720.746L670.583 742.338H648.034V608.609ZM732.746 694.279V696.108C732.746 703.131 731.991 709.573 730.482 715.436C729.031 721.298 726.768 726.377 723.691 730.672C720.615 734.909 716.784 738.217 712.199 740.597C707.672 742.919 702.332 744.079 696.18 744.079C690.433 744.079 685.442 742.919 681.205 740.597C677.026 738.275 673.514 734.996 670.67 730.759C667.826 726.522 665.533 721.559 663.792 715.871C662.051 710.183 660.745 703.972 659.874 697.239V693.235C660.745 686.502 662.051 680.291 663.792 674.603C665.533 668.915 667.826 663.952 670.67 659.715C673.514 655.478 677.026 652.199 681.205 649.877C685.384 647.556 690.317 646.395 696.005 646.395C702.216 646.395 707.614 647.585 712.199 649.964C716.842 652.286 720.673 655.594 723.691 659.889C726.768 664.127 729.031 669.176 730.482 675.038C731.991 680.843 732.746 687.256 732.746 694.279ZM707.672 696.108V694.279C707.672 690.449 707.382 686.85 706.801 683.484C706.279 680.059 705.35 677.07 704.015 674.516C702.68 671.904 700.852 669.844 698.53 668.335C696.267 666.825 693.335 666.071 689.737 666.071C686.312 666.071 683.41 666.651 681.031 667.812C678.651 668.973 676.677 670.598 675.11 672.688C673.601 674.777 672.469 677.273 671.715 680.175C670.96 683.019 670.496 686.153 670.322 689.578V700.983C670.496 705.569 671.25 709.631 672.585 713.172C673.978 716.655 676.068 719.412 678.854 721.443C681.698 723.416 685.384 724.403 689.911 724.403C693.452 724.403 696.383 723.707 698.704 722.314C701.026 720.921 702.825 718.947 704.102 716.393C705.437 713.839 706.366 710.85 706.888 707.426C707.411 703.943 707.672 700.171 707.672 696.108Z" fill="white"/>
<path d="M603.458 721.091V679.126C603.458 676.108 602.964 673.525 601.978 671.378C600.991 669.172 599.453 667.46 597.363 666.241C595.332 665.022 592.691 664.413 589.441 664.413C586.655 664.413 584.246 664.906 582.214 665.893C580.183 666.821 578.616 668.185 577.513 669.985C576.41 671.726 575.859 673.786 575.859 676.166H550.785C550.785 672.161 551.713 668.36 553.571 664.761C555.428 661.162 558.127 657.999 561.668 655.271C565.208 652.485 569.416 650.308 574.292 648.741C579.225 647.174 584.739 646.391 590.834 646.391C598.147 646.391 604.648 647.61 610.336 650.047C616.024 652.485 620.493 656.142 623.744 661.017C627.052 665.893 628.706 671.987 628.706 679.3V719.611C628.706 724.776 629.025 729.013 629.664 732.322C630.302 735.572 631.231 738.416 632.45 740.854V742.334H607.114C605.896 739.78 604.967 736.588 604.328 732.757C603.748 728.868 603.458 724.979 603.458 721.091ZM606.766 684.96L606.94 699.151H592.923C589.615 699.151 586.742 699.528 584.304 700.283C581.866 701.037 579.864 702.111 578.297 703.504C576.729 704.839 575.569 706.406 574.814 708.205C574.118 710.005 573.769 711.978 573.769 714.126C573.769 716.273 574.263 718.218 575.249 719.959C576.236 721.642 577.658 722.977 579.516 723.964C581.373 724.892 583.549 725.357 586.045 725.357C589.818 725.357 593.097 724.602 595.883 723.093C598.669 721.584 600.817 719.727 602.326 717.521C603.893 715.315 604.706 713.226 604.764 711.253L611.381 721.874C610.452 724.254 609.175 726.721 607.55 729.275C605.983 731.828 603.98 734.237 601.542 736.501C599.105 738.706 596.174 740.535 592.749 741.986C589.325 743.379 585.262 744.075 580.56 744.075C574.582 744.075 569.155 742.885 564.279 740.506C559.462 738.068 555.631 734.731 552.787 730.493C550.001 726.198 548.608 721.323 548.608 715.867C548.608 710.933 549.537 706.551 551.394 702.72C553.252 698.89 555.979 695.668 559.578 693.056C563.235 690.386 567.791 688.384 573.247 687.049C578.703 685.656 585.029 684.96 592.227 684.96H606.766Z" fill="white"/>
<path d="M452.317 608.609H477.391V720.746L474.866 742.338H452.317V608.609ZM537.029 694.279V696.108C537.029 703.131 536.275 709.573 534.766 715.436C533.314 721.298 531.051 726.377 527.975 730.672C524.898 734.909 521.068 738.217 516.482 740.597C511.955 742.919 506.615 744.079 500.463 744.079C494.717 744.079 489.725 742.919 485.488 740.597C481.309 738.275 477.797 734.996 474.953 730.759C472.109 726.522 469.817 721.559 468.075 715.871C466.334 710.183 465.028 703.972 464.157 697.239V693.235C465.028 686.502 466.334 680.291 468.075 674.603C469.817 668.915 472.109 663.952 474.953 659.715C477.797 655.478 481.309 652.199 485.488 649.877C489.667 647.556 494.6 646.395 500.289 646.395C506.499 646.395 511.897 647.585 516.482 649.964C521.126 652.286 524.956 655.594 527.975 659.889C531.051 664.127 533.314 669.176 534.766 675.038C536.275 680.843 537.029 687.256 537.029 694.279ZM511.955 696.108V694.279C511.955 690.449 511.665 686.85 511.084 683.484C510.562 680.059 509.633 677.07 508.298 674.516C506.963 671.904 505.135 669.844 502.813 668.335C500.55 666.825 497.619 666.071 494.02 666.071C490.596 666.071 487.693 666.651 485.314 667.812C482.934 668.973 480.961 670.598 479.393 672.688C477.884 674.777 476.753 677.273 475.998 680.175C475.243 683.019 474.779 686.153 474.605 689.578V700.983C474.779 705.569 475.534 709.631 476.869 713.172C478.262 716.655 480.351 719.412 483.137 721.443C485.981 723.416 489.667 724.403 494.194 724.403C497.735 724.403 500.666 723.707 502.988 722.314C505.309 720.921 507.109 718.947 508.385 716.393C509.72 713.839 510.649 710.85 511.171 707.426C511.694 703.943 511.955 700.171 511.955 696.108Z" fill="white"/>
<path d="M431.596 648.137V742.339H406.434V648.137H431.596ZM404.867 623.585C404.867 619.928 406.144 616.91 408.698 614.531C411.252 612.151 414.676 610.961 418.971 610.961C423.208 610.961 426.604 612.151 429.158 614.531C431.77 616.91 433.076 619.928 433.076 623.585C433.076 627.242 431.77 630.26 429.158 632.64C426.604 635.019 423.208 636.209 418.971 636.209C414.676 636.209 411.252 635.019 408.698 632.64C406.144 630.26 404.867 627.242 404.867 623.585Z" fill="white"/>
<path d="M384.408 608.609V742.338H359.247V608.609H384.408Z" fill="white"/>
<path d="M291.25 637.253L256.773 742.338H229L276.101 615.574H293.775L291.25 637.253ZM319.894 742.338L285.33 637.253L282.544 615.574H300.392L347.754 742.338H319.894ZM318.327 695.15V715.61H251.375V695.15H318.327Z" fill="white"/>
<path d="M829.016 863.609C829.016 861.952 828.66 860.419 827.947 859.011C827.274 857.561 825.869 856.256 823.732 855.096C821.634 853.894 818.468 852.859 814.233 851.989C810.67 851.202 807.444 850.27 804.555 849.193C801.705 848.115 799.271 846.811 797.252 845.278C795.273 843.745 793.749 841.943 792.681 839.872C791.612 837.8 791.078 835.377 791.078 832.601C791.078 829.95 791.632 827.444 792.74 825.082C793.888 822.721 795.491 820.629 797.549 818.806C799.647 816.983 802.16 815.554 805.089 814.518C808.018 813.483 811.284 812.965 814.886 812.965C820.031 812.965 824.425 813.918 828.066 815.823C831.708 817.729 834.498 820.277 836.438 823.467C838.377 826.615 839.347 830.116 839.347 833.968H828.363C828.363 832.104 827.829 830.302 826.76 828.562C825.731 826.781 824.207 825.31 822.188 824.15C820.209 822.99 817.775 822.41 814.886 822.41C811.838 822.41 809.364 822.907 807.464 823.902C805.604 824.854 804.238 826.076 803.368 827.568C802.536 829.059 802.121 830.633 802.121 832.29C802.121 833.533 802.319 834.652 802.714 835.646C803.15 836.599 803.902 837.489 804.971 838.318C806.039 839.105 807.543 839.851 809.483 840.555C811.422 841.259 813.896 841.964 816.904 842.668C822.169 843.911 826.503 845.402 829.907 847.142C833.311 848.882 835.844 851.015 837.506 853.542C839.169 856.069 840 859.135 840 862.739C840 865.68 839.406 868.373 838.219 870.817C837.071 873.262 835.389 875.374 833.172 877.156C830.995 878.896 828.383 880.263 825.335 881.257C822.327 882.21 818.943 882.686 815.182 882.686C809.522 882.686 804.733 881.63 800.815 879.517C796.896 877.404 793.927 874.67 791.909 871.314C789.89 867.959 788.881 864.417 788.881 860.688H799.924C800.082 863.837 800.953 866.343 802.536 868.207C804.12 870.03 806.059 871.335 808.355 872.122C810.65 872.868 812.926 873.241 815.182 873.241C818.191 873.241 820.704 872.827 822.723 871.998C824.781 871.169 826.344 870.03 827.413 868.58C828.482 867.13 829.016 865.473 829.016 863.609Z" fill="white"/>
<path d="M753.792 882.686C749.32 882.686 745.263 881.899 741.621 880.325C738.019 878.709 734.912 876.451 732.3 873.551C729.727 870.652 727.748 867.213 726.363 863.236C724.977 859.259 724.285 854.909 724.285 850.187V847.577C724.285 842.109 725.056 837.241 726.6 832.974C728.144 828.666 730.242 825.02 732.894 822.037C735.545 819.055 738.554 816.797 741.918 815.264C745.282 813.731 748.766 812.965 752.367 812.965C756.959 812.965 760.917 813.793 764.242 815.45C767.606 817.108 770.357 819.427 772.494 822.41C774.632 825.351 776.215 828.831 777.244 832.85C778.273 836.827 778.788 841.176 778.788 845.899V851.057H730.816V841.674H767.804V840.804C767.646 837.821 767.052 834.921 766.023 832.104C765.033 829.287 763.45 826.967 761.273 825.144C759.096 823.322 756.128 822.41 752.367 822.41C749.874 822.41 747.578 822.969 745.48 824.088C743.383 825.165 741.582 826.781 740.078 828.935C738.573 831.089 737.406 833.72 736.575 836.827C735.743 839.934 735.328 843.517 735.328 847.577V850.187C735.328 853.377 735.743 856.38 736.575 859.197C737.445 861.973 738.692 864.417 740.315 866.53C741.977 868.642 743.976 870.299 746.312 871.501C748.686 872.702 751.378 873.303 754.386 873.303C758.265 873.303 761.55 872.474 764.242 870.817C766.933 869.16 769.288 866.944 771.307 864.168L777.957 869.699C776.571 871.894 774.81 873.986 772.673 875.975C770.535 877.963 767.903 879.579 764.776 880.822C761.689 882.065 758.028 882.686 753.792 882.686Z" fill="white"/>
<path d="M709.501 786V881.447H698.458V786H709.501Z" fill="white"/>
<path d="M669.307 869.947V835.335C669.307 832.684 668.792 830.385 667.763 828.438C666.773 826.449 665.269 824.916 663.251 823.839C661.232 822.762 658.738 822.224 655.77 822.224C652.999 822.224 650.565 822.721 648.467 823.715C646.409 824.709 644.786 826.014 643.599 827.63C642.451 829.246 641.877 830.985 641.877 832.85H630.893C630.893 830.447 631.487 828.065 632.674 825.704C633.862 823.342 635.564 821.209 637.78 819.303C640.036 817.356 642.728 815.823 645.855 814.705C649.021 813.545 652.544 812.965 656.423 812.965C661.093 812.965 665.21 813.793 668.772 815.45C672.374 817.108 675.184 819.614 677.203 822.969C679.261 826.284 680.29 830.447 680.29 835.46V866.778C680.29 869.015 680.468 871.397 680.825 873.924C681.22 876.451 681.794 878.626 682.546 880.449V881.443H671.088C670.534 880.118 670.098 878.357 669.782 876.161C669.465 873.924 669.307 871.853 669.307 869.947ZM671.206 840.679L671.325 848.758H660.223C657.096 848.758 654.305 849.027 651.851 849.565C649.397 850.063 647.339 850.829 645.677 851.865C644.014 852.9 642.748 854.205 641.877 855.779C641.006 857.312 640.571 859.114 640.571 861.186C640.571 863.298 641.026 865.225 641.936 866.965C642.847 868.705 644.212 870.092 646.033 871.128C647.893 872.122 650.169 872.619 652.861 872.619C656.225 872.619 659.194 871.874 661.766 870.382C664.339 868.891 666.378 867.068 667.882 864.914C669.425 862.76 670.257 860.668 670.375 858.638L675.066 864.168C674.789 865.908 674.036 867.835 672.809 869.947C671.582 872.06 669.94 874.09 667.882 876.037C665.863 877.943 663.449 879.538 660.638 880.822C657.868 882.065 654.741 882.686 651.258 882.686C646.904 882.686 643.084 881.795 639.799 880.014C636.553 878.233 634.02 875.851 632.199 872.868C630.418 869.844 629.528 866.468 629.528 862.739C629.528 859.135 630.2 855.966 631.546 853.232C632.892 850.456 634.831 848.157 637.365 846.334C639.898 844.47 642.946 843.061 646.508 842.109C650.07 841.156 654.048 840.679 658.442 840.679H671.206Z" fill="white"/>
<path d="M606.016 863.609C606.016 861.952 605.66 860.419 604.948 859.011C604.275 857.561 602.87 856.256 600.732 855.096C598.634 853.894 595.468 852.859 591.233 851.989C587.67 851.202 584.445 850.27 581.555 849.193C578.705 848.115 576.271 846.811 574.252 845.278C572.273 843.745 570.75 841.943 569.681 839.872C568.612 837.8 568.078 835.377 568.078 832.601C568.078 829.95 568.632 827.444 569.74 825.082C570.888 822.721 572.491 820.629 574.549 818.806C576.647 816.983 579.161 815.554 582.09 814.518C585.019 813.483 588.284 812.965 591.886 812.965C597.031 812.965 601.425 813.918 605.066 815.823C608.708 817.729 611.498 820.277 613.438 823.467C615.377 826.615 616.347 830.116 616.347 833.968H605.363C605.363 832.104 604.829 830.302 603.76 828.562C602.731 826.781 601.207 825.31 599.189 824.15C597.21 822.99 594.775 822.41 591.886 822.41C588.838 822.41 586.364 822.907 584.464 823.902C582.604 824.854 581.239 826.076 580.368 827.568C579.537 829.059 579.121 830.633 579.121 832.29C579.121 833.533 579.319 834.652 579.715 835.646C580.15 836.599 580.902 837.489 581.971 838.318C583.039 839.105 584.544 839.851 586.483 840.555C588.423 841.259 590.896 841.964 593.904 842.668C599.169 843.911 603.503 845.402 606.907 847.142C610.311 848.882 612.844 851.015 614.506 853.542C616.169 856.069 617 859.135 617 862.739C617 865.68 616.406 868.373 615.219 870.817C614.071 873.262 612.389 875.374 610.172 877.156C607.995 878.896 605.383 880.263 602.335 881.257C599.327 882.21 595.943 882.686 592.183 882.686C586.523 882.686 581.733 881.63 577.815 879.517C573.896 877.404 570.928 874.67 568.909 871.314C566.89 867.959 565.881 864.417 565.881 860.688H576.924C577.083 863.837 577.953 866.343 579.537 868.207C581.12 870.03 583.059 871.335 585.355 872.122C587.651 872.868 589.927 873.241 592.183 873.241C595.191 873.241 597.704 872.827 599.723 871.998C601.781 871.169 603.345 870.03 604.413 868.58C605.482 867.13 606.016 865.473 606.016 863.609Z" fill="white"/>
<path d="M530.793 882.686C526.32 882.686 522.263 881.899 518.621 880.325C515.02 878.709 511.912 876.451 509.3 873.551C506.727 870.652 504.748 867.213 503.363 863.236C501.978 859.259 501.285 854.909 501.285 850.187V847.577C501.285 842.109 502.057 837.241 503.6 832.974C505.144 828.666 507.242 825.02 509.894 822.037C512.546 819.055 515.554 816.797 518.918 815.264C522.283 813.731 525.766 812.965 529.368 812.965C533.959 812.965 537.917 813.793 541.242 815.45C544.606 817.108 547.357 819.427 549.495 822.41C551.632 825.351 553.215 828.831 554.244 832.85C555.273 836.827 555.788 841.176 555.788 845.899V851.057H507.816V841.674H544.804V840.804C544.646 837.821 544.052 834.921 543.023 832.104C542.034 829.287 540.45 826.967 538.273 825.144C536.096 823.322 533.128 822.41 529.368 822.41C526.874 822.41 524.578 822.969 522.481 824.088C520.383 825.165 518.582 826.781 517.078 828.935C515.574 831.089 514.406 833.72 513.575 836.827C512.744 839.934 512.328 843.517 512.328 847.577V850.187C512.328 853.377 512.744 856.38 513.575 859.197C514.446 861.973 515.692 864.417 517.315 866.53C518.978 868.642 520.976 870.299 523.312 871.501C525.687 872.702 528.378 873.303 531.386 873.303C535.265 873.303 538.55 872.474 541.242 870.817C543.934 869.16 546.289 866.944 548.307 864.168L554.957 869.699C553.571 871.894 551.81 873.986 549.673 875.975C547.535 877.963 544.903 879.579 541.776 880.822C538.689 882.065 535.028 882.686 530.793 882.686Z" fill="white"/>
<path d="M486.502 786V881.447H475.458V786H486.502Z" fill="white"/>
<path d="M402.312 848.571V847.142C402.312 842.295 402.985 837.8 404.331 833.658C405.677 829.473 407.616 825.849 410.149 822.783C412.682 819.676 415.75 817.273 419.352 815.575C422.954 813.835 426.991 812.965 431.464 812.965C435.976 812.965 440.033 813.835 443.635 815.575C447.276 817.273 450.364 819.676 452.897 822.783C455.47 825.849 457.429 829.473 458.775 833.658C460.12 837.8 460.793 842.295 460.793 847.142V848.571C460.793 853.418 460.12 857.913 458.775 862.056C457.429 866.198 455.47 869.823 452.897 872.93C450.364 875.996 447.296 878.398 443.694 880.138C440.132 881.837 436.095 882.686 431.582 882.686C427.07 882.686 423.013 881.837 419.411 880.138C415.809 878.398 412.722 875.996 410.149 872.93C407.616 869.823 405.677 866.198 404.331 862.056C402.985 857.913 402.312 853.418 402.312 848.571ZM413.296 847.142V848.571C413.296 851.927 413.672 855.096 414.424 858.079C415.176 861.02 416.304 863.63 417.808 865.908C419.352 868.187 421.272 869.989 423.567 871.314C425.863 872.599 428.535 873.241 431.582 873.241C434.591 873.241 437.223 872.599 439.479 871.314C441.775 869.989 443.674 868.187 445.179 865.908C446.683 863.63 447.811 861.02 448.563 858.079C449.354 855.096 449.75 851.927 449.75 848.571V847.142C449.75 843.828 449.354 840.7 448.563 837.759C447.811 834.776 446.663 832.145 445.119 829.867C443.615 827.547 441.715 825.724 439.42 824.399C437.163 823.073 434.511 822.41 431.464 822.41C428.456 822.41 425.804 823.073 423.508 824.399C421.252 825.724 419.352 827.547 417.808 829.867C416.304 832.145 415.176 834.776 414.424 837.759C413.672 840.7 413.296 843.828 413.296 847.142Z" fill="white"/>
<path d="M349.234 786V881.447H338.251V786H349.234ZM346.622 845.282L342.051 845.095C342.09 840.497 342.743 836.251 344.01 832.357C345.276 828.421 347.058 825.003 349.353 822.103C351.649 819.204 354.38 816.967 357.546 815.392C360.753 813.777 364.295 812.969 368.174 812.969C371.34 812.969 374.19 813.425 376.724 814.336C379.257 815.206 381.414 816.614 383.195 818.561C385.016 820.508 386.401 823.036 387.351 826.143C388.301 829.208 388.776 832.957 388.776 837.39V881.447H377.733V837.266C377.733 833.744 377.238 830.927 376.249 828.815C375.259 826.66 373.814 825.107 371.914 824.154C370.015 823.16 367.679 822.663 364.909 822.663C362.177 822.663 359.684 823.263 357.428 824.465C355.211 825.666 353.292 827.323 351.669 829.436C350.085 831.549 348.839 833.972 347.928 836.706C347.058 839.399 346.622 842.258 346.622 845.282Z" fill="white"/>
<path d="M263.086 869.52L279.592 814.215H286.835L285.41 825.214L268.608 881.45H261.543L263.086 869.52ZM251.984 814.215L266.055 870.141L267.064 881.45H259.643L241 814.215H251.984ZM302.628 869.706L316.046 814.215H326.97L308.327 881.45H300.965L302.628 869.706ZM288.438 814.215L304.587 868.587L306.428 881.45H299.422L282.145 825.089L280.72 814.215H288.438Z" fill="white"/>
</g>
<defs>
<clipPath id="clip0_568_2096">
<rect width="1080" height="1080" fill="white"/>
</clipPath>
</defs>
</svg>
