<svg width="57" height="37" viewBox="0 0 57 37" fill="none" xmlns="http://www.w3.org/2000/svg">
<g clip-path="url(#clip0_3561_16394)">
<path fill-rule="evenodd" clip-rule="evenodd" d="M13.0442 4.6106C13.7166 4.6106 14.3739 4.8091 14.933 5.18102C15.492 5.55293 15.9278 6.08154 16.1851 6.70001C16.4424 7.31848 16.5097 7.99902 16.3786 8.65558C16.2474 9.31214 15.9236 9.91523 15.4481 10.3886C14.9727 10.8619 14.3669 11.1843 13.7074 11.3149C13.2464 11.4062 12.7736 11.4009 12.3186 11.302C12.1227 11.2593 11.9301 11.1994 11.7431 11.1223C11.1219 10.8661 10.591 10.4323 10.2174 9.87569C9.84382 9.31908 9.64443 8.66469 9.64443 7.99527C9.64443 7.0976 10.0026 6.23669 10.6402 5.60194C11.2778 4.96719 12.1425 4.6106 13.0442 4.6106ZM13.0442 6.32455C13.3788 6.31184 13.7096 6.39903 13.9942 6.57492C14.2787 6.7508 14.5039 7.00736 14.6408 7.31162C14.7778 7.61588 14.8202 7.95396 14.7627 8.28243C14.7052 8.61089 14.5504 8.91474 14.3181 9.15495C14.0859 9.39515 13.7868 9.56074 13.4593 9.63045C13.1318 9.70015 12.7908 9.67078 12.4802 9.54612C12.1696 9.42145 11.9035 9.20719 11.7162 8.93084C11.5288 8.65449 11.4287 8.32868 11.4287 7.99527C11.4206 7.56049 11.5862 7.14029 11.8891 6.82701C12.192 6.51373 12.6075 6.333 13.0442 6.32455ZM11.722 11.1305V22.8502C11.722 22.8502 11.9255 28.0318 7.94456 28.3033C6.89367 28.3745 2.34388 27.2911 3.97821 21.722C4.65306 22.5379 5.30033 23.2263 5.30033 23.2263V17.7732C5.30033 17.7732 5.5181 16.2482 4.7337 16.645C3.94931 17.0417 0.0118545 19.6536 0.0118545 19.6536C0.0118545 19.6536 -0.128668 19.8474 0.578477 20.0296C0.965624 20.125 1.34456 20.2507 1.71172 20.4057C1.71172 20.4057 0.610207 24.6178 1.90059 26.799C3.19098 28.9802 5.06933 31.1787 9.07781 30.5597C10.4904 30.1767 12.9471 28.8747 13.7997 26.0468C14.1396 24.5958 14.2133 22.5725 14.1774 19.8416C14.1415 17.1107 14.1774 11.1305 14.1774 11.1305L13.7967 11.296L12.9147 11.3775L11.722 11.1305ZM17.3883 11.3799H14.744V17.3971C14.744 17.3971 14.7718 20.4956 17.0105 20.5938C18.4594 20.6511 19.7822 20.6112 20.5991 19.2775C20.5991 19.2775 20.4858 20.5562 20.9769 20.5938C21.4679 20.6314 22.8656 20.5938 22.8656 20.5938V11.3799H20.2214V17.9612C20.2214 17.9612 18.4248 19.7664 17.3883 17.9612V11.3799ZM25.5098 18.9014C25.25 18.7926 24.9977 18.667 24.7543 18.5253C24.2903 18.2621 23.663 18.1397 23.4322 18.5253C23.2014 18.911 22.8656 19.4655 22.8656 19.4655C23.1367 19.7663 23.4557 20.0204 23.81 20.2177C24.2661 20.4266 25.8056 21.2564 27.7763 20.4057C28.7628 20.0039 29.9862 19.181 29.8539 17.3971C29.7342 16.2106 28.4735 15.2783 26.2653 14.7646C25.7524 14.6664 24.985 13.486 26.0765 13.2603C27.168 13.0347 27.5015 13.0616 27.9652 13.4483C28.4289 13.8351 29.3782 13.803 29.2873 12.8842C29.1965 11.9655 28.3702 11.6302 27.9652 11.568C27.5603 11.5057 24.5985 10.678 23.2434 13.0723C23.0042 13.5988 22.5364 15.6644 24.1877 16.4569C25.8391 17.2495 27.6987 17.3665 27.2097 18.5253C26.8522 18.9403 26.251 19.0033 25.5098 18.9014ZM33.0648 9.31153H31.1761C31.1761 9.31153 30.431 11.5328 30.4206 11.944C29.9837 12.0311 29.5423 12.0939 29.0985 12.1321C29.0985 12.1321 28.4279 13.384 29.4762 13.4483C30.5245 13.5127 30.4206 13.4483 30.4206 13.4483V18.5253C30.4206 18.5253 30.0927 20.9213 32.6871 20.9698C34.198 20.9548 34.9862 20.8296 35.5202 20.4057L34.7647 18.9014C34.7647 18.9014 33.0997 19.5543 33.0648 18.5253C33.0299 17.4964 33.0648 13.6364 33.0648 13.6364H35.3313V11.944H33.0648V9.31153ZM35.9357 25.044C33.2348 25.044 31.445 26.774 31.445 29.4806C31.445 32.1872 33.3375 33.7972 35.798 33.7972C38.0518 33.7972 40.2365 32.3925 40.2365 29.3264C40.2371 26.8084 38.5167 25.044 35.9357 25.044ZM35.8668 26.8941C37.054 26.8941 37.5358 28.1617 37.5358 29.4121C37.5358 30.9194 36.8819 31.93 35.8668 31.93C34.7484 31.93 34.1463 30.8508 34.1463 29.4121C34.1465 28.1788 34.6109 26.8941 35.8669 26.8941H35.8668ZM40.4783 37.0004H43.094V32.838H43.1284C43.5071 33.3861 44.2994 33.797 45.3137 33.797C47.189 33.797 49.1333 32.3581 49.1333 29.3091C49.1333 26.6369 47.4816 25.0438 45.6404 25.0438C44.419 25.0438 43.4553 25.5064 42.836 26.3977H42.8013L42.6808 25.2328H40.4095C40.4441 26.0038 40.4785 26.9458 40.4785 28.0421V37.0008L40.4783 37.0004ZM43.094 28.8638C43.0932 28.7082 43.1106 28.553 43.1458 28.4014C43.2178 28.0374 43.412 27.7086 43.6965 27.469C43.981 27.2293 44.3388 27.0931 44.7113 27.0825C45.8814 27.0825 46.4835 28.0931 46.4835 29.4293C46.4835 30.8508 45.8125 31.7931 44.677 31.7931C44.3193 31.79 43.9731 31.6664 43.695 31.4425C43.4169 31.2185 43.2231 30.9074 43.1454 30.5597C43.1086 30.3794 43.0912 30.1956 43.0936 30.0116V28.8646L43.094 28.8638ZM14.5283 32.4965C15.182 32.8562 16.4898 33.1988 17.8147 33.1988C20.9976 33.1988 22.4947 31.5544 22.4947 29.619C22.4947 27.9917 21.5314 26.93 19.4836 26.1758C17.9868 25.6106 17.3329 25.2853 17.3329 24.5486C17.3329 23.9491 17.8835 23.4352 19.019 23.4352C19.8591 23.4315 20.6889 23.619 21.4451 23.9833L22.0306 21.8773C21.0975 21.4743 20.0883 21.2755 19.0713 21.2944C16.3357 21.2944 14.684 22.8019 14.684 24.7718C14.684 26.4504 15.9398 27.5124 17.8669 28.1805C19.2606 28.6771 19.8111 29.0883 19.8111 29.8078C19.8111 30.5614 19.1744 31.0582 17.9702 31.0582C16.9585 31.0405 15.964 30.7945 15.0615 30.3388L14.5283 32.4965ZM22.8044 33.0275H25.4196V28.0598C25.4131 27.8619 25.4423 27.6645 25.5057 27.4769C25.6039 27.2104 25.782 26.9803 26.0159 26.818C26.2498 26.6556 26.5281 26.5687 26.8133 26.569C27.7941 26.569 28.1732 27.3227 28.1732 28.4189V33.0258H30.7883V28.1282C30.7883 25.6102 29.5151 24.4626 27.8462 24.4626C27.3732 24.4605 26.9067 24.5722 26.4863 24.7881C26.0842 24.9961 25.7321 25.2883 25.4541 25.6446H25.4196V20.8655H22.8044V33.0272V33.0275Z" fill="white"/>
<path d="M11.7173 12.9591H14.1742V10.9504H11.7173V12.9591Z" fill="white"/>
<path d="M29.1676 12.1431H28.9156L28.6006 13.3357L29.1676 13.3985L29.5455 13.3357L29.1676 12.1431Z" fill="white" stroke="white"/>
<path fill-rule="evenodd" clip-rule="evenodd" d="M39.0156 4.61071H36.1103C36.1103 4.61071 35.4235 4.58906 35.45 5.14203C35.4764 5.695 35.8461 5.80618 35.8461 5.80618H38.2233L41.5248 16.4326C41.5248 16.4326 39.3789 16.8433 39.1477 18.1594C38.9164 19.4755 38.9293 21.025 41.1286 21.613C41.8153 21.6348 42.8454 21.613 42.8454 21.613C42.8454 21.613 42.6514 20.7629 42.7133 20.4175C42.7176 20.3992 42.7171 20.3801 42.712 20.362C42.7068 20.344 42.6972 20.3275 42.684 20.3142C42.6708 20.3009 42.6544 20.2912 42.6364 20.2861C42.6185 20.2809 42.5995 20.2804 42.5813 20.2847H41.3927C41.3927 20.2847 39.8699 20.0057 40.4683 18.4251C40.7588 17.9753 41.1233 17.7609 42.053 17.7609H54.3348L56.8439 9.52543C56.8439 9.52543 57.5612 7.93147 55.9195 7.93147H40.2042L39.5439 5.54052C39.5439 5.54052 39.3431 4.71073 39.0156 4.61071ZM45.2225 9.12694H40.7324L41.7889 12.0492H45.2225V9.12694ZM46.4111 9.12694V12.0492H50.1088V9.12694H46.4111ZM51.2974 9.12694H56.1836L55.1271 12.182H51.2974V9.12694ZM51.1653 13.3775V16.4326H53.8065L54.731 13.3775H51.1653ZM46.4111 13.3775H50.1088V16.4326H46.4111V13.3775ZM42.1851 13.3775L42.9775 16.4326H45.2225V13.3775H42.1851ZM45.0905 18.2922C45.5606 18.2922 46.0202 18.4325 46.4111 18.6952C46.802 18.9579 47.1067 19.3313 47.2866 19.7682C47.4665 20.2051 47.5136 20.6858 47.4219 21.1496C47.3302 21.6134 47.1038 22.0395 46.7713 22.3738C46.4389 22.7082 46.0153 22.9359 45.5542 23.0282C45.0931 23.1204 44.6151 23.0731 44.1808 22.8921C43.7464 22.7112 43.3752 22.4047 43.114 22.0115C42.8528 21.6183 42.7133 21.1561 42.7133 20.6832C42.7133 20.0491 42.9638 19.4409 43.4096 18.9925C43.8554 18.5441 44.46 18.2922 45.0905 18.2922ZM45.0905 19.503C45.3244 19.494 45.5557 19.5556 45.7546 19.6799C45.9535 19.8041 46.1109 19.9853 46.2066 20.2002C46.3023 20.4151 46.332 20.6539 46.2918 20.8859C46.2516 21.1179 46.1434 21.3325 45.981 21.5022C45.8186 21.6718 45.6095 21.7888 45.3806 21.838C45.1516 21.8873 44.9133 21.8665 44.6961 21.7785C44.479 21.6904 44.293 21.5391 44.162 21.3439C44.031 21.1488 43.9609 20.9187 43.9609 20.6832C43.9552 20.3761 44.071 20.0792 44.2828 19.8579C44.4946 19.6366 44.7851 19.509 45.0905 19.503ZM52.0897 18.2922C52.5599 18.2922 53.0195 18.4325 53.4104 18.6952C53.8013 18.9579 54.106 19.3313 54.2859 19.7682C54.4658 20.2051 54.5129 20.6858 54.4212 21.1496C54.3294 21.6134 54.103 22.0395 53.7706 22.3738C53.4382 22.7082 53.0146 22.9359 52.5535 23.0282C52.0924 23.1204 51.6144 23.0731 51.18 22.8921C50.7457 22.7112 50.3744 22.4047 50.1132 22.0115C49.852 21.6183 49.7126 21.1561 49.7126 20.6832C49.7126 20.0491 49.9631 19.4409 50.4089 18.9925C50.8546 18.5441 51.4593 18.2922 52.0897 18.2922ZM52.0897 19.503C52.3237 19.494 52.555 19.5556 52.7538 19.6799C52.9527 19.8041 53.1102 19.9853 53.2059 20.2002C53.3016 20.4151 53.3313 20.6539 53.2911 20.8859C53.2509 21.1179 53.1426 21.3325 52.9803 21.5022C52.8179 21.6718 52.6088 21.7888 52.3799 21.838C52.1509 21.8873 51.9125 21.8665 51.6954 21.7785C51.4783 21.6904 51.2922 21.5391 51.1612 21.3439C51.0302 21.1488 50.9602 20.9187 50.9602 20.6832C50.9545 20.3761 51.0703 20.0792 51.2821 19.8579C51.4939 19.6366 51.7844 19.509 52.0897 19.503ZM47.4676 20.2847H49.7126V21.1202C49.7176 21.1652 49.7319 21.2088 49.7546 21.2479C49.7774 21.287 49.8081 21.3209 49.8447 21.3473H47.3355C47.4144 21.2568 47.4609 21.1424 47.4676 21.0222V20.2847ZM54.4668 20.2847H54.9951C55.1352 20.2847 55.2695 20.3407 55.3686 20.4403C55.4677 20.54 55.5233 20.6751 55.5233 20.816C55.5233 20.9569 55.4677 21.0921 55.3686 21.1917C55.2695 21.2914 55.1352 21.3473 54.9951 21.3473H54.3348C54.2789 21.3696 54.4668 21.1094 54.4668 20.816C54.4668 20.5226 54.4737 20.2917 54.4668 20.2847Z" fill="white"/>
</g>
<defs>
<clipPath id="clip0_3561_16394">
<rect width="57" height="37" fill="white"/>
</clipPath>
</defs>
</svg>
