<svg width="1024" height="1024" viewBox="0 0 1024 1024" fill="none" xmlns="http://www.w3.org/2000/svg">
<g clip-path="url(#clip0_3303_40994)">
<path d="M844.34 1024H179.64C80.44 1024 0 943.56 0 844.34V179.64C0 80.44 80.44 0 179.64 0H844.34C943.56 0 1024 80.44 1024 179.64V844.34C1024 943.56 943.56 1024 844.34 1024Z" fill="white"/>
<path d="M760.34 295.56C754.82 292.96 748.9 290.28 742.7 287.58C677.52 259.22 579.38 229.44 565.3 299.2C549.96 375.18 634.84 399.72 693.3 450.86C834.48 574.4 647.42 694.52 515.86 641.92C358.44 578.98 399.32 410.1 476.88 446.52C476.88 446.52 480.26 448.62 485.42 451.3C492 455.56 498.8 461.28 505.7 468.64C516.12 479.74 524.88 492.28 542.36 497.38C556.4 501.48 581.04 471.08 560.94 450.8C551.3 441.06 541.4 429.98 532.1 417.88C490.08 363.24 460.38 288.4 522.9 228.3C563.98 188.8 640.64 173.9 711.68 194.72C657.58 146.34 587.92 117.18 512 117.18C340.24 117.18 200.5 266.34 200.5 449.66C200.5 564.9 270.56 651 342.28 729.32C405.58 798.42 477.46 872.14 511.58 906.82C548.58 867.6 627.92 783 661.02 743.56C670.16 732.64 679.82 721.48 689.18 710.68C755.2 634.36 823.5 555.46 823.5 449.66C823.5 401.24 813.74 355.22 796.24 313.7C789.6 310.08 776.76 303.26 760.34 295.56Z" fill="url(#paint0_linear_3303_40994)"/>
<path fill-rule="evenodd" clip-rule="evenodd" d="M466.42 383.44C466.42 441.62 379.98 425.62 377.94 383.44C375.56 333.92 466.42 334.12 466.42 383.44Z" fill="#F3D532"/>
</g>
<defs>
<linearGradient id="paint0_linear_3303_40994" x1="200.492" y1="512" x2="823.495" y2="512" gradientUnits="userSpaceOnUse">
<stop stop-color="#E48720"/>
<stop offset="0.3805" stop-color="#E58D22"/>
<stop offset="0.9022" stop-color="#E79F26"/>
<stop offset="1" stop-color="#E8A327"/>
</linearGradient>
<clipPath id="clip0_3303_40994">
<rect width="1024" height="1024" fill="white"/>
</clipPath>
</defs>
</svg>
