<svg width="1024" height="1024" viewBox="0 0 1024 1024" fill="none" xmlns="http://www.w3.org/2000/svg">
<g clip-path="url(#clip0_3303_40962)">
<path d="M844.34 1024H179.64C80.44 1024 0 943.56 0 844.34V179.64C0 80.44 80.44 0 179.64 0H844.34C943.56 0 1024 80.44 1024 179.64V844.34C1024 943.56 943.56 1024 844.34 1024Z" fill="url(#paint0_linear_3303_40962)"/>
<path d="M844.34 1024C943.56 1024 1024 943.56 1024 844.34V732.86L918.64 757.32C840.9 811.06 669 831.58 665.42 921.88L645.1 1024H844.34Z" fill="#C4301A"/>
<path d="M844.34 1024C943.56 1024 1024 943.56 1024 844.34V732.86L918.38 753.22C820.6 797.66 665.66 829.58 665.44 921.88L645.1 1024H844.34Z" fill="white"/>
<path d="M655.339 918.04C647.159 943.36 645.119 1024 645.119 1024C825.079 933.08 1024 732.88 1024 732.88L908.699 751.44C774.919 774.24 689.579 811.96 655.339 918.04Z" fill="url(#paint1_linear_3303_40962)"/>
<path d="M823.759 989.34C827.499 988.74 832.679 986.76 836.779 983.58C841.639 979.8 842.519 975.68 840.039 972.48C837.619 969.34 833.959 969.36 826.919 971.24C816.739 973.96 808.699 972.8 803.819 966.5C797.499 958.36 798.999 947.02 810.059 938.46C814.899 934.7 819.419 932.86 822.779 932.18L827.299 942.46C824.839 942.92 820.819 944.1 816.699 947.3C812.139 950.84 811.719 954.82 813.679 957.32C816.039 960.36 819.459 959.96 827.459 957.94C838.059 955.18 845.119 957.08 850.039 963.42C856.519 971.78 855.339 983.3 843.119 992.76C838.079 996.66 832.059 999.2 828.619 999.68L823.759 989.34Z" fill="#FF8900"/>
<path d="M865.298 951.82C869.318 956.46 875.058 955.4 879.898 951.64C883.298 949 885.718 946.28 887.618 943.4L894.618 949.54C892.378 953.42 888.738 957.38 884.358 960.78C873.098 969.5 861.458 967.7 852.918 956.68C845.298 946.84 844.038 933.3 854.958 924.84C865.238 916.86 875.818 921.5 883.038 930.82C884.658 932.92 885.698 934.6 886.178 935.62L865.298 951.82ZM871.198 935.62C868.738 932.4 864.278 929.1 859.938 932.46C855.778 935.7 857.438 941.32 859.618 944.62L871.198 935.62Z" fill="#FF8900"/>
<path d="M864.279 893.92L874.819 885.76L914.219 936.56L903.679 944.72L864.279 893.92Z" fill="#FF8900"/>
<path d="M883.02 879.38L893.56 871.22L932.96 922.02L922.419 930.18L883.02 879.38Z" fill="#FF8900"/>
<path d="M938.48 895.04C942.5 899.68 948.24 898.62 953.08 894.86C956.48 892.22 958.9 889.5 960.8 886.62L967.8 892.76C965.56 896.64 961.92 900.6 957.54 904C946.28 912.72 934.64 910.92 926.1 899.9C918.48 890.06 917.22 876.52 928.14 868.06C938.42 860.08 949 864.72 956.22 874.04C957.84 876.14 958.88 877.82 959.36 878.84L938.48 895.04ZM944.4 878.86C941.94 875.64 937.48 872.34 933.14 875.7C928.98 878.94 930.64 884.56 932.82 887.86L944.4 878.86Z" fill="#FF8900"/>
<path d="M958.279 864C954.659 859.32 951.799 855.88 949.199 852.9L958.259 845.88L963.439 851.68L963.699 851.48C961.759 845.4 963.979 840.28 967.139 837.84C968.139 837.06 968.679 836.7 969.539 836.3L977.319 846.34C976.419 846.78 975.539 847.32 974.439 848.18C971.019 850.82 969.759 854.86 971.659 859C972.059 859.86 972.719 860.92 973.539 861.98L987.399 879.86L976.859 888.02L958.279 864Z" fill="#FF8900"/>
<g clip-path="url(#clip1_3303_40962)">
<path d="M689.66 389.98C685.7 388.12 681.46 386.2 677 384.26C630.24 363.92 559.84 342.56 549.72 392.6C538.72 447.1 599.62 464.72 641.56 501.42C742.86 590.04 608.64 676.22 514.26 638.5C401.32 593.36 430.66 472.18 486.28 498.32C486.28 498.32 488.7 499.82 492.42 501.74C497.14 504.8 502.02 508.9 506.96 514.18C514.44 522.14 520.72 531.14 533.26 534.8C543.34 537.74 561 515.92 546.6 501.38C539.68 494.4 532.58 486.44 525.92 477.76C495.78 438.56 474.46 384.86 519.32 341.74C548.8 313.4 603.8 302.72 654.76 317.64C615.92 282.92 565.96 262 511.48 262C388.26 262 288 369.02 288 500.54C288 583.22 338.26 644.98 389.72 701.18C435.14 750.74 486.7 803.64 511.18 828.52C537.72 800.38 594.64 739.7 618.4 711.4C624.96 703.56 631.9 695.56 638.6 687.8C685.96 633.04 734.96 576.44 734.96 500.54C734.96 465.8 727.96 432.78 715.4 403C710.64 400.38 701.42 395.5 689.66 389.98Z" fill="white"/>
<path fill-rule="evenodd" clip-rule="evenodd" d="M478.78 453.02C478.78 494.76 416.76 483.28 415.3 453.02C413.6 417.5 478.78 417.64 478.78 453.02Z" fill="#F3D532"/>
</g>
</g>
<defs>
<linearGradient id="paint0_linear_3303_40962" x1="251.727" y1="822.181" x2="908.199" y2="39.828" gradientUnits="userSpaceOnUse">
<stop stop-color="#FF8900"/>
<stop offset="0.3805" stop-color="#FF8F05"/>
<stop offset="0.9022" stop-color="#FFA114"/>
<stop offset="1" stop-color="#FFA517"/>
</linearGradient>
<linearGradient id="paint1_linear_3303_40962" x1="704.012" y1="715.069" x2="879.49" y2="934.676" gradientUnits="userSpaceOnUse">
<stop offset="0.1259" stop-color="#A09FA1"/>
<stop offset="0.6109" stop-color="white"/>
<stop offset="0.6554" stop-color="#EEEEEE"/>
<stop offset="0.7433" stop-color="#C2C2C3"/>
<stop offset="0.8046" stop-color="#A09FA1"/>
</linearGradient>
<clipPath id="clip0_3303_40962">
<rect width="1024" height="1024" fill="white"/>
</clipPath>
<clipPath id="clip1_3303_40962">
<rect width="446.96" height="566.52" fill="white" transform="translate(288 262)"/>
</clipPath>
</defs>
</svg>
