<svg width="169" height="42" viewBox="0 0 169 42" fill="none" xmlns="http://www.w3.org/2000/svg">
<g clip-path="url(#clip0_3303_40993)">
<path d="M29.6554 9.26213C29.363 9.12752 29.05 8.98856 28.7207 8.84816C25.2683 7.37612 20.0705 5.83026 19.3233 9.45174C18.5112 13.396 23.0076 14.6712 26.1041 17.3272C33.5833 23.7408 23.6735 29.9778 16.7053 27.2479C8.36665 23.9811 10.5329 15.2111 14.6394 17.1029C14.6394 17.1029 14.8181 17.2114 15.0928 17.3504C15.4412 17.5718 15.8015 17.8686 16.1663 18.2507C16.7185 18.8268 17.1822 19.4781 18.1081 19.743C18.8523 19.9558 20.1562 18.3766 19.093 17.3243C18.5821 16.8192 18.0579 16.2431 17.5661 15.6149C15.3408 12.7779 13.7667 8.89158 17.0788 5.77092C19.2554 3.7199 23.3162 2.94697 27.0787 4.02676C24.211 1.51402 20.5224 0 16.5 0C7.40241 0 0 7.74522 0 17.2635C0 23.2472 3.7108 27.7169 7.5102 31.7842C10.8637 35.3709 14.6704 39.1994 16.4778 41C18.4374 38.9635 22.6399 34.5719 24.3941 32.5238C24.8785 31.9564 25.3909 31.3775 25.8855 30.8159C29.3822 26.8528 33 22.7565 33 17.2635C33 14.7493 32.4832 12.3596 31.5558 10.2044C31.2044 10.0148 30.5237 9.66162 29.6554 9.26213Z" fill="url(#paint0_linear_3303_40993)"/>
<path fill-rule="evenodd" clip-rule="evenodd" d="M14.0858 13.8246C14.0858 16.8454 9.50669 16.0145 9.3989 13.8246C9.27338 11.2539 14.0858 11.2641 14.0858 13.8246Z" fill="#F3D532"/>
</g>
<path d="M55.1152 26.3555C55.1152 25.8633 55.0391 25.4238 54.8867 25.0371C54.7461 24.6387 54.4824 24.2812 54.0957 23.9648C53.7207 23.6367 53.1875 23.3203 52.4961 23.0156C51.8164 22.6992 50.9375 22.3711 49.8594 22.0312C48.6641 21.6562 47.5508 21.2344 46.5195 20.7656C45.4883 20.2969 44.5801 19.752 43.7949 19.1309C43.0215 18.5098 42.418 17.7949 41.9844 16.9863C41.5508 16.166 41.334 15.2168 41.334 14.1387C41.334 13.084 41.5566 12.123 42.002 11.2559C42.459 10.3887 43.1035 9.64453 43.9355 9.02344C44.7676 8.39062 45.7461 7.9043 46.8711 7.56445C48.0078 7.22461 49.2617 7.05469 50.6328 7.05469C52.5312 7.05469 54.1719 7.40039 55.5547 8.0918C56.9492 8.7832 58.0273 9.7207 58.7891 10.9043C59.5508 12.0879 59.9316 13.418 59.9316 14.8945H55.1152C55.1152 14.0977 54.9453 13.3945 54.6055 12.7852C54.2773 12.1758 53.7734 11.6953 53.0938 11.3438C52.4258 10.9922 51.582 10.8164 50.5625 10.8164C49.5781 10.8164 48.7578 10.9629 48.1016 11.2559C47.457 11.5488 46.9707 11.9473 46.6426 12.4512C46.3262 12.9551 46.168 13.5176 46.168 14.1387C46.168 14.6074 46.2793 15.0293 46.502 15.4043C46.7246 15.7676 47.0586 16.1133 47.5039 16.4414C47.9492 16.7578 48.5 17.0566 49.1562 17.3379C49.8242 17.6074 50.5977 17.877 51.4766 18.1465C52.8828 18.5684 54.1133 19.0371 55.168 19.5527C56.2344 20.0684 57.1191 20.6543 57.8223 21.3105C58.5371 21.9668 59.0703 22.7051 59.4219 23.5254C59.7852 24.3457 59.9668 25.2773 59.9668 26.3203C59.9668 27.4219 59.75 28.4062 59.3164 29.2734C58.8828 30.1406 58.2617 30.8789 57.4531 31.4883C56.6445 32.0977 55.6719 32.5605 54.5352 32.877C53.4102 33.1934 52.1504 33.3516 50.7559 33.3516C49.5137 33.3516 48.2832 33.1875 47.0645 32.8594C45.8574 32.5195 44.7617 32.0156 43.7773 31.3477C42.793 30.668 42.0078 29.8125 41.4219 28.7812C40.8359 27.7383 40.543 26.5195 40.543 25.125H45.3945C45.3945 25.9336 45.5234 26.625 45.7812 27.1992C46.0508 27.7617 46.4258 28.2246 46.9062 28.5879C47.3984 28.9395 47.9727 29.1973 48.6289 29.3613C49.2852 29.5254 49.9941 29.6074 50.7559 29.6074C51.7402 29.6074 52.5488 29.4727 53.1816 29.2031C53.8262 28.9219 54.3066 28.5352 54.623 28.043C54.9512 27.5508 55.1152 26.9883 55.1152 26.3555ZM67.8945 6V33H63.2363V6H67.8945ZM67.1562 22.8047H65.7852C65.7852 21.4805 65.9609 20.2617 66.3125 19.1484C66.6641 18.0352 67.1621 17.0684 67.8066 16.248C68.4512 15.416 69.2188 14.7715 70.1094 14.3145C71.0117 13.8574 72.0078 13.6289 73.0977 13.6289C74.0352 13.6289 74.8848 13.7637 75.6465 14.0332C76.4199 14.291 77.082 14.707 77.6328 15.2812C78.1836 15.8555 78.6055 16.6055 78.8984 17.5312C79.2031 18.4453 79.3555 19.5586 79.3555 20.8711V33H74.6797V20.8359C74.6797 19.957 74.5508 19.2656 74.293 18.7617C74.0352 18.2461 73.666 17.877 73.1855 17.6543C72.7168 17.4316 72.1367 17.3203 71.4453 17.3203C70.6953 17.3203 70.0508 17.4668 69.5117 17.7598C68.9727 18.041 68.5273 18.4336 68.1758 18.9375C67.8359 19.4414 67.5781 20.0215 67.4023 20.6777C67.2383 21.334 67.1562 22.043 67.1562 22.8047ZM82.625 23.6836V23.3145C82.625 21.9199 82.8242 20.6367 83.2227 19.4648C83.6211 18.2812 84.2012 17.2559 84.9629 16.3887C85.7246 15.5215 86.6562 14.8477 87.7578 14.3672C88.8594 13.875 90.1133 13.6289 91.5195 13.6289C92.9492 13.6289 94.2148 13.875 95.3164 14.3672C96.4297 14.8477 97.3672 15.5215 98.1289 16.3887C98.8906 17.2559 99.4707 18.2812 99.8691 19.4648C100.268 20.6367 100.467 21.9199 100.467 23.3145V23.6836C100.467 25.0664 100.268 26.3496 99.8691 27.5332C99.4707 28.7051 98.8906 29.7305 98.1289 30.6094C97.3672 31.4766 96.4355 32.1504 95.334 32.6309C94.2324 33.1113 92.9727 33.3516 91.5547 33.3516C90.1484 33.3516 88.8887 33.1113 87.7754 32.6309C86.6621 32.1504 85.7246 31.4766 84.9629 30.6094C84.2012 29.7305 83.6211 28.7051 83.2227 27.5332C82.8242 26.3496 82.625 25.0664 82.625 23.6836ZM87.2656 23.3145V23.6836C87.2656 24.5156 87.3477 25.2949 87.5117 26.0215C87.6758 26.748 87.9277 27.3867 88.2676 27.9375C88.6074 28.4883 89.0469 28.9219 89.5859 29.2383C90.1367 29.543 90.793 29.6953 91.5547 29.6953C92.3047 29.6953 92.9492 29.543 93.4883 29.2383C94.0273 28.9219 94.4668 28.4883 94.8066 27.9375C95.1582 27.3867 95.416 26.748 95.5801 26.0215C95.7441 25.2949 95.8262 24.5156 95.8262 23.6836V23.3145C95.8262 22.4941 95.7441 21.7266 95.5801 21.0117C95.416 20.2852 95.1582 19.6465 94.8066 19.0957C94.4668 18.5332 94.0215 18.0938 93.4707 17.7773C92.9316 17.4492 92.2812 17.2852 91.5195 17.2852C90.7695 17.2852 90.125 17.4492 89.5859 17.7773C89.0469 18.0938 88.6074 18.5332 88.2676 19.0957C87.9277 19.6465 87.6758 20.2852 87.5117 21.0117C87.3477 21.7266 87.2656 22.4941 87.2656 23.3145ZM108.482 17.6367V40.3125H103.824V13.9805H108.131L108.482 17.6367ZM120.699 23.2969V23.666C120.699 25.0488 120.535 26.332 120.207 27.5156C119.891 28.6875 119.422 29.7129 118.801 30.5918C118.18 31.459 117.406 32.1387 116.48 32.6309C115.566 33.1113 114.512 33.3516 113.316 33.3516C112.145 33.3516 111.125 33.1289 110.258 32.6836C109.391 32.2266 108.658 31.582 108.061 30.75C107.463 29.918 106.982 28.9512 106.619 27.8496C106.268 26.7363 106.004 25.5234 105.828 24.2109V23.0332C106.004 21.6387 106.268 20.373 106.619 19.2363C106.982 18.0879 107.463 17.0977 108.061 16.2656C108.658 15.4219 109.385 14.7715 110.24 14.3145C111.107 13.8574 112.121 13.6289 113.281 13.6289C114.488 13.6289 115.549 13.8574 116.463 14.3145C117.389 14.7715 118.168 15.4277 118.801 16.2832C119.434 17.1387 119.908 18.1582 120.225 19.3418C120.541 20.5254 120.699 21.8438 120.699 23.2969ZM116.041 23.666V23.2969C116.041 22.4531 115.965 21.6738 115.812 20.959C115.66 20.2324 115.426 19.5996 115.109 19.0605C114.793 18.5098 114.383 18.082 113.879 17.7773C113.375 17.4727 112.766 17.3203 112.051 17.3203C111.336 17.3203 110.721 17.4375 110.205 17.6719C109.689 17.9062 109.268 18.2402 108.939 18.6738C108.611 19.1074 108.354 19.623 108.166 20.2207C107.99 20.8066 107.873 21.457 107.814 22.1719V25.0898C107.92 25.957 108.125 26.7363 108.43 27.4277C108.734 28.1191 109.18 28.6699 109.766 29.0801C110.363 29.4902 111.137 29.6953 112.086 29.6953C112.801 29.6953 113.41 29.5371 113.914 29.2207C114.418 28.9043 114.828 28.4707 115.145 27.9199C115.461 27.3574 115.689 26.7129 115.83 25.9863C115.971 25.2598 116.041 24.4863 116.041 23.666Z" fill="#333333"/>
<path d="M143.775 31.1895V33H127.762V31.3652L136.146 21.8555C137.189 20.6719 138.021 19.6348 138.643 18.7441C139.264 17.8418 139.709 17.0215 139.979 16.2832C140.26 15.5332 140.4 14.8066 140.4 14.1035C140.4 13.0723 140.195 12.1641 139.785 11.3789C139.387 10.5937 138.789 9.97852 137.992 9.5332C137.195 9.08789 136.211 8.86523 135.039 8.86523C133.867 8.86523 132.848 9.11719 131.98 9.62109C131.113 10.125 130.445 10.8281 129.977 11.7305C129.52 12.6211 129.291 13.6348 129.291 14.7715H127.199C127.199 13.3652 127.51 12.0762 128.131 10.9043C128.764 9.73242 129.666 8.80078 130.838 8.10938C132.01 7.40625 133.41 7.05469 135.039 7.05469C136.586 7.05469 137.916 7.33008 139.029 7.88086C140.143 8.41992 140.998 9.19922 141.596 10.2188C142.205 11.2383 142.51 12.4688 142.51 13.9102C142.51 14.6836 142.369 15.4629 142.088 16.248C141.818 17.0332 141.443 17.8184 140.963 18.6035C140.494 19.377 139.955 20.1445 139.346 20.9062C138.748 21.668 138.121 22.418 137.465 23.1562L130.328 31.1895H143.775ZM164.008 7.40625H166.17V24.7383C166.17 26.6602 165.766 28.2598 164.957 29.5371C164.148 30.8145 163.059 31.7695 161.688 32.4023C160.328 33.0352 158.822 33.3516 157.17 33.3516C155.471 33.3516 153.941 33.0352 152.582 32.4023C151.223 31.7695 150.145 30.8145 149.348 29.5371C148.562 28.2598 148.17 26.6602 148.17 24.7383V7.40625H150.314V24.7383C150.314 26.2266 150.607 27.4746 151.193 28.4824C151.779 29.4902 152.588 30.2461 153.619 30.75C154.65 31.2539 155.834 31.5059 157.17 31.5059C158.494 31.5059 159.672 31.2539 160.703 30.75C161.734 30.2461 162.543 29.4902 163.129 28.4824C163.715 27.4746 164.008 26.2266 164.008 24.7383V7.40625Z" fill="#333333"/>
<defs>
<linearGradient id="paint0_linear_3303_40993" x1="0" y1="20.4997" x2="33" y2="20.4997" gradientUnits="userSpaceOnUse">
<stop stop-color="#E48720"/>
<stop offset="0.3805" stop-color="#E58D22"/>
<stop offset="0.9022" stop-color="#E79F26"/>
<stop offset="1" stop-color="#E8A327"/>
</linearGradient>
<clipPath id="clip0_3303_40993">
<rect width="33" height="41" fill="white"/>
</clipPath>
</defs>
</svg>
